Eczar-Extrabold.ufo
<glyph name="exclam" format="1">
  <advance width="366"/>
  <unicode hex="0021"/>
  <outline>
    <contour>
      <point x="251" y="266" type="line"/>
      <point x="301" y="715" type="line"/>
      <point x="242" y="742"/>
      <point x="132" y="740"/>
      <point x="66" y="717" type="curve"/>
      <point x="114" y="266" type="line"/>
    </contour>
    <contour>
      <point x="127" y="173"/>
      <point x="89" y="132"/>
      <point x="81" y="73" type="curve"/>
      <point x="105" y="27"/>
      <point x="143" y="-3"/>
      <point x="196" y="-20" type="curve"/>
      <point x="243" y="4"/>
      <point x="274" y="42"/>
      <point x="289" y="90" type="curve"/>
      <point x="274" y="139"/>
      <point x="230" y="179"/>
      <point x="179" y="202" type="curve"/>
    </contour>
  </outline>
</glyph>
<glyph name="numbersign" format="1">
  <advance width="621"/>
  <unicode hex="0023"/>
  <outline>
    <contour>
      <point x="125" y="0" type="line"/>
      <point x="224" y="-12" type="line"/>
      <point x="305" y="519" type="line"/>
      <point x="206" y="530" type="line"/>
    </contour>
    <contour>
      <point x="321" y="0" type="line"/>
      <point x="420" y="-12" type="line"/>
      <point x="501" y="519" type="line"/>
      <point x="402" y="530" type="line"/>
    </contour>
    <contour>
      <point x="81" y="313" type="line"/>
      <point x="569" y="313" type="line"/>
      <point x="569" y="407" type="line"/>
      <point x="81" y="407" type="line"/>
    </contour>
    <contour>
      <point x="52" y="117" type="line"/>
      <point x="540" y="117" type="line"/>
      <point x="540" y="212" type="line"/>
      <point x="52" y="212" type="line"/>
    </contour>
  </outline>
</glyph>
<glyph name="percent" format="1">
  <advance width="833"/>
  <unicode hex="0025"/>
  <outline>
    <contour>
      <point x="221" y="-30" type="line"/>
      <point x="679" y="545" type="line"/>
      <point x="600" y="608" type="line"/>
      <point x="142" y="34" type="line"/>
    </contour>
    <contour>
      <point x="172" y="350"/>
      <point x="150" y="391"/>
      <point x="150" y="434" type="curve" smooth="yes"/>
      <point x="150" y="461"/>
      <point x="159" y="489"/>
      <point x="174" y="507" type="curve"/>
      <point x="225" y="524"/>
      <point x="249" y="480"/>
      <point x="249" y="433" type="curve" smooth="yes"/>
      <point x="249" y="405"/>
      <point x="240" y="375"/>
      <point x="223" y="358" type="curve"/>
    </contour>
    <contour>
      <point x="36" y="336"/>
      <point x="114" y="258"/>
      <point x="206" y="258" type="curve" smooth="yes"/>
      <point x="299" y="258"/>
      <point x="367" y="337"/>
      <point x="367" y="431" type="curve" smooth="yes"/>
      <point x="367" y="529"/>
      <point x="293" y="613"/>
      <point x="201" y="613" type="curve" smooth="yes"/>
      <point x="108" y="613"/>
      <point x="36" y="528"/>
      <point x="36" y="433" type="curve" smooth="yes"/>
    </contour>
    <contour>
      <point x="602" y="72"/>
      <point x="580" y="112"/>
      <point x="580" y="155" type="curve" smooth="yes"/>
      <point x="580" y="183"/>
      <point x="589" y="210"/>
      <point x="604" y="229" type="curve"/>
      <point x="655" y="245"/>
      <point x="679" y="202"/>
      <point x="679" y="155" type="curve" smooth="yes"/>
      <point x="679" y="126"/>
      <point x="670" y="97"/>
      <point x="653" y="79" type="curve"/>
    </contour>
    <contour>
      <point x="466" y="57"/>
      <point x="544" y="-20"/>
      <point x="636" y="-20" type="curve" smooth="yes"/>
      <point x="729" y="-20"/>
      <point x="797" y="59"/>
      <point x="797" y="153" type="curve" smooth="yes"/>
      <point x="797" y="250"/>
      <point x="723" y="334"/>
      <point x="631" y="334" type="curve" smooth="yes"/>
      <point x="538" y="334"/>
      <point x="466" y="249"/>
      <point x="466" y="155" type="curve" smooth="yes"/>
    </contour>
  </outline>
</glyph>
<glyph name="ampersand" format="1">
  <advance width="712"/>
  <unicode hex="0026"/>
  <outline>
    <contour>
      <point x="269" y="373" type="line"/>
      <point x="225" y="395"/>
      <point x="207" y="435"/>
      <point x="207" y="466" type="curve" smooth="yes"/>
      <point x="207" y="504"/>
      <point x="234" y="539"/>
      <point x="263" y="550" type="curve"/>
      <point x="441" y="469" type="line"/>
      <point x="502" y="622" type="line"/>
      <point x="437" y="653"/>
      <point x="351" y="668"/>
      <point x="283" y="668" type="curve" smooth="yes"/>
      <point x="116" y="668"/>
      <point x="30" y="577"/>
      <point x="30" y="491" type="curve" smooth="yes"/>
      <point x="30" y="420"/>
      <point x="88" y="351"/>
      <point x="215" y="339" type="curve"/>
    </contour>
    <contour>
      <point x="402" y="371" type="line"/>
      <point x="449" y="337"/>
      <point x="473" y="277"/>
      <point x="473" y="220" type="curve" smooth="yes"/>
      <point x="473" y="175"/>
      <point x="458" y="133"/>
      <point x="425" y="105" type="curve"/>
      <point x="400" y="89"/>
      <point x="358" y="81"/>
      <point x="326" y="81" type="curve" smooth="yes"/>
      <point x="256" y="81"/>
      <point x="190" y="116"/>
      <point x="190" y="184" type="curve" smooth="yes"/>
      <point x="190" y="241"/>
      <point x="238" y="280"/>
      <point x="316" y="278" type="curve"/>
      <point x="335" y="360" type="line"/>
      <point x="201" y="413" type="line"/>
      <point x="195" y="386" type="line"/>
      <point x="105" y="382"/>
      <point x="9" y="322"/>
      <point x="9" y="207" type="curve" smooth="yes"/>
      <point x="9" y="67"/>
      <point x="148" y="-29"/>
      <point x="327" y="-29" type="curve" smooth="yes"/>
      <point x="519" y="-29"/>
      <point x="631" y="83"/>
      <point x="631" y="226" type="curve" smooth="yes"/>
      <point x="631" y="291"/>
      <point x="608" y="364"/>
      <point x="556" y="419" type="curve"/>
    </contour>
    <contour>
      <point x="401" y="281" type="line"/>
      <point x="557" y="388"/>
      <point x="626" y="355"/>
      <point x="707" y="300" type="curve"/>
      <point x="756" y="433" type="line"/>
      <point x="674" y="521"/>
      <point x="541" y="474"/>
      <point x="359" y="359" type="curve"/>
    </contour>
  </outline>
</glyph>
<glyph name="parenright" format="1">
  <advance width="386"/>
  <unicode hex="0029"/>
  <outline>
    <contour>
      <point x="281" y="-16"/>
      <point x="353" y="137"/>
      <point x="353" y="306" type="curve" smooth="yes"/>
      <point x="353" y="461"/>
      <point x="291" y="601"/>
      <point x="157" y="732" type="curve"/>
      <point x="41" y="666" type="line"/>
      <point x="114" y="544"/>
      <point x="151" y="430"/>
      <point x="151" y="310" type="curve" smooth="yes"/>
      <point x="151" y="177"/>
      <point x="108" y="50"/>
      <point x="42" y="-88" type="curve"/>
      <point x="160" y="-155" type="line"/>
    </contour>
  </outline>
</glyph>
<glyph name="asterisk" format="1">
  <advance width="434"/>
  <unicode hex="002A"/>
  <outline>
    <contour>
      <point x="-19" y="622" type="line"/>
      <point x="127" y="577" type="line"/>
      <point x="154" y="649" type="line"/>
      <point x="25" y="781" type="line"/>
    </contour>
    <contour>
      <point x="138" y="818" type="line"/>
      <point x="137" y="665" type="line"/>
      <point x="214" y="660" type="line"/>
      <point x="302" y="821" type="line"/>
    </contour>
    <contour>
      <point x="373" y="730" type="line"/>
      <point x="228" y="680" type="line"/>
      <point x="250" y="607" type="line"/>
      <point x="429" y="577" type="line"/>
    </contour>
    <contour>
      <point x="365" y="479" type="line"/>
      <point x="275" y="602" type="line"/>
      <point x="211" y="560" type="line"/>
      <point x="235" y="379" type="line"/>
    </contour>
    <contour>
      <point x="122" y="416" type="line"/>
      <point x="213" y="541" type="line"/>
      <point x="153" y="589" type="line"/>
      <point x="-11" y="513" type="line"/>
    </contour>
  </outline>
</glyph>
<glyph name="hyphen" format="1">
  <advance width="500"/>
  <unicode hex="002D"/>
  <outline>
    <contour>
      <point x="419" y="213" type="line"/>
      <point x="444" y="262" type="line"/>
      <point x="379" y="365" type="line"/>
      <point x="59" y="365" type="line"/>
      <point x="34" y="316" type="line"/>
      <point x="99" y="213" type="line"/>
    </contour>
  </outline>
</glyph>
<glyph name="zero" format="1">
  <advance width="614"/>
  <unicode hex="0030"/>
  <outline>
    <contour>
      <point x="17" y="140"/>
      <point x="124" y="-17"/>
      <point x="310" y="-17" type="curve" smooth="yes"/>
      <point x="492" y="-17"/>
      <point x="596" y="132"/>
      <point x="596" y="327" type="curve" smooth="yes"/>
      <point x="596" y="546"/>
      <point x="460" y="668"/>
      <point x="308" y="668" type="curve" smooth="yes"/>
      <point x="146" y="668"/>
      <point x="17" y="530"/>
      <point x="17" y="326" type="curve" smooth="yes"/>
    </contour>
    <contour>
      <point x="280" y="563"/>
      <point x="287" y="564"/>
      <point x="293" y="564" type="curve" smooth="yes"/>
      <point x="361" y="564"/>
      <point x="389" y="435"/>
      <point x="389" y="313" type="curve" smooth="yes"/>
      <point x="389" y="222"/>
      <point x="374" y="133"/>
      <point x="346" y="92" type="curve"/>
      <point x="338" y="89"/>
      <point x="330" y="88"/>
      <point x="324" y="88" type="curve" smooth="yes"/>
      <point x="254" y="88"/>
      <point x="227" y="220"/>
      <point x="227" y="336" type="curve" smooth="yes"/>
      <point x="227" y="426"/>
      <point x="243" y="524"/>
      <point x="272" y="562" type="curve"/>
    </contour>
  </outline>
</glyph>
<glyph name="one" format="1">
  <advance width="469"/>
  <unicode hex="0031"/>
  <outline>
    <contour>
      <point x="276" y="529" type="line"/>
      <point x="296" y="619" type="line"/>
      <point x="277" y="670" type="line"/>
      <point x="5" y="510" type="line"/>
      <point x="42" y="438" type="line"/>
    </contour>
    <contour>
      <point x="360" y="609" type="line"/>
      <point x="277" y="670" type="line"/>
      <point x="260" y="584" type="line"/>
    </contour>
    <contour>
      <point x="159" y="0" type="line"/>
      <point x="360" y="0" type="line"/>
      <point x="360" y="609" type="line"/>
      <point x="159" y="591" type="line"/>
    </contour>
    <contour>
      <point x="172" y="0" type="line"/>
      <point x="174" y="94" type="line"/>
      <point x="124" y="81"/>
      <point x="56" y="56"/>
      <point x="23" y="32" type="curve"/>
      <point x="29" y="0" type="line"/>
    </contour>
    <contour>
      <point x="475" y="0" type="line"/>
      <point x="477" y="55" type="line"/>
      <point x="339" y="80" type="line"/>
      <point x="336" y="0" type="line"/>
    </contour>
  </outline>
</glyph>
<glyph name="two" format="1">
  <advance width="617"/>
  <unicode hex="0032"/>
  <outline>
    <contour>
      <point x="194" y="388" type="line"/>
      <point x="259" y="598" type="line"/>
      <point x="46" y="601" type="line"/>
      <point x="41" y="551"/>
      <point x="53" y="437"/>
      <point x="67" y="388" type="curve"/>
    </contour>
    <contour>
      <point x="55" y="0" type="line"/>
      <point x="521" y="0" type="line"/>
      <point x="521" y="133" type="line"/>
      <point x="265" y="80" type="line"/>
      <point x="261" y="87" type="line"/>
      <point x="381" y="204" type="line"/>
      <point x="496" y="315"/>
      <point x="543" y="386"/>
      <point x="543" y="464" type="curve" smooth="yes"/>
      <point x="543" y="577"/>
      <point x="447" y="669"/>
      <point x="295" y="670" type="curve" smooth="yes"/>
      <point x="213" y="671"/>
      <point x="119" y="644"/>
      <point x="46" y="601" type="curve"/>
      <point x="179" y="566" type="line"/>
      <point x="199" y="573"/>
      <point x="219" y="576"/>
      <point x="236" y="576" type="curve" smooth="yes"/>
      <point x="305" y="576"/>
      <point x="339" y="539"/>
      <point x="339" y="489" type="curve" smooth="yes"/>
      <point x="339" y="438"/>
      <point x="303" y="382"/>
      <point x="189" y="263" type="curve" smooth="yes"/>
      <point x="33" y="98" type="line"/>
    </contour>
    <contour>
      <point x="497" y="244" type="line"/>
      <point x="333" y="8" type="line"/>
      <point x="544" y="0" type="line"/>
      <point x="568" y="81"/>
      <point x="579" y="161"/>
      <point x="581" y="221" type="curve"/>
    </contour>
  </outline>
</glyph>
<glyph name="three" format="1">
  <advance width="611"/>
  <unicode hex="0033"/>
  <outline>
    <contour>
      <point x="248" y="614" type="line"/>
      <point x="55" y="606" type="line"/>
      <point x="50" y="556"/>
      <point x="54" y="463"/>
      <point x="68" y="413" type="curve"/>
      <point x="184" y="413" type="line"/>
    </contour>
    <contour>
      <point x="340" y="417"/>
      <point x="290" y="360"/>
      <point x="194" y="355" type="curve"/>
      <point x="202" y="266" type="line"/>
      <point x="394" y="319" type="line"/>
      <point x="394" y="335" type="line"/>
      <point x="497" y="364"/>
      <point x="546" y="430"/>
      <point x="546" y="496" type="curve" smooth="yes"/>
      <point x="546" y="583"/>
      <point x="463" y="670"/>
      <point x="295" y="670" type="curve" smooth="yes"/>
      <point x="211" y="670"/>
      <point x="117" y="648"/>
      <point x="54" y="606" type="curve"/>
      <point x="91" y="534" type="line"/>
      <point x="140" y="562"/>
      <point x="178" y="572"/>
      <point x="214" y="572" type="curve" smooth="yes"/>
      <point x="288" y="572"/>
      <point x="340" y="530"/>
      <point x="340" y="471" type="curve" smooth="yes"/>
    </contour>
    <contour>
      <point x="36" y="33" type="line"/>
      <point x="113" y="-1"/>
      <point x="208" y="-20"/>
      <point x="289" y="-20" type="curve" smooth="yes"/>
      <point x="454" y="-20"/>
      <point x="572" y="59"/>
      <point x="572" y="175" type="curve" smooth="yes"/>
      <point x="572" y="271"/>
      <point x="491" y="348"/>
      <point x="385" y="342" type="curve"/>
      <point x="382" y="359" type="line"/>
      <point x="194" y="355" type="line"/>
      <point x="182" y="355" type="line"/>
      <point x="187" y="263" type="line"/>
      <point x="238" y="264" type="line"/>
      <point x="315" y="264"/>
      <point x="359" y="214"/>
      <point x="359" y="161" type="curve" smooth="yes"/>
      <point x="359" y="135"/>
      <point x="348" y="108"/>
      <point x="326" y="86" type="curve"/>
      <point x="255" y="104"/>
      <point x="170" y="168"/>
      <point x="93" y="216" type="curve"/>
    </contour>
  </outline>
</glyph>
<glyph name="five" format="1">
  <advance width="582"/>
  <unicode hex="0035"/>
  <outline>
    <contour>
      <point x="512" y="484"/>
      <point x="524" y="601"/>
      <point x="520" y="650" type="curve"/>
      <point x="325" y="648" type="line"/>
      <point x="375" y="435" type="line"/>
      <point x="498" y="435" type="line"/>
    </contour>
    <contour>
      <point x="30" y="45" type="line"/>
      <point x="109" y="-2"/>
      <point x="210" y="-24"/>
      <point x="287" y="-24" type="curve" smooth="yes"/>
      <point x="458" y="-24"/>
      <point x="551" y="81"/>
      <point x="551" y="198" type="curve" smooth="yes"/>
      <point x="551" y="337"/>
      <point x="420" y="406"/>
      <point x="307" y="408" type="curve" smooth="yes"/>
      <point x="284" y="408"/>
      <point x="259" y="408"/>
      <point x="239" y="401" type="curve"/>
      <point x="251" y="554" type="line"/>
      <point x="447" y="542" type="line"/>
      <point x="456" y="650" type="line"/>
      <point x="90" y="650" type="line"/>
      <point x="61" y="319" type="line"/>
      <point x="116" y="259" type="line"/>
      <point x="146" y="268"/>
      <point x="172" y="271"/>
      <point x="194" y="271" type="curve" smooth="yes"/>
      <point x="296" y="271"/>
      <point x="370" y="236"/>
      <point x="370" y="162" type="curve" smooth="yes"/>
      <point x="370" y="140"/>
      <point x="364" y="114"/>
      <point x="336" y="85" type="curve"/>
      <point x="264" y="103"/>
      <point x="165" y="158"/>
      <point x="87" y="227" type="curve"/>
    </contour>
  </outline>
</glyph>
<glyph name="six" format="1">
  <advance width="599"/>
  <unicode hex="0036"/>
  <outline>
    <contour>
      <point x="276" y="262" type="line"/>
      <point x="292" y="273"/>
      <point x="307" y="279"/>
      <point x="321" y="279" type="curve" smooth="yes"/>
      <point x="360" y="279"/>
      <point x="390" y="232"/>
      <point x="390" y="175" type="curve" smooth="yes"/>
      <point x="390" y="136"/>
      <point x="376" y="95"/>
      <point x="345" y="71" type="curve"/>
      <point x="267" y="68"/>
      <point x="229" y="169"/>
      <point x="229" y="281" type="curve" smooth="yes"/>
      <point x="229" y="382"/>
      <point x="261" y="489"/>
      <point x="323" y="524" type="curve"/>
      <point x="522" y="471" type="line"/>
      <point x="523" y="657" type="line"/>
      <point x="180" y="672"/>
      <point x="32" y="458"/>
      <point x="32" y="264" type="curve" smooth="yes"/>
      <point x="32" y="72"/>
      <point x="178" y="-20"/>
      <point x="326" y="-20" type="curve" smooth="yes"/>
      <point x="486" y="-20"/>
      <point x="576" y="86"/>
      <point x="576" y="206" type="curve" smooth="yes"/>
      <point x="576" y="330"/>
      <point x="482" y="399"/>
      <point x="386" y="399" type="curve" smooth="yes"/>
      <point x="343" y="399"/>
      <point x="293" y="385"/>
      <point x="254" y="349" type="curve"/>
    </contour>
  </outline>
</glyph>
<glyph name="seven" format="1">
  <advance width="527"/>
  <unicode hex="0037"/>
  <outline>
    <contour>
      <point x="488" y="650" type="line"/>
      <point x="34" y="650" type="line"/>
      <point x="80" y="527" type="line"/>
      <point x="352" y="537" type="line"/>
      <point x="359" y="529" type="line"/>
      <point x="249" y="372"/>
      <point x="162" y="211"/>
      <point x="75" y="40" type="curve"/>
      <point x="263" y="-26" type="line"/>
      <point x="346" y="179"/>
      <point x="436" y="363"/>
      <point x="537" y="548" type="curve"/>
    </contour>
    <contour>
      <point x="175" y="418" type="line"/>
      <point x="216" y="648" type="line"/>
      <point x="22" y="650" type="line"/>
      <point x="17" y="601"/>
      <point x="29" y="467"/>
      <point x="43" y="418" type="curve"/>
    </contour>
  </outline>
</glyph>
<glyph name="eight" format="1">
  <advance width="591"/>
  <unicode hex="0038"/>
  <outline>
    <contour>
      <point x="489" y="366"/>
      <point x="528" y="435"/>
      <point x="528" y="496" type="curve" smooth="yes"/>
      <point x="528" y="584"/>
      <point x="445" y="668"/>
      <point x="298" y="668" type="curve" smooth="yes"/>
      <point x="143" y="668"/>
      <point x="58" y="575"/>
      <point x="58" y="476" type="curve" smooth="yes"/>
      <point x="58" y="405"/>
      <point x="102" y="355"/>
      <point x="165" y="315" type="curve"/>
      <point x="229" y="277" type="line"/>
      <point x="335" y="218"/>
      <point x="373" y="191"/>
      <point x="373" y="129" type="curve" smooth="yes"/>
      <point x="373" y="106"/>
      <point x="368" y="92"/>
      <point x="354" y="70" type="curve"/>
      <point x="338" y="65"/>
      <point x="323" y="63"/>
      <point x="311" y="63" type="curve" smooth="yes"/>
      <point x="253" y="63"/>
      <point x="221" y="104"/>
      <point x="221" y="153" type="curve" smooth="yes"/>
      <point x="221" y="199"/>
      <point x="249" y="251"/>
      <point x="311" y="280" type="curve"/>
      <point x="239" y="364" type="line"/>
      <point x="110" y="342"/>
      <point x="36" y="255"/>
      <point x="36" y="164" type="curve" smooth="yes"/>
      <point x="36" y="48"/>
      <point x="154" y="-22"/>
      <point x="299" y="-22" type="curve" smooth="yes"/>
      <point x="441" y="-22"/>
      <point x="555" y="47"/>
      <point x="555" y="170" type="curve" smooth="yes"/>
      <point x="555" y="280"/>
      <point x="466" y="340"/>
      <point x="368" y="393" type="curve" smooth="yes"/>
      <point x="295" y="433"/>
      <point x="233" y="460"/>
      <point x="233" y="514" type="curve" smooth="yes"/>
      <point x="233" y="530"/>
      <point x="239" y="551"/>
      <point x="254" y="567" type="curve"/>
      <point x="267" y="573"/>
      <point x="280" y="575"/>
      <point x="292" y="575" type="curve" smooth="yes"/>
      <point x="337" y="575"/>
      <point x="369" y="542"/>
      <point x="369" y="495" type="curve" smooth="yes"/>
      <point x="369" y="464"/>
      <point x="355" y="424"/>
      <point x="312" y="396" type="curve"/>
      <point x="401" y="337" type="line"/>
    </contour>
  </outline>
</glyph>
<glyph name="nine" format="1">
  <advance width="592"/>
  <unicode hex="0039"/>
  <outline>
    <contour>
      <point x="262" y="335"/>
      <point x="227" y="394"/>
      <point x="227" y="459" type="curve" smooth="yes"/>
      <point x="227" y="506"/>
      <point x="243" y="552"/>
      <point x="272" y="564" type="curve"/>
      <point x="347" y="573"/>
      <point x="377" y="469"/>
      <point x="377" y="365" type="curve" smooth="yes"/>
      <point x="377" y="262"/>
      <point x="348" y="155"/>
      <point x="285" y="120" type="curve"/>
      <point x="80" y="178" type="line"/>
      <point x="111" y="-10" type="line"/>
      <point x="373" y="-33"/>
      <point x="566" y="135"/>
      <point x="566" y="364" type="curve" smooth="yes"/>
      <point x="566" y="535"/>
      <point x="459" y="670"/>
      <point x="280" y="670" type="curve" smooth="yes"/>
      <point x="125" y="670"/>
      <point x="26" y="568"/>
      <point x="26" y="441" type="curve" smooth="yes"/>
      <point x="26" y="276"/>
      <point x="194" y="180"/>
      <point x="339" y="244" type="curve"/>
      <point x="329" y="348" type="line"/>
    </contour>
  </outline>
</glyph>
<glyph name="greater" format="1">
  <advance width="578"/>
  <unicode hex="003E"/>
  <outline>
    <contour>
      <point x="349" y="246" type="line"/>
      <point x="348" y="240" type="line"/>
      <point x="57" y="97" type="line"/>
      <point x="111" y="-6" type="line"/>
      <point x="520" y="202" type="line"/>
      <point x="522" y="272" type="line"/>
      <point x="112" y="500" type="line"/>
      <point x="61" y="401" type="line"/>
    </contour>
  </outline>
</glyph>
<glyph name="question" format="1">
  <advance width="661"/>
  <unicode hex="003F"/>
  <outline>
    <contour>
      <point x="224" y="454" type="line"/>
      <point x="312" y="657" type="line"/>
      <point x="86" y="648" type="line"/>
      <point x="82" y="609"/>
      <point x="95" y="508"/>
      <point x="109" y="454" type="curve"/>
    </contour>
    <contour>
      <point x="423" y="380"/>
      <point x="575" y="384"/>
      <point x="575" y="527" type="curve" smooth="yes"/>
      <point x="575" y="646"/>
      <point x="472" y="735"/>
      <point x="316" y="735" type="curve" smooth="yes"/>
      <point x="203" y="735"/>
      <point x="130" y="689"/>
      <point x="85" y="649" type="curve"/>
      <point x="124" y="519" type="line"/>
      <point x="196" y="578"/>
      <point x="242" y="609"/>
      <point x="309" y="609" type="curve"/>
      <point x="350" y="594"/>
      <point x="367" y="557"/>
      <point x="367" y="525" type="curve" smooth="yes"/>
      <point x="367" y="436"/>
      <point x="230" y="406"/>
      <point x="230" y="254" type="curve"/>
      <point x="396" y="254" type="line"/>
    </contour>
    <contour>
      <point x="268" y="173"/>
      <point x="230" y="132"/>
      <point x="222" y="73" type="curve"/>
      <point x="246" y="27"/>
      <point x="284" y="-3"/>
      <point x="337" y="-20" type="curve"/>
      <point x="384" y="4"/>
      <point x="415" y="42"/>
      <point x="430" y="90" type="curve"/>
      <point x="415" y="139"/>
      <point x="371" y="179"/>
      <point x="320" y="202" type="curve"/>
    </contour>
  </outline>
</glyph>
<glyph name="at" format="1">
  <advance width="1098"/>
  <unicode hex="0040"/>
  <outline>
    <contour>
      <point x="506" y="399" type="line"/>
      <point x="515" y="404"/>
      <point x="529" y="407"/>
      <point x="543" y="408" type="curve"/>
      <point x="563" y="398"/>
      <point x="588" y="374"/>
      <point x="588" y="311" type="curve" smooth="yes"/>
      <point x="588" y="70" type="line"/>
      <point x="607" y="69" type="line"/>
      <point x="635" y="13"/>
      <point x="679" y="-25"/>
      <point x="804" y="-17" type="curve"/>
      <point x="983" y="16"/>
      <point x="1078" y="165"/>
      <point x="1078" y="322" type="curve" smooth="yes"/>
      <point x="1078" y="528"/>
      <point x="915" y="750"/>
      <point x="563" y="750" type="curve" smooth="yes"/>
      <point x="219" y="750"/>
      <point x="33" y="540"/>
      <point x="33" y="311" type="curve" smooth="yes"/>
      <point x="33" y="184"/>
      <point x="90" y="51"/>
      <point x="209" y="-56" type="curve"/>
      <point x="311" y="6" type="line"/>
      <point x="252" y="90"/>
      <point x="222" y="183"/>
      <point x="222" y="270" type="curve" smooth="yes"/>
      <point x="222" y="447"/>
      <point x="343" y="599"/>
      <point x="569" y="599" type="curve" smooth="yes"/>
      <point x="768" y="599"/>
      <point x="890" y="481"/>
      <point x="890" y="313" type="curve" smooth="yes"/>
      <point x="890" y="243"/>
      <point x="869" y="162"/>
      <point x="834" y="126" type="curve" smooth="yes"/>
      <point x="815" y="106"/>
      <point x="789" y="100"/>
      <point x="789" y="135" type="curve" smooth="yes"/>
      <point x="789" y="322" type="line" smooth="yes"/>
      <point x="789" y="378"/>
      <point x="787" y="408"/>
      <point x="777" y="424" type="curve" smooth="yes"/>
      <point x="745" y="471"/>
      <point x="682" y="497"/>
      <point x="623" y="497" type="curve" smooth="yes"/>
      <point x="559" y="497"/>
      <point x="441" y="478"/>
      <point x="349" y="447" type="curve"/>
      <point x="342" y="395"/>
      <point x="349" y="336"/>
      <point x="363" y="284" type="curve"/>
      <point x="477" y="285" type="line"/>
    </contour>
    <contour>
      <point x="340" y="209"/>
      <point x="315" y="158"/>
      <point x="315" y="116" type="curve" smooth="yes"/>
      <point x="315" y="45"/>
      <point x="387" y="-32"/>
      <point x="510" y="-12" type="curve"/>
      <point x="633" y="68" type="line"/>
      <point x="616" y="110" type="line"/>
      <point x="591" y="103"/>
      <point x="557" y="93"/>
      <point x="526" y="89" type="curve"/>
      <point x="516" y="100"/>
      <point x="511" y="118"/>
      <point x="511" y="131" type="curve" smooth="yes"/>
      <point x="511" y="166"/>
      <point x="549" y="177"/>
      <point x="590" y="177" type="curve"/>
      <point x="622" y="177" type="line"/>
      <point x="620" y="243" type="line"/>
      <point x="400" y="238" type="line"/>
    </contour>
  </outline>
</glyph>
<glyph name="G" format="1">
  <advance width="720"/>
  <unicode hex="0047"/>
  <outline>
    <contour>
      <point x="145" y="686"/>
      <point x="7" y="511"/>
      <point x="7" y="321" type="curve" smooth="yes"/>
      <point x="7" y="169"/>
      <point x="96" y="-36"/>
      <point x="399" y="-20" type="curve"/>
      <point x="630" y="67" type="line"/>
      <point x="585" y="130" type="line"/>
      <point x="541" y="117"/>
      <point x="457" y="98"/>
      <point x="397" y="101" type="curve" smooth="yes"/>
      <point x="272" y="108"/>
      <point x="214" y="228"/>
      <point x="214" y="353" type="curve" smooth="yes"/>
      <point x="214" y="440"/>
      <point x="240" y="529"/>
      <point x="294" y="582" type="curve"/>
      <point x="442" y="579"/>
      <point x="529" y="522"/>
      <point x="587" y="474" type="curve"/>
      <point x="618" y="625" type="line"/>
      <point x="581" y="649"/>
      <point x="504" y="686"/>
      <point x="393" y="686" type="curve" smooth="yes"/>
    </contour>
    <contour>
      <point x="354" y="272" type="line"/>
      <point x="384" y="249"/>
      <point x="421" y="229"/>
      <point x="460" y="211" type="curve"/>
      <point x="458" y="305" type="line"/>
      <point x="360" y="305" type="line"/>
    </contour>
    <contour>
      <point x="444" y="65" type="line"/>
      <point x="630" y="67" type="line"/>
      <point x="630" y="305" type="line"/>
      <point x="444" y="305" type="line"/>
    </contour>
    <contour>
      <point x="557" y="305" type="line"/>
      <point x="566" y="217" type="line"/>
      <point x="706" y="258" type="line"/>
      <point x="705" y="305" type="line"/>
    </contour>
    <contour>
      <point x="594" y="430" type="line"/>
      <point x="610" y="489"/>
      <point x="622" y="579"/>
      <point x="618" y="625" type="curve"/>
      <point x="416" y="627" type="line"/>
      <point x="471" y="430" type="line"/>
    </contour>
    <contour>
      <point x="357" y="650" type="move" name="top"/>
    </contour>
    <contour>
      <point x="357" y="0" type="move" name="bottom"/>
    </contour>
  </outline>
</glyph>
<glyph name="M" format="1">
  <advance width="1007"/>
  <unicode hex="004D"/>
  <outline>
    <contour>
      <point x="34" y="650" type="line"/>
      <point x="33" y="603" type="line"/>
      <point x="171" y="563" type="line"/>
      <point x="174" y="650" type="line"/>
    </contour>
    <contour>
      <point x="120" y="650" type="line"/>
      <point x="107" y="0" type="line"/>
      <point x="250" y="0" type="line"/>
      <point x="252" y="264" type="line"/>
      <point x="232" y="519" type="line"/>
      <point x="361" y="650" type="line"/>
    </contour>
    <contour>
      <point x="82" y="73"/>
      <point x="49" y="54"/>
      <point x="21" y="32" type="curve"/>
      <point x="27" y="0" type="line"/>
      <point x="121" y="0" type="line"/>
      <point x="120" y="91" type="line"/>
    </contour>
    <contour>
      <point x="195" y="0" type="line"/>
      <point x="335" y="0" type="line"/>
      <point x="336" y="47" type="line" smooth="yes"/>
      <point x="198" y="87" type="line"/>
    </contour>
    <contour>
      <point x="180" y="605" type="line"/>
      <point x="401" y="-7" type="line"/>
      <point x="543" y="16" type="line"/>
      <point x="543" y="136" type="line"/>
      <point x="360" y="650" type="line"/>
    </contour>
    <contour>
      <point x="456" y="36" type="line"/>
      <point x="543" y="16" type="line"/>
      <point x="772" y="613" type="line"/>
      <point x="688" y="650" type="line"/>
    </contour>
    <contour>
      <point x="688" y="650" type="line"/>
      <point x="714" y="523" type="line"/>
      <point x="694" y="264" type="line"/>
      <point x="695" y="0" type="line"/>
      <point x="896" y="0" type="line"/>
      <point x="886" y="650" type="line"/>
    </contour>
    <contour>
      <point x="877" y="650" type="line"/>
      <point x="878" y="559" type="line"/>
      <point x="916" y="577"/>
      <point x="949" y="596"/>
      <point x="977" y="618" type="curve"/>
      <point x="971" y="650" type="line"/>
    </contour>
    <contour>
      <point x="671" y="73"/>
      <point x="638" y="54"/>
      <point x="610" y="32" type="curve"/>
      <point x="616" y="0" type="line"/>
      <point x="710" y="0" type="line"/>
      <point x="709" y="91" type="line"/>
    </contour>
    <contour>
      <point x="844" y="0" type="line"/>
      <point x="984" y="0" type="line"/>
      <point x="985" y="47" type="line"/>
      <point x="847" y="87" type="line"/>
    </contour>
  </outline>
</glyph>
<glyph name="N" format="1">
  <advance width="802"/>
  <unicode hex="004E"/>
  <outline>
    <contour>
      <point x="196" y="0" type="line"/>
      <point x="336" y="0" type="line"/>
      <point x="337" y="55" type="line"/>
      <point x="199" y="79" type="line"/>
    </contour>
    <contour>
      <point x="83" y="73"/>
      <point x="50" y="54"/>
      <point x="22" y="32" type="curve"/>
      <point x="28" y="0" type="line"/>
      <point x="122" y="0" type="line"/>
      <point x="121" y="91" type="line"/>
    </contour>
    <contour>
      <point x="107" y="666" type="line"/>
      <point x="107" y="0" type="line"/>
      <point x="249" y="0" type="line"/>
      <point x="249" y="280" type="line"/>
      <point x="221" y="534" type="line"/>
      <point x="299" y="666" type="line"/>
    </contour>
    <contour>
      <point x="33" y="666" type="line"/>
      <point x="32" y="611" type="line"/>
      <point x="154" y="587" type="line"/>
      <point x="157" y="666" type="line"/>
    </contour>
    <contour>
      <point x="122" y="666" type="line"/>
      <point x="121" y="568" type="line"/>
      <point x="516" y="-14" type="line"/>
      <point x="646" y="13" type="line"/>
      <point x="672" y="99" type="line"/>
      <point x="298" y="666" type="line"/>
    </contour>
    <contour>
      <point x="464" y="666" type="line"/>
      <point x="463" y="611" type="line"/>
      <point x="601" y="587" type="line"/>
      <point x="604" y="666" type="line"/>
    </contour>
    <contour>
      <point x="561" y="666" type="line"/>
      <point x="561" y="370" type="line"/>
      <point x="597" y="42" type="line"/>
      <point x="516" y="-14" type="line"/>
      <point x="695" y="0" type="line"/>
      <point x="703" y="666" type="line"/>
    </contour>
    <contour>
      <point x="680" y="666" type="line"/>
      <point x="681" y="575" type="line"/>
      <point x="719" y="593"/>
      <point x="752" y="612"/>
      <point x="780" y="634" type="curve"/>
      <point x="774" y="666" type="line"/>
    </contour>
    <contour>
      <point x="381" y="650" type="move" name="top"/>
    </contour>
    <contour>
      <point x="395" y="0" type="move" name="bottom"/>
    </contour>
  </outline>
</glyph>
<glyph name="O" format="1">
  <advance width="698"/>
  <unicode hex="004F"/>
  <outline>
    <contour>
      <point x="159" y="686"/>
      <point x="8" y="548"/>
      <point x="8" y="328" type="curve" smooth="yes"/>
      <point x="8" y="99"/>
      <point x="171" y="-20"/>
      <point x="354" y="-20" type="curve" smooth="yes"/>
      <point x="532" y="-20"/>
      <point x="690" y="94"/>
      <point x="690" y="323" type="curve" smooth="yes"/>
      <point x="690" y="554"/>
      <point x="531" y="686"/>
      <point x="347" y="686" type="curve" smooth="yes"/>
    </contour>
    <contour>
      <point x="298" y="574"/>
      <point x="316" y="579"/>
      <point x="334" y="579" type="curve" smooth="yes"/>
      <point x="429" y="579"/>
      <point x="471" y="453"/>
      <point x="471" y="321" type="curve" smooth="yes"/>
      <point x="471" y="220"/>
      <point x="446" y="133"/>
      <point x="409" y="93" type="curve"/>
      <point x="399" y="89"/>
      <point x="389" y="85"/>
      <point x="372" y="85" type="curve" smooth="yes"/>
      <point x="282" y="85"/>
      <point x="227" y="186"/>
      <point x="227" y="350" type="curve" smooth="yes"/>
      <point x="227" y="460"/>
      <point x="252" y="536"/>
      <point x="283" y="568" type="curve"/>
    </contour>
    <contour>
      <point x="350" y="650" type="move" name="top"/>
    </contour>
  </outline>
</glyph>
<glyph name="P" format="1">
  <advance width="682"/>
  <unicode hex="0050"/>
  <outline>
    <contour>
      <point x="26" y="666" type="line"/>
      <point x="301" y="561" type="line"/>
      <point x="418" y="577" type="line"/>
      <point x="447" y="556"/>
      <point x="462" y="494"/>
      <point x="462" y="448" type="curve" smooth="yes"/>
      <point x="462" y="387"/>
      <point x="432" y="333"/>
      <point x="365" y="333" type="curve" smooth="yes"/>
      <point x="345" y="333"/>
      <point x="316" y="337"/>
      <point x="287" y="349" type="curve"/>
      <point x="284" y="229" type="line"/>
      <point x="402" y="230" type="line" smooth="yes"/>
      <point x="560" y="231"/>
      <point x="673" y="321"/>
      <point x="673" y="446" type="curve" smooth="yes"/>
      <point x="673" y="563"/>
      <point x="576" y="676"/>
      <point x="393" y="674" type="curve" smooth="yes"/>
    </contour>
    <contour>
      <point x="85" y="73"/>
      <point x="52" y="54"/>
      <point x="24" y="32" type="curve"/>
      <point x="30" y="0" type="line"/>
      <point x="124" y="0" type="line"/>
      <point x="123" y="91" type="line"/>
    </contour>
    <contour>
      <point x="294" y="0" type="line"/>
      <point x="434" y="0" type="line"/>
      <point x="435" y="55" type="line"/>
      <point x="297" y="79" type="line"/>
    </contour>
    <contour>
      <point x="101" y="666" type="line"/>
      <point x="101" y="0" type="line"/>
      <point x="311" y="0" type="line"/>
      <point x="311" y="666" type="line"/>
    </contour>
    <contour>
      <point x="26" y="666" type="line"/>
      <point x="25" y="611" type="line"/>
      <point x="155" y="589" type="line"/>
      <point x="157" y="666" type="line"/>
    </contour>
  </outline>
</glyph>
<glyph name="R" format="1">
  <advance width="746"/>
  <unicode hex="0052"/>
  <outline>
    <contour>
      <point x="32" y="666" type="line"/>
      <point x="308" y="561" type="line"/>
      <point x="424" y="577" type="line"/>
      <point x="452" y="547"/>
      <point x="466" y="499"/>
      <point x="466" y="455" type="curve" smooth="yes"/>
      <point x="466" y="385"/>
      <point x="431" y="343"/>
      <point x="364" y="343" type="curve" smooth="yes"/>
      <point x="339" y="343"/>
      <point x="308" y="350"/>
      <point x="277" y="365" type="curve"/>
      <point x="290" y="248" type="line"/>
      <point x="416" y="249" type="line" smooth="yes"/>
      <point x="563" y="249"/>
      <point x="678" y="341"/>
      <point x="678" y="460" type="curve" smooth="yes"/>
      <point x="678" y="577"/>
      <point x="566" y="674"/>
      <point x="391" y="674" type="curve"/>
    </contour>
    <contour>
      <point x="83" y="73"/>
      <point x="50" y="54"/>
      <point x="22" y="32" type="curve"/>
      <point x="28" y="0" type="line"/>
      <point x="122" y="0" type="line"/>
      <point x="121" y="91" type="line"/>
    </contour>
    <contour>
      <point x="251" y="0" type="line"/>
      <point x="391" y="0" type="line"/>
      <point x="392" y="55" type="line"/>
      <point x="254" y="79" type="line"/>
    </contour>
    <contour>
      <point x="107" y="666" type="line"/>
      <point x="107" y="0" type="line"/>
      <point x="317" y="0" type="line"/>
      <point x="317" y="666" type="line"/>
    </contour>
    <contour>
      <point x="32" y="666" type="line"/>
      <point x="31" y="611" type="line"/>
      <point x="161" y="589" type="line"/>
      <point x="163" y="666" type="line"/>
    </contour>
    <contour>
      <point x="345" y="288" type="line"/>
      <point x="494" y="0" type="line"/>
      <point x="724" y="0" type="line"/>
      <point x="540" y="297" type="line"/>
    </contour>
    <contour>
      <point x="602" y="0" type="line"/>
      <point x="742" y="0" type="line"/>
      <point x="743" y="55" type="line"/>
      <point x="605" y="78" type="line"/>
    </contour>
    <contour>
      <point x="357" y="650" type="move" name="top"/>
    </contour>
    <contour>
      <point x="370" y="0" type="move" name="bottom"/>
    </contour>
  </outline>
</glyph>
<glyph name="T" format="1">
  <advance width="692"/>
  <unicode hex="0054"/>
  <outline>
    <contour>
      <point x="242" y="666" type="line"/>
      <point x="242" y="0" type="line"/>
      <point x="452" y="0" type="line"/>
      <point x="452" y="666" type="line"/>
    </contour>
    <contour>
      <point x="211" y="73"/>
      <point x="175" y="54"/>
      <point x="147" y="32" type="curve"/>
      <point x="153" y="0" type="line"/>
      <point x="250" y="0" type="line"/>
      <point x="249" y="91" type="line"/>
    </contour>
    <contour>
      <point x="403" y="0" type="line"/>
      <point x="543" y="0" type="line"/>
      <point x="544" y="55" type="line"/>
      <point x="406" y="79" type="line"/>
    </contour>
    <contour>
      <point x="396" y="666"/>
      <point x="302" y="666"/>
      <point x="7" y="672" type="curve"/>
      <point x="24" y="558" type="line"/>
      <point x="347" y="595" type="line"/>
      <point x="668" y="558" type="line"/>
      <point x="685" y="672" type="line"/>
    </contour>
    <contour>
      <point x="664" y="419" type="line"/>
      <point x="678" y="486"/>
      <point x="690" y="626"/>
      <point x="686" y="672" type="curve"/>
      <point x="532" y="658" type="line"/>
      <point x="557" y="419" type="line" smooth="yes"/>
    </contour>
    <contour>
      <point x="160" y="658" type="line"/>
      <point x="7" y="672" type="line"/>
      <point x="2" y="626"/>
      <point x="14" y="486"/>
      <point x="29" y="419" type="curve"/>
      <point x="135" y="419" type="line"/>
    </contour>
    <contour>
      <point x="346" y="325" type="move" name="center"/>
    </contour>
    <contour>
      <point x="346" y="0" type="move" name="bottom"/>
    </contour>
    <contour>
      <point x="346" y="650" type="move" name="top"/>
    </contour>
  </outline>
</glyph>
<glyph name="V" format="1">
  <advance width="738"/>
  <unicode hex="0056"/>
  <outline>
    <contour>
      <point x="42" y="666" type="line"/>
      <point x="286" y="-18" type="line"/>
      <point x="352" y="-13"/>
      <point x="418" y="-6"/>
      <point x="468" y="2" type="curve"/>
      <point x="412" y="143" type="line"/>
      <point x="383" y="144" type="line"/>
      <point x="371" y="287" type="line"/>
      <point x="255" y="666" type="line"/>
    </contour>
    <contour>
      <point x="-3" y="666" type="line"/>
      <point x="-4" y="611" type="line"/>
      <point x="134" y="587" type="line"/>
      <point x="137" y="666" type="line"/>
    </contour>
    <contour>
      <point x="467" y="2" type="line"/>
      <point x="692" y="666" type="line"/>
      <point x="561" y="666" type="line"/>
      <point x="357" y="37" type="line"/>
    </contour>
    <contour>
      <point x="252" y="666" type="line"/>
      <point x="257" y="575" type="line"/>
      <point x="295" y="593"/>
      <point x="328" y="612"/>
      <point x="356" y="634" type="curve"/>
      <point x="350" y="666" type="line"/>
    </contour>
    <contour>
      <point x="453" y="666" type="line"/>
      <point x="452" y="611" type="line"/>
      <point x="590" y="587" type="line"/>
      <point x="593" y="666" type="line"/>
    </contour>
    <contour>
      <point x="638" y="666" type="line"/>
      <point x="643" y="575" type="line"/>
      <point x="681" y="593"/>
      <point x="714" y="612"/>
      <point x="742" y="634" type="curve"/>
      <point x="736" y="666" type="line"/>
    </contour>
  </outline>
</glyph>
<glyph name="X" format="1">
  <advance width="727"/>
  <unicode hex="0058"/>
  <outline>
    <contour>
      <point x="154" y="587" type="line"/>
      <point x="157" y="666" type="line"/>
      <point x="17" y="666" type="line"/>
      <point x="16" y="611" type="line"/>
    </contour>
    <contour>
      <point x="256" y="666" type="line"/>
      <point x="261" y="575" type="line"/>
      <point x="299" y="593"/>
      <point x="332" y="612"/>
      <point x="360" y="634" type="curve"/>
      <point x="354" y="666" type="line"/>
    </contour>
    <contour>
      <point x="431" y="666" type="line"/>
      <point x="430" y="611" type="line"/>
      <point x="568" y="587" type="line"/>
      <point x="571" y="666" type="line"/>
    </contour>
    <contour>
      <point x="615" y="666" type="line"/>
      <point x="620" y="575" type="line"/>
      <point x="658" y="593"/>
      <point x="691" y="612"/>
      <point x="719" y="634" type="curve"/>
      <point x="713" y="666" type="line"/>
    </contour>
    <contour>
      <point x="55" y="73"/>
      <point x="22" y="54"/>
      <point x="-6" y="32" type="curve"/>
      <point x="0" y="0" type="line"/>
      <point x="98" y="0" type="line"/>
      <point x="93" y="91" type="line"/>
    </contour>
    <contour>
      <point x="160" y="0" type="line"/>
      <point x="300" y="0" type="line"/>
      <point x="301" y="55" type="line"/>
      <point x="163" y="79" type="line"/>
    </contour>
    <contour>
      <point x="453" y="73"/>
      <point x="420" y="54"/>
      <point x="392" y="32" type="curve"/>
      <point x="398" y="0" type="line"/>
      <point x="496" y="0" type="line"/>
      <point x="491" y="91" type="line"/>
    </contour>
    <contour>
      <point x="608" y="0" type="line"/>
      <point x="748" y="0" type="line"/>
      <point x="749" y="55" type="line"/>
      <point x="607" y="79" type="line"/>
    </contour>
    <contour>
      <point x="35" y="666" type="line"/>
      <point x="490" y="0" type="line"/>
      <point x="723" y="0" type="line"/>
      <point x="267" y="666" type="line"/>
    </contour>
    <contour>
      <point x="549" y="666" type="line"/>
      <point x="368" y="377" type="line"/>
      <point x="477" y="345" type="line"/>
      <point x="688" y="666" type="line"/>
    </contour>
    <contour>
      <point x="23" y="0" type="line"/>
      <point x="180" y="0" type="line"/>
      <point x="408" y="348" type="line"/>
      <point x="302" y="400" type="line"/>
    </contour>
  </outline>
</glyph>
<glyph name="asciicircum" format="1">
  <advance width="483"/>
  <unicode hex="005E"/>
  <outline>
    <contour>
      <point x="8" y="379" type="line"/>
      <point x="106" y="319" type="line"/>
      <point x="238" y="520" type="line"/>
      <point x="245" y="520" type="line"/>
      <point x="384" y="320" type="line"/>
      <point x="477" y="380" type="line"/>
      <point x="289" y="650" type="line"/>
      <point x="191" y="650" type="line"/>
    </contour>
  </outline>
</glyph>
<glyph name="a" format="1">
  <advance width="581"/>
  <unicode hex="0061"/>
  <outline>
    <contour>
      <point x="49" y="209"/>
      <point x="24" y="159"/>
      <point x="24" y="117" type="curve" smooth="yes"/>
      <point x="24" y="46"/>
      <point x="96" y="-32"/>
      <point x="219" y="-12" type="curve"/>
      <point x="342" y="69" type="line"/>
      <point x="325" y="111" type="line"/>
      <point x="300" y="104"/>
      <point x="266" y="94"/>
      <point x="235" y="90" type="curve"/>
      <point x="225" y="101"/>
      <point x="220" y="119"/>
      <point x="220" y="132" type="curve" smooth="yes"/>
      <point x="220" y="167"/>
      <point x="258" y="178"/>
      <point x="299" y="178" type="curve"/>
      <point x="331" y="178" type="line"/>
      <point x="331" y="244" type="line"/>
      <point x="109" y="239" type="line"/>
    </contour>
    <contour>
      <point x="51" y="402"/>
      <point x="57" y="342"/>
      <point x="72" y="293" type="curve"/>
      <point x="186" y="294" type="line"/>
      <point x="215" y="406" type="line"/>
      <point x="224" y="411"/>
      <point x="239" y="415"/>
      <point x="252" y="416" type="curve"/>
      <point x="273" y="405"/>
      <point x="297" y="381"/>
      <point x="297" y="318" type="curve" smooth="yes"/>
      <point x="297" y="73" type="line"/>
      <point x="316" y="70" type="line"/>
      <point x="343" y="14"/>
      <point x="389" y="-17"/>
      <point x="435" y="-17" type="curve"/>
      <point x="578" y="65" type="line"/>
      <point x="575" y="110" type="line"/>
      <point x="551" y="109"/>
      <point x="538" y="108"/>
      <point x="522" y="108" type="curve" smooth="yes"/>
      <point x="506" y="108"/>
      <point x="498" y="120"/>
      <point x="498" y="134" type="curve"/>
      <point x="498" y="329" type="line"/>
      <point x="498" y="385"/>
      <point x="496" y="415"/>
      <point x="486" y="431" type="curve" smooth="yes"/>
      <point x="445" y="485"/>
      <point x="392" y="505"/>
      <point x="333" y="505" type="curve" smooth="yes"/>
      <point x="273" y="505"/>
      <point x="150" y="486"/>
      <point x="59" y="454" type="curve"/>
    </contour>
    <contour>
      <point x="271" y="468" type="move" name="top"/>
    </contour>
  </outline>
</glyph>
<glyph name="c" format="1">
  <advance width="479"/>
  <unicode hex="0063"/>
  <outline>
    <contour>
      <point x="444" y="140" type="line"/>
      <point x="404" y="120"/>
      <point x="369" y="108"/>
      <point x="333" y="108" type="curve" smooth="yes"/>
      <point x="245" y="108"/>
      <point x="199" y="176"/>
      <point x="199" y="269" type="curve" smooth="yes"/>
      <point x="199" y="306"/>
      <point x="207" y="366"/>
      <point x="243" y="403" type="curve"/>
      <point x="276" y="376"/>
      <point x="298" y="333"/>
      <point x="319" y="274" type="curve"/>
      <point x="484" y="353" type="line"/>
      <point x="464" y="455"/>
      <point x="367" y="504"/>
      <point x="269" y="504" type="curve" smooth="yes"/>
      <point x="123" y="504"/>
      <point x="8" y="399"/>
      <point x="8" y="240" type="curve" smooth="yes"/>
      <point x="8" y="55"/>
      <point x="167" y="-43"/>
      <point x="322" y="-12" type="curve"/>
      <point x="470" y="81" type="line"/>
    </contour>
    <contour>
      <point x="271" y="468" type="move" name="top"/>
    </contour>
    <contour>
      <point x="255" y="0" type="move" name="bottom"/>
    </contour>
  </outline>
</glyph>
<glyph name="e" format="1">
  <advance width="516"/>
  <unicode hex="0065"/>
  <outline>
    <contour>
      <point x="461" y="147" type="line"/>
      <point x="413" y="121"/>
      <point x="376" y="108"/>
      <point x="334" y="108" type="curve" smooth="yes"/>
      <point x="251" y="108"/>
      <point x="192" y="159"/>
      <point x="192" y="257" type="curve" smooth="yes"/>
      <point x="192" y="313"/>
      <point x="211" y="385"/>
      <point x="252" y="413" type="curve"/>
      <point x="303" y="407"/>
      <point x="333" y="331"/>
      <point x="323" y="271" type="curve"/>
      <point x="503" y="278" type="line"/>
      <point x="504" y="448"/>
      <point x="370" y="504"/>
      <point x="272" y="504" type="curve" smooth="yes"/>
      <point x="138" y="504"/>
      <point x="8" y="401"/>
      <point x="8" y="236" type="curve" smooth="yes"/>
      <point x="8" y="55"/>
      <point x="167" y="-42"/>
      <point x="331" y="-11" type="curve"/>
      <point x="489" y="85" type="line"/>
    </contour>
    <contour>
      <point x="134" y="220" type="line"/>
      <point x="444" y="219" type="line"/>
      <point x="503" y="278" type="line"/>
      <point x="395" y="318" type="line"/>
      <point x="118" y="299" type="line"/>
    </contour>
    <contour>
      <point x="481" y="18" type="move" name="ogonek"/>
    </contour>
    <contour>
      <point x="272" y="0" type="move" name="bottom"/>
    </contour>
    <contour>
      <point x="267" y="468" type="move" name="top"/>
    </contour>
  </outline>
</glyph>
<glyph name="g" format="1">
  <advance width="591"/>
  <unicode hex="0067"/>
  <outline>
    <contour>
      <point x="409" y="564"/>
      <point x="388" y="439"/>
      <point x="413" y="352" type="curve"/>
      <point x="435" y="375" type="line"/>
      <point x="475" y="411"/>
      <point x="526" y="424"/>
      <point x="587" y="413" type="curve"/>
      <point x="556" y="567" type="line"/>
    </contour>
    <contour>
      <point x="429" y="156"/>
      <point x="516" y="241"/>
      <point x="516" y="331" type="curve" smooth="yes"/>
      <point x="516" y="425"/>
      <point x="422" y="506"/>
      <point x="272" y="506" type="curve" smooth="yes"/>
      <point x="111" y="506"/>
      <point x="25" y="413"/>
      <point x="25" y="326" type="curve" smooth="yes"/>
      <point x="25" y="245"/>
      <point x="98" y="156"/>
      <point x="266" y="156" type="curve" smooth="yes"/>
    </contour>
    <contour>
      <point x="294" y="435"/>
      <point x="323" y="374"/>
      <point x="323" y="320" type="curve" smooth="yes"/>
      <point x="323" y="283"/>
      <point x="312" y="246"/>
      <point x="295" y="236" type="curve"/>
      <point x="242" y="224"/>
      <point x="218" y="274"/>
      <point x="218" y="329" type="curve" smooth="yes"/>
      <point x="218" y="366"/>
      <point x="227" y="410"/>
      <point x="241" y="419" type="curve"/>
    </contour>
    <contour>
      <point x="164" y="44" type="line"/>
      <point x="7" y="-94" type="line"/>
      <point x="23" y="-216"/>
      <point x="141" y="-252"/>
      <point x="236" y="-252" type="curve" smooth="yes"/>
      <point x="455" y="-252"/>
      <point x="612" y="-65"/>
      <point x="541" y="75" type="curve"/>
      <point x="441" y="104"/>
      <point x="319" y="126"/>
      <point x="201" y="127" type="curve"/>
      <point x="221" y="146"/>
      <point x="245" y="164"/>
      <point x="273" y="180" type="curve"/>
      <point x="206" y="197" type="line"/>
      <point x="141" y="167"/>
      <point x="90" y="129"/>
      <point x="39" y="78" type="curve"/>
      <point x="61" y="-4" type="line"/>
      <point x="195" y="-11"/>
      <point x="327" y="-32"/>
      <point x="416" y="-62" type="curve"/>
      <point x="388" y="-92"/>
      <point x="326" y="-109"/>
      <point x="270" y="-109" type="curve" smooth="yes"/>
      <point x="210" y="-109"/>
      <point x="158" y="-91"/>
      <point x="158" y="-49" type="curve" smooth="yes"/>
      <point x="158" y="-20"/>
      <point x="190" y="12"/>
      <point x="260" y="51" type="curve"/>
    </contour>
    <contour>
      <point x="268" y="468" type="move" name="top"/>
    </contour>
  </outline>
</glyph>
<glyph name="i" format="1">
  <advance width="366"/>
  <unicode hex="0069"/>
  <outline>
    <contour>
      <point x="235" y="574"/>
      <point x="271" y="616"/>
      <point x="296" y="664" type="curve"/>
      <point x="264" y="711"/>
      <point x="220" y="752"/>
      <point x="170" y="780" type="curve"/>
      <point x="124" y="745"/>
      <point x="87" y="699"/>
      <point x="59" y="645" type="curve"/>
      <point x="93" y="603"/>
      <point x="140" y="567"/>
      <point x="192" y="543" type="curve"/>
    </contour>
    <contour>
      <point x="131" y="383" type="line"/>
      <point x="218" y="417" type="line"/>
      <point x="223" y="503" type="line"/>
      <point x="143" y="500"/>
      <point x="68" y="487"/>
      <point x="4" y="464" type="curve"/>
      <point x="6" y="415" type="line"/>
    </contour>
    <contour>
      <point x="81" y="0" type="line"/>
      <point x="282" y="0" type="line"/>
      <point x="282" y="450" type="line"/>
      <point x="223" y="503" type="line"/>
      <point x="81" y="445" type="line"/>
    </contour>
    <contour>
      <point x="353" y="0" type="line"/>
      <point x="354" y="49" type="line"/>
      <point x="312" y="80"/>
      <point x="251" y="102"/>
      <point x="207" y="115" type="curve"/>
      <point x="174" y="0" type="line"/>
    </contour>
    <contour>
      <point x="129" y="0" type="line"/>
      <point x="137" y="88" type="line"/>
      <point x="95" y="79"/>
      <point x="47" y="61"/>
      <point x="5" y="35" type="curve"/>
      <point x="6" y="0" type="line"/>
    </contour>
    <contour>
      <point x="46" y="0" type="move" name="ogonek"/>
    </contour>
  </outline>
</glyph>
<glyph name="j" format="1">
  <advance width="346"/>
  <unicode hex="006A"/>
  <outline>
    <contour>
      <point x="236" y="574"/>
      <point x="272" y="615"/>
      <point x="297" y="664" type="curve"/>
      <point x="265" y="710"/>
      <point x="221" y="751"/>
      <point x="171" y="780" type="curve"/>
      <point x="125" y="745"/>
      <point x="88" y="699"/>
      <point x="60" y="645" type="curve"/>
      <point x="94" y="603"/>
      <point x="141" y="567"/>
      <point x="193" y="543" type="curve"/>
    </contour>
    <contour>
      <point x="224" y="503" type="line"/>
      <point x="82" y="445" type="line"/>
      <point x="82" y="-69" type="line" smooth="yes"/>
      <point x="82" y="-133"/>
      <point x="37" y="-164"/>
      <point x="-13" y="-181" type="curve"/>
      <point x="4" y="-222" type="line"/>
      <point x="210" y="-210"/>
      <point x="283" y="-114"/>
      <point x="283" y="-39" type="curve" smooth="yes"/>
      <point x="283" y="450" type="line"/>
    </contour>
    <contour>
      <point x="132" y="383" type="line"/>
      <point x="219" y="417" type="line"/>
      <point x="224" y="503" type="line"/>
      <point x="144" y="500"/>
      <point x="69" y="487"/>
      <point x="5" y="464" type="curve"/>
      <point x="7" y="415" type="line"/>
    </contour>
    <contour>
      <point x="30" y="100" type="move" name="top"/>
    </contour>
  </outline>
</glyph>
<glyph name="n" format="1">
  <advance width="666"/>
  <unicode hex="006E"/>
  <outline>
    <contour>
      <point x="133" y="383" type="line"/>
      <point x="220" y="417" type="line"/>
      <point x="225" y="503" type="line"/>
      <point x="145" y="500"/>
      <point x="70" y="487"/>
      <point x="6" y="464" type="curve"/>
      <point x="8" y="415" type="line"/>
    </contour>
    <contour>
      <point x="83" y="0" type="line"/>
      <point x="284" y="0" type="line"/>
      <point x="284" y="442" type="line"/>
      <point x="225" y="503" type="line"/>
      <point x="83" y="445" type="line"/>
    </contour>
    <contour>
      <point x="132" y="0" type="line"/>
      <point x="140" y="88" type="line"/>
      <point x="98" y="79"/>
      <point x="50" y="61"/>
      <point x="8" y="35" type="curve"/>
      <point x="9" y="0" type="line"/>
    </contour>
    <contour>
      <point x="338" y="0" type="line"/>
      <point x="339" y="49" type="line"/>
      <point x="297" y="80"/>
      <point x="252" y="102"/>
      <point x="208" y="115" type="curve"/>
      <point x="175" y="0" type="line"/>
    </contour>
    <contour>
      <point x="653" y="0" type="line"/>
      <point x="655" y="49" type="line"/>
      <point x="613" y="80"/>
      <point x="551" y="102"/>
      <point x="507" y="115" type="curve"/>
      <point x="474" y="0" type="line"/>
    </contour>
    <contour>
      <point x="382" y="0" type="line"/>
      <point x="583" y="0" type="line"/>
      <point x="583" y="294" type="line" smooth="yes"/>
      <point x="583" y="383"/>
      <point x="581" y="408"/>
      <point x="571" y="425" type="curve" smooth="yes"/>
      <point x="530" y="489"/>
      <point x="456" y="500"/>
      <point x="417" y="498" type="curve"/>
      <point x="332" y="468"/>
      <point x="243" y="405"/>
      <point x="163" y="315" type="curve"/>
      <point x="164" y="294" type="line"/>
      <point x="212" y="330"/>
      <point x="265" y="366"/>
      <point x="312" y="369" type="curve" smooth="yes"/>
      <point x="358" y="372"/>
      <point x="382" y="336"/>
      <point x="382" y="281" type="curve" smooth="yes"/>
    </contour>
    <contour>
      <point x="333" y="468" type="move" name="top"/>
    </contour>
    <contour>
      <point x="337" y="0" type="move" name="bottom"/>
    </contour>
  </outline>
</glyph>
<glyph name="o" format="1">
  <advance width="539"/>
  <unicode hex="006F"/>
  <outline>
    <contour>
      <point x="8" y="76"/>
      <point x="137" y="-20"/>
      <point x="272" y="-20" type="curve" smooth="yes"/>
      <point x="407" y="-20"/>
      <point x="526" y="74"/>
      <point x="526" y="241" type="curve" smooth="yes"/>
      <point x="526" y="413"/>
      <point x="399" y="504"/>
      <point x="267" y="504" type="curve" smooth="yes"/>
      <point x="133" y="504"/>
      <point x="8" y="412"/>
      <point x="8" y="245" type="curve" smooth="yes"/>
    </contour>
    <contour>
      <point x="288" y="79"/>
      <point x="282" y="78"/>
      <point x="275" y="78" type="curve" smooth="yes"/>
      <point x="227" y="78"/>
      <point x="210" y="148"/>
      <point x="210" y="239" type="curve" smooth="yes"/>
      <point x="210" y="309"/>
      <point x="219" y="366"/>
      <point x="234" y="389" type="curve"/>
      <point x="241" y="394"/>
      <point x="251" y="396"/>
      <point x="261" y="396" type="curve" smooth="yes"/>
      <point x="307" y="396"/>
      <point x="324" y="322"/>
      <point x="324" y="229" type="curve" smooth="yes"/>
      <point x="324" y="158"/>
      <point x="316" y="99"/>
      <point x="296" y="82" type="curve"/>
    </contour>
    <contour>
      <point x="267" y="468" type="move" name="top"/>
    </contour>
  </outline>
</glyph>
<glyph name="t" format="1">
  <advance width="421"/>
  <unicode hex="0074"/>
  <outline>
    <contour>
      <point x="391" y="129" type="line"/>
      <point x="368" y="127"/>
      <point x="338" y="125"/>
      <point x="315" y="125" type="curve" smooth="yes"/>
      <point x="289" y="125"/>
      <point x="276" y="134"/>
      <point x="276" y="164" type="curve" smooth="yes"/>
      <point x="276" y="443" type="line"/>
      <point x="236" y="613" type="line"/>
      <point x="146" y="613" type="line"/>
      <point x="75" y="450" type="line"/>
      <point x="75" y="99" type="line" smooth="yes"/>
      <point x="75" y="35"/>
      <point x="144" y="-20"/>
      <point x="218" y="-17" type="curve"/>
      <point x="395" y="76" type="line"/>
    </contour>
    <contour>
      <point x="218" y="351" type="line"/>
      <point x="222" y="426" type="line"/>
      <point x="194" y="540" type="line"/>
      <point x="112" y="496"/>
      <point x="46" y="452"/>
      <point x="-4" y="406" type="curve"/>
      <point x="-3" y="350" type="line"/>
    </contour>
    <contour>
      <point x="232" y="349" type="line"/>
      <point x="354" y="349" type="line"/>
      <point x="405" y="417" type="line"/>
      <point x="405" y="474" type="line"/>
      <point x="232" y="474" type="line"/>
    </contour>
    <contour>
      <point x="219" y="234" type="move" name="center"/>
    </contour>
    <contour>
      <point x="199" y="0" type="move" name="bottom"/>
    </contour>
    <contour>
      <point x="417" y="468" type="move" name="topright"/>
    </contour>
  </outline>
</glyph>
<glyph name="u" format="1">
  <advance width="656"/>
  <unicode hex="0075"/>
  <outline>
    <contour>
      <point x="127" y="383" type="line"/>
      <point x="214" y="417" type="line"/>
      <point x="219" y="503" type="line"/>
      <point x="139" y="500"/>
      <point x="64" y="487"/>
      <point x="0" y="464" type="curve"/>
      <point x="2" y="415" type="line"/>
    </contour>
    <contour>
      <point x="497" y="188" type="line"/>
      <point x="448" y="153"/>
      <point x="397" y="119"/>
      <point x="349" y="116" type="curve" smooth="yes"/>
      <point x="300" y="112"/>
      <point x="278" y="140"/>
      <point x="278" y="194" type="curve" smooth="yes"/>
      <point x="278" y="450" type="line"/>
      <point x="219" y="503" type="line"/>
      <point x="77" y="449" type="line"/>
      <point x="77" y="191" type="line" smooth="yes"/>
      <point x="77" y="102"/>
      <point x="79" y="77"/>
      <point x="90" y="60" type="curve" smooth="yes"/>
      <point x="131" y="-4"/>
      <point x="204" y="-21"/>
      <point x="243" y="-17" type="curve"/>
      <point x="330" y="13"/>
      <point x="421" y="78"/>
      <point x="498" y="167" type="curve"/>
    </contour>
    <contour>
      <point x="423" y="383" type="line"/>
      <point x="510" y="417" type="line"/>
      <point x="515" y="503" type="line"/>
      <point x="443" y="501"/>
      <point x="376" y="489"/>
      <point x="320" y="468" type="curve"/>
      <point x="322" y="419" type="line"/>
    </contour>
    <contour>
      <point x="627" y="109"/>
      <point x="614" y="108"/>
      <point x="598" y="108" type="curve" smooth="yes"/>
      <point x="582" y="108"/>
      <point x="574" y="120"/>
      <point x="574" y="134" type="curve"/>
      <point x="574" y="450" type="line"/>
      <point x="515" y="503" type="line"/>
      <point x="373" y="449" type="line"/>
      <point x="373" y="77" type="line"/>
      <point x="392" y="74" type="line"/>
      <point x="419" y="18"/>
      <point x="464" y="-16"/>
      <point x="510" y="-17" type="curve"/>
      <point x="654" y="65" type="line"/>
      <point x="651" y="110" type="line"/>
    </contour>
    <contour>
      <point x="590" y="10" type="move" name="ogonek"/>
    </contour>
    <contour>
      <point x="307" y="468" type="move" name="top"/>
    </contour>
  </outline>
</glyph>
<glyph name="w" format="1">
  <advance width="803"/>
  <unicode hex="0077"/>
  <outline>
    <contour>
      <point x="-31" y="426" type="line"/>
      <point x="152" y="296" type="line"/>
      <point x="201" y="482" type="line"/>
      <point x="-31" y="482" type="line"/>
    </contour>
    <contour>
      <point x="795" y="482" type="line"/>
      <point x="575" y="482" type="line"/>
      <point x="576" y="161" type="line"/>
      <point x="565" y="161" type="line"/>
      <point x="477" y="480" type="line"/>
      <point x="274" y="476" type="line"/>
      <point x="447" y="-4" type="line"/>
      <point x="488" y="-12"/>
      <point x="571" y="-11"/>
      <point x="620" y="4" type="curve"/>
    </contour>
    <contour>
      <point x="627" y="482" type="line"/>
      <point x="747" y="392" type="line"/>
      <point x="769" y="401"/>
      <point x="788" y="414"/>
      <point x="806" y="429" type="curve"/>
      <point x="805" y="482" type="line"/>
    </contour>
    <contour>
      <point x="363" y="298" type="line"/>
      <point x="314" y="161" type="line"/>
      <point x="302" y="161" type="line"/>
      <point x="202" y="482" type="line"/>
      <point x="0" y="451" type="line"/>
      <point x="165" y="-4" type="line"/>
      <point x="206" y="-12"/>
      <point x="297" y="-11"/>
      <point x="346" y="4" type="curve"/>
      <point x="421" y="176" type="line"/>
      <point x="440" y="273" type="line"/>
    </contour>
    <contour>
      <point x="76" y="100" type="move" name="top"/>
    </contour>
  </outline>
</glyph>
<glyph name="x" format="1">
  <advance width="602"/>
  <unicode hex="0078"/>
  <outline>
    <contour>
      <point x="13" y="426" type="line"/>
      <point x="211" y="296" type="line"/>
      <point x="248" y="482" type="line"/>
      <point x="13" y="482" type="line"/>
    </contour>
    <contour>
      <point x="402" y="482" type="line"/>
      <point x="502" y="408" type="line"/>
      <point x="581" y="437" type="line"/>
      <point x="580" y="482" type="line"/>
    </contour>
    <contour>
      <point x="365" y="0" type="line"/>
      <point x="580" y="0" type="line"/>
      <point x="248" y="482" type="line"/>
      <point x="46" y="445" type="line"/>
    </contour>
    <contour>
      <point x="570" y="434" type="line"/>
      <point x="552" y="482" type="line"/>
      <point x="365" y="482" type="line"/>
      <point x="334" y="314" type="line"/>
      <point x="363" y="218" type="line"/>
    </contour>
    <contour>
      <point x="7" y="38" type="line"/>
      <point x="33" y="0" type="line"/>
      <point x="234" y="0" type="line"/>
      <point x="266" y="174" type="line"/>
      <point x="223" y="259" type="line"/>
    </contour>
    <contour>
      <point x="127" y="0" type="line"/>
      <point x="135" y="88" type="line"/>
      <point x="3" y="44" type="line"/>
      <point x="4" y="0" type="line"/>
    </contour>
    <contour>
      <point x="595" y="0" type="line"/>
      <point x="596" y="49" type="line"/>
      <point x="554" y="80"/>
      <point x="509" y="102"/>
      <point x="465" y="115" type="curve"/>
      <point x="430" y="0" type="line"/>
    </contour>
  </outline>
</glyph>
<glyph name="braceright" format="1">
  <advance width="567"/>
  <unicode hex="007D"/>
  <outline>
    <contour>
      <point x="299" y="-135"/>
      <point x="405" y="-36"/>
      <point x="405" y="34" type="curve" smooth="yes"/>
      <point x="405" y="142" type="line" smooth="yes"/>
      <point x="405" y="223"/>
      <point x="410" y="262"/>
      <point x="504" y="268" type="curve"/>
      <point x="498" y="327" type="line"/>
      <point x="412" y="333"/>
      <point x="405" y="374"/>
      <point x="405" y="443" type="curve" smooth="yes"/>
      <point x="405" y="537" type="line" smooth="yes"/>
      <point x="405" y="616"/>
      <point x="313" y="715"/>
      <point x="88" y="729" type="curve"/>
      <point x="82" y="608" type="line"/>
      <point x="207" y="608" type="line"/>
      <point x="191" y="449" type="line" smooth="yes"/>
      <point x="185" y="397"/>
      <point x="210" y="344"/>
      <point x="249" y="304" type="curve"/>
      <point x="249" y="295" type="line"/>
      <point x="210" y="254"/>
      <point x="185" y="202"/>
      <point x="191" y="149" type="curve" smooth="yes"/>
      <point x="207" y="-12" type="line"/>
      <point x="85" y="-24" type="line"/>
      <point x="95" y="-145" type="line"/>
    </contour>
  </outline>
</glyph>
<glyph name="cent" format="1">
  <advance width="495"/>
  <unicode hex="00A2"/>
  <outline>
    <contour>
      <point x="218" y="469" type="line"/>
      <point x="328" y="469" type="line"/>
      <point x="328" y="597" type="line"/>
      <point x="218" y="597" type="line"/>
    </contour>
    <contour>
      <point x="218" y="-117" type="line"/>
      <point x="328" y="-117" type="line"/>
      <point x="328" y="11" type="line"/>
      <point x="218" y="11" type="line"/>
    </contour>
    <component base="c" yOffset="15" yScale="0.945"/>
  </outline>
</glyph>
<glyph name="sterling" format="1">
  <advance width="617"/>
  <unicode hex="00A3"/>
  <outline>
    <contour>
      <point x="167" y="670"/>
      <point x="67" y="555"/>
      <point x="67" y="449" type="curve" smooth="yes"/>
      <point x="67" y="317"/>
      <point x="221" y="211"/>
      <point x="56" y="0" type="curve"/>
      <point x="173" y="0" type="line"/>
      <point x="414" y="179"/>
      <point x="281" y="365"/>
      <point x="281" y="485" type="curve" smooth="yes"/>
      <point x="281" y="518"/>
      <point x="290" y="546"/>
      <point x="325" y="565" type="curve"/>
      <point x="392" y="552"/>
      <point x="444" y="529"/>
      <point x="502" y="473" type="curve"/>
      <point x="565" y="615" type="line"/>
      <point x="508" y="647"/>
      <point x="422" y="670"/>
      <point x="344" y="670" type="curve" smooth="yes"/>
    </contour>
    <contour>
      <point x="79" y="73"/>
      <point x="46" y="54"/>
      <point x="18" y="32" type="curve"/>
      <point x="24" y="0" type="line"/>
      <point x="118" y="0" type="line"/>
      <point x="117" y="91" type="line"/>
    </contour>
    <contour>
      <point x="259" y="106" type="line"/>
      <point x="139" y="0" type="line"/>
      <point x="584" y="0" type="line"/>
      <point x="567" y="127" type="line"/>
    </contour>
    <contour>
      <point x="441" y="298" type="line"/>
      <point x="435" y="335" type="line"/>
      <point x="280" y="335" type="line"/>
      <point x="243" y="317" type="line"/>
      <point x="55" y="317" type="line"/>
      <point x="12" y="276" type="line"/>
      <point x="18" y="239" type="line"/>
      <point x="224" y="239" type="line"/>
      <point x="262" y="257" type="line"/>
      <point x="398" y="257" type="line"/>
    </contour>
    <contour>
      <point x="566" y="466"/>
      <point x="570" y="569"/>
      <point x="566" y="615" type="curve"/>
      <point x="341" y="617" type="line"/>
      <point x="453" y="415" type="line"/>
      <point x="552" y="415" type="line"/>
    </contour>
    <contour>
      <point x="482" y="249" type="line"/>
      <point x="366" y="8" type="line"/>
      <point x="583" y="0" type="line"/>
      <point x="589" y="48"/>
      <point x="585" y="189"/>
      <point x="573" y="241" type="curve"/>
    </contour>
  </outline>
</glyph>
<glyph name="currency" format="1">
  <advance width="510"/>
  <unicode hex="00A4"/>
  <outline>
    <contour>
      <point x="65" y="244"/>
      <point x="144" y="156"/>
      <point x="255" y="156" type="curve" smooth="yes"/>
      <point x="346" y="156"/>
      <point x="443" y="227"/>
      <point x="443" y="357" type="curve" smooth="yes"/>
      <point x="443" y="487"/>
      <point x="355" y="554"/>
      <point x="257" y="554" type="curve" smooth="yes"/>
      <point x="163" y="554"/>
      <point x="65" y="478"/>
      <point x="65" y="357" type="curve" smooth="yes"/>
    </contour>
    <contour>
      <point x="291" y="260"/>
      <point x="278" y="259"/>
      <point x="270" y="259" type="curve" smooth="yes"/>
      <point x="206" y="259"/>
      <point x="177" y="312"/>
      <point x="177" y="364" type="curve" smooth="yes"/>
      <point x="177" y="397"/>
      <point x="189" y="429"/>
      <point x="208" y="447" type="curve"/>
      <point x="220" y="449"/>
      <point x="229" y="450"/>
      <point x="239" y="450" type="curve" smooth="yes"/>
      <point x="306" y="450"/>
      <point x="331" y="399"/>
      <point x="331" y="348" type="curve" smooth="yes"/>
      <point x="331" y="314"/>
      <point x="319" y="281"/>
      <point x="302" y="263" type="curve"/>
    </contour>
    <contour>
      <point x="132" y="259" type="line"/>
      <point x="50" y="170" type="line"/>
      <point x="104" y="121" type="line"/>
      <point x="181" y="213" type="line"/>
    </contour>
    <contour>
      <point x="330" y="212" type="line"/>
      <point x="412" y="123" type="line"/>
      <point x="464" y="174" type="line"/>
      <point x="382" y="263" type="line"/>
    </contour>
    <contour>
      <point x="177" y="500" type="line"/>
      <point x="99" y="587" type="line"/>
      <point x="44" y="538" type="line"/>
      <point x="125" y="447" type="line"/>
    </contour>
    <contour>
      <point x="380" y="446" type="line"/>
      <point x="466" y="539" type="line"/>
      <point x="410" y="586" type="line"/>
      <point x="333" y="495" type="line"/>
    </contour>
  </outline>
</glyph>
<glyph name="yen" format="1">
  <advance width="685"/>
  <unicode hex="00A5"/>
  <outline>
    <contour>
      <point x="563" y="274" type="line"/>
      <point x="557" y="311" type="line"/>
      <point x="135" y="311" type="line"/>
      <point x="92" y="272" type="line"/>
      <point x="98" y="235" type="line"/>
      <point x="520" y="235" type="line"/>
    </contour>
    <contour>
      <point x="563" y="156" type="line"/>
      <point x="557" y="193" type="line"/>
      <point x="135" y="193" type="line"/>
      <point x="92" y="154" type="line"/>
      <point x="98" y="117" type="line"/>
      <point x="520" y="117" type="line"/>
    </contour>
    <component base="Y" xOffset="-24"/>
  </outline>
</glyph>
<glyph name="section" format="1">
  <advance width="549"/>
  <unicode hex="00A7"/>
  <outline>
    <contour>
      <point x="477" y="535"/>
      <point x="481" y="590"/>
      <point x="477" y="636" type="curve"/>
      <point x="300" y="638" type="line"/>
      <point x="364" y="484" type="line"/>
      <point x="463" y="484" type="line"/>
    </contour>
    <contour>
      <point x="383" y="116" type="line"/>
      <point x="463" y="146"/>
      <point x="508" y="198"/>
      <point x="508" y="265" type="curve" smooth="yes"/>
      <point x="508" y="356"/>
      <point x="425" y="403"/>
      <point x="345" y="443" type="curve" smooth="yes"/>
      <point x="281" y="475"/>
      <point x="239" y="493"/>
      <point x="239" y="532" type="curve" smooth="yes"/>
      <point x="239" y="557"/>
      <point x="258" y="580"/>
      <point x="286" y="588" type="curve"/>
      <point x="340" y="585"/>
      <point x="400" y="563"/>
      <point x="436" y="535" type="curve"/>
      <point x="477" y="636" type="line"/>
      <point x="426" y="660"/>
      <point x="358" y="671"/>
      <point x="306" y="671" type="curve" smooth="yes"/>
      <point x="172" y="671"/>
      <point x="76" y="602"/>
      <point x="76" y="502" type="curve" smooth="yes"/>
      <point x="76" y="431"/>
      <point x="126" y="379"/>
      <point x="224" y="331" type="curve" smooth="yes"/>
      <point x="283" y="302"/>
      <point x="365" y="274"/>
      <point x="365" y="217" type="curve" smooth="yes"/>
      <point x="365" y="197"/>
      <point x="354" y="179"/>
      <point x="325" y="159" type="curve"/>
    </contour>
    <contour>
      <point x="241" y="408" type="line"/>
      <point x="130" y="380"/>
      <point x="67" y="321"/>
      <point x="67" y="243" type="curve" smooth="yes"/>
      <point x="67" y="157"/>
      <point x="145" y="113"/>
      <point x="240" y="65" type="curve" smooth="yes"/>
      <point x="292" y="40"/>
      <point x="337" y="24"/>
      <point x="337" y="-11" type="curve" smooth="yes"/>
      <point x="337" y="-28"/>
      <point x="325" y="-46"/>
      <point x="306" y="-56" type="curve"/>
      <point x="249" y="-28"/>
      <point x="196" y="0"/>
      <point x="145" y="48" type="curve"/>
      <point x="66" y="-89" type="line"/>
      <point x="138" y="-132"/>
      <point x="219" y="-150"/>
      <point x="280" y="-150" type="curve" smooth="yes"/>
      <point x="397" y="-150"/>
      <point x="482" y="-83"/>
      <point x="482" y="9" type="curve" smooth="yes"/>
      <point x="482" y="84"/>
      <point x="426" y="138"/>
      <point x="357" y="171" type="curve" smooth="yes"/>
      <point x="294" y="201"/>
      <point x="209" y="221"/>
      <point x="209" y="277" type="curve" smooth="yes"/>
      <point x="209" y="307"/>
      <point x="233" y="329"/>
      <point x="267" y="350" type="curve"/>
    </contour>
  </outline>
</glyph>
<glyph name="copyright" format="1">
  <advance width="769"/>
  <unicode hex="00A9"/>
  <outline>
    <contour>
      <point x="584" y="-26"/>
      <point x="745" y="129"/>
      <point x="745" y="330" type="curve" smooth="yes"/>
      <point x="745" y="533"/>
      <point x="580" y="692"/>
      <point x="381" y="692" type="curve" smooth="yes"/>
      <point x="182" y="692"/>
      <point x="24" y="533"/>
      <point x="24" y="332" type="curve" smooth="yes"/>
      <point x="24" y="129"/>
      <point x="185" y="-26"/>
      <point x="385" y="-26" type="curve" smooth="yes"/>
    </contour>
    <contour>
      <point x="226" y="57"/>
      <point x="109" y="175"/>
      <point x="109" y="329" type="curve" smooth="yes"/>
      <point x="109" y="487"/>
      <point x="233" y="609"/>
      <point x="385" y="609" type="curve" smooth="yes"/>
      <point x="537" y="609"/>
      <point x="661" y="486"/>
      <point x="661" y="332" type="curve" smooth="yes"/>
      <point x="661" y="181"/>
      <point x="542" y="57"/>
      <point x="382" y="57" type="curve" smooth="yes"/>
    </contour>
    <contour>
      <point x="538" y="255" type="line"/>
      <point x="513" y="247"/>
      <point x="495" y="242"/>
      <point x="468" y="242" type="curve" smooth="yes"/>
      <point x="384" y="242"/>
      <point x="339" y="289"/>
      <point x="339" y="351" type="curve" smooth="yes"/>
      <point x="339" y="383"/>
      <point x="351" y="426"/>
      <point x="376" y="453" type="curve"/>
      <point x="411" y="427"/>
      <point x="426" y="395"/>
      <point x="441" y="346" type="curve"/>
      <point x="568" y="407" type="line"/>
      <point x="533" y="501"/>
      <point x="469" y="529"/>
      <point x="398" y="529" type="curve" smooth="yes"/>
      <point x="283" y="529"/>
      <point x="190" y="454"/>
      <point x="190" y="330" type="curve" smooth="yes"/>
      <point x="190" y="189"/>
      <point x="310" y="122"/>
      <point x="431" y="137" type="curve"/>
      <point x="556" y="208" type="line"/>
    </contour>
  </outline>
</glyph>
<glyph name="ordfeminine" format="1">
  <advance width="453"/>
  <unicode hex="00AA"/>
  <outline>
    <contour>
      <point x="50" y="440"/>
      <point x="34" y="408"/>
      <point x="34" y="380" type="curve" smooth="yes"/>
      <point x="34" y="331"/>
      <point x="80" y="286"/>
      <point x="165" y="300" type="curve"/>
      <point x="249" y="359" type="line"/>
      <point x="236" y="380" type="line"/>
      <point x="220" y="376"/>
      <point x="190" y="370"/>
      <point x="171" y="369" type="curve"/>
      <point x="164" y="374"/>
      <point x="160" y="382"/>
      <point x="160" y="391" type="curve" smooth="yes"/>
      <point x="160" y="411"/>
      <point x="183" y="421"/>
      <point x="209" y="419" type="curve" smooth="yes"/>
      <point x="240" y="416" type="line"/>
      <point x="239" y="461" type="line"/>
      <point x="88" y="460" type="line"/>
    </contour>
    <contour>
      <point x="52" y="563"/>
      <point x="55" y="520"/>
      <point x="61" y="487" type="curve"/>
      <point x="144" y="488" type="line"/>
      <point x="165" y="564" type="line"/>
      <point x="172" y="565"/>
      <point x="183" y="567"/>
      <point x="193" y="567" type="curve"/>
      <point x="207" y="561"/>
      <point x="224" y="546"/>
      <point x="224" y="506" type="curve" smooth="yes"/>
      <point x="224" y="353" type="line"/>
      <point x="231" y="353" type="line"/>
      <point x="250" y="315"/>
      <point x="281" y="297"/>
      <point x="314" y="296" type="curve"/>
      <point x="413" y="354" type="line"/>
      <point x="412" y="383" type="line"/>
      <point x="396" y="383"/>
      <point x="387" y="382"/>
      <point x="376" y="382" type="curve" smooth="yes"/>
      <point x="365" y="382"/>
      <point x="360" y="391"/>
      <point x="360" y="400" type="curve"/>
      <point x="360" y="513" type="line" smooth="yes"/>
      <point x="360" y="548"/>
      <point x="359" y="566"/>
      <point x="353" y="577" type="curve" smooth="yes"/>
      <point x="331" y="608"/>
      <point x="300" y="625"/>
      <point x="256" y="628" type="curve" smooth="yes"/>
      <point x="193" y="628"/>
      <point x="118" y="617"/>
      <point x="55" y="596" type="curve"/>
    </contour>
    <contour>
      <point x="31" y="255" type="line"/>
      <point x="31" y="188" type="line"/>
      <point x="423" y="188" type="line"/>
      <point x="423" y="255" type="line"/>
    </contour>
  </outline>
</glyph>
<glyph name="registered" format="1">
  <advance width="575"/>
  <unicode hex="00AE"/>
  <outline>
    <contour>
      <point x="563" y="663"/>
      <point x="447" y="778"/>
      <point x="290" y="778" type="curve" smooth="yes"/>
      <point x="131" y="778"/>
      <point x="11" y="662"/>
      <point x="11" y="503" type="curve" smooth="yes"/>
      <point x="11" y="348"/>
      <point x="124" y="229"/>
      <point x="287" y="229" type="curve" smooth="yes"/>
      <point x="452" y="229"/>
      <point x="563" y="352"/>
      <point x="563" y="505" type="curve" smooth="yes"/>
    </contour>
    <contour>
      <point x="497" y="379"/>
      <point x="409" y="291"/>
      <point x="282" y="291" type="curve" smooth="yes"/>
      <point x="163" y="291"/>
      <point x="77" y="370"/>
      <point x="77" y="498" type="curve" smooth="yes"/>
      <point x="77" y="628"/>
      <point x="167" y="717"/>
      <point x="287" y="717" type="curve" smooth="yes"/>
      <point x="408" y="717"/>
      <point x="497" y="629"/>
      <point x="497" y="503" type="curve" smooth="yes"/>
    </contour>
    <contour>
      <point x="146" y="640" type="line"/>
      <point x="146" y="614" type="line"/>
      <point x="200" y="606" type="line"/>
      <point x="201" y="640" type="line"/>
    </contour>
    <contour>
      <point x="178" y="379" type="line"/>
      <point x="261" y="379" type="line"/>
      <point x="261" y="640" type="line"/>
      <point x="178" y="640" type="line"/>
    </contour>
    <contour>
      <point x="315" y="592"/>
      <point x="324" y="575"/>
      <point x="324" y="555" type="curve" smooth="yes"/>
      <point x="324" y="530"/>
      <point x="311" y="514"/>
      <point x="280" y="514" type="curve" smooth="yes"/>
      <point x="271" y="514"/>
      <point x="259" y="516"/>
      <point x="248" y="518" type="curve"/>
      <point x="248" y="477" type="line"/>
      <point x="311" y="477" type="line" smooth="yes"/>
      <point x="377" y="477"/>
      <point x="414" y="516"/>
      <point x="414" y="558" type="curve" smooth="yes"/>
      <point x="414" y="604"/>
      <point x="370" y="640"/>
      <point x="297" y="640" type="curve"/>
      <point x="210" y="640" type="line"/>
      <point x="255" y="595" type="line"/>
      <point x="300" y="602" type="line"/>
    </contour>
    <contour>
      <point x="174" y="412"/>
      <point x="154" y="403"/>
      <point x="142" y="394" type="curve"/>
      <point x="145" y="379" type="line"/>
      <point x="184" y="379" type="line"/>
      <point x="186" y="418" type="line"/>
    </contour>
    <contour>
      <point x="235" y="379" type="line"/>
      <point x="292" y="379" type="line"/>
      <point x="293" y="403" type="line"/>
      <point x="236" y="412" type="line"/>
    </contour>
    <contour>
      <point x="269" y="495" type="line"/>
      <point x="330" y="379" type="line"/>
      <point x="425" y="379" type="line"/>
      <point x="351" y="499" type="line"/>
    </contour>
    <contour>
      <point x="377" y="379" type="line"/>
      <point x="435" y="379" type="line"/>
      <point x="435" y="403" type="line"/>
      <point x="378" y="412" type="line"/>
    </contour>
  </outline>
</glyph>
<glyph name="ordmasculine" format="1">
  <advance width="442"/>
  <unicode hex="00BA"/>
  <outline>
    <contour>
      <point x="28" y="349"/>
      <point x="114" y="284"/>
      <point x="208" y="284" type="curve" smooth="yes"/>
      <point x="301" y="284"/>
      <point x="386" y="346"/>
      <point x="386" y="456" type="curve" smooth="yes"/>
      <point x="386" y="565"/>
      <point x="302" y="631"/>
      <point x="211" y="631" type="curve" smooth="yes"/>
      <point x="124" y="631"/>
      <point x="28" y="570"/>
      <point x="28" y="457" type="curve" smooth="yes"/>
    </contour>
    <contour>
      <point x="225" y="363"/>
      <point x="222" y="362"/>
      <point x="216" y="362" type="curve" smooth="yes"/>
      <point x="187" y="362"/>
      <point x="169" y="387"/>
      <point x="169" y="455" type="curve" smooth="yes"/>
      <point x="169" y="499"/>
      <point x="177" y="533"/>
      <point x="187" y="539" type="curve"/>
      <point x="192" y="540"/>
      <point x="196" y="542"/>
      <point x="202" y="542" type="curve" smooth="yes"/>
      <point x="231" y="542"/>
      <point x="246" y="509"/>
      <point x="246" y="441" type="curve" smooth="yes"/>
      <point x="246" y="394"/>
      <point x="237" y="367"/>
      <point x="229" y="363" type="curve"/>
    </contour>
    <contour>
      <point x="16" y="255" type="line"/>
      <point x="16" y="188" type="line"/>
      <point x="400" y="188" type="line"/>
      <point x="400" y="255" type="line"/>
    </contour>
  </outline>
</glyph>
<glyph name="guillemetright" format="1">
  <advance width="657"/>
  <unicode hex="00BB"/>
  <outline>
    <contour>
      <point x="605" y="299" type="line"/>
      <point x="429" y="480" type="line"/>
      <point x="337" y="415" type="line"/>
      <point x="424" y="253" type="line"/>
      <point x="330" y="99" type="line"/>
      <point x="429" y="29" type="line"/>
      <point x="605" y="207" type="line"/>
    </contour>
    <contour>
      <point x="327" y="299" type="line"/>
      <point x="151" y="480" type="line"/>
      <point x="59" y="415" type="line"/>
      <point x="146" y="253" type="line"/>
      <point x="52" y="99" type="line"/>
      <point x="151" y="29" type="line"/>
      <point x="327" y="207" type="line"/>
    </contour>
  </outline>
</glyph>
<glyph name="multiply" format="1">
  <advance width="553"/>
  <unicode hex="00D7"/>
  <outline>
    <contour>
      <point x="279" y="319" type="line"/>
      <point x="137" y="463" type="line"/>
      <point x="55" y="382" type="line"/>
      <point x="197" y="238" type="line"/>
      <point x="57" y="96" type="line"/>
      <point x="136" y="18" type="line"/>
      <point x="275" y="160" type="line"/>
      <point x="416" y="17" type="line"/>
      <point x="498" y="99" type="line"/>
      <point x="356" y="241" type="line"/>
      <point x="497" y="383" type="line"/>
      <point x="417" y="461" type="line"/>
    </contour>
  </outline>
</glyph>
<glyph name="Oslash" format="1">
  <advance width="713"/>
  <unicode hex="00D8"/>
  <outline>
    <contour>
      <point x="175" y="-93" type="line"/>
      <point x="623" y="706" type="line"/>
      <point x="544" y="751" type="line"/>
      <point x="96" y="-50" type="line"/>
    </contour>
    <component base="O"/>
  </outline>
</glyph>
<glyph name="germandbls" format="1">
  <advance width="681"/>
  <unicode hex="00DF"/>
  <outline>
    <contour>
      <point x="260" y="687"/>
      <point x="82" y="645"/>
      <point x="82" y="477" type="curve" smooth="yes"/>
      <point x="82" y="0" type="line"/>
      <point x="283" y="0" type="line"/>
      <point x="283" y="437" type="line"/>
      <point x="279" y="561" type="line"/>
      <point x="300" y="573"/>
      <point x="334" y="576"/>
      <point x="354" y="573" type="curve"/>
      <point x="411" y="511"/>
      <point x="375" y="411"/>
      <point x="324" y="343" type="curve"/>
      <point x="340" y="219"/>
      <point x="478" y="212"/>
      <point x="478" y="139" type="curve" smooth="yes"/>
      <point x="478" y="126"/>
      <point x="473" y="115"/>
      <point x="462" y="102" type="curve"/>
      <point x="426" y="112"/>
      <point x="388" y="138"/>
      <point x="359" y="167" type="curve"/>
      <point x="317" y="4" type="line"/>
      <point x="364" y="-10"/>
      <point x="420" y="-19"/>
      <point x="465" y="-19" type="curve" smooth="yes"/>
      <point x="580" y="-19"/>
      <point x="668" y="40"/>
      <point x="668" y="142" type="curve" smooth="yes"/>
      <point x="668" y="277"/>
      <point x="512" y="315"/>
      <point x="498" y="381" type="curve"/>
      <point x="547" y="422"/>
      <point x="569" y="462"/>
      <point x="569" y="506" type="curve" smooth="yes"/>
      <point x="569" y="600"/>
      <point x="471" y="687"/>
      <point x="335" y="687" type="curve" smooth="yes"/>
    </contour>
    <contour>
      <point x="217" y="343" type="line"/>
      <point x="220" y="418" type="line"/>
      <point x="138" y="491" type="line"/>
      <point x="83" y="469"/>
      <point x="35" y="439"/>
      <point x="-5" y="398" type="curve"/>
      <point x="-4" y="342" type="line"/>
    </contour>
    <contour>
      <point x="132" y="0" type="line"/>
      <point x="140" y="88" type="line"/>
      <point x="98" y="79"/>
      <point x="50" y="61"/>
      <point x="8" y="35" type="curve"/>
      <point x="9" y="0" type="line"/>
    </contour>
  </outline>
</glyph>
<glyph name="ae" format="1">
  <advance width="809"/>
  <unicode hex="00E6"/>
  <outline>
    <contour>
      <point x="52" y="396"/>
      <point x="54" y="343"/>
      <point x="65" y="293" type="curve"/>
      <point x="187" y="287" type="line"/>
      <point x="216" y="399" type="line"/>
      <point x="225" y="405"/>
      <point x="240" y="408"/>
      <point x="253" y="409" type="curve"/>
      <point x="274" y="398"/>
      <point x="297" y="375"/>
      <point x="298" y="312" type="curve" smooth="yes"/>
      <point x="299" y="201" type="line"/>
      <point x="426" y="151" type="line"/>
      <point x="463" y="415" type="line"/>
      <point x="433" y="459"/>
      <point x="395" y="497"/>
      <point x="351" y="500" type="curve" smooth="yes"/>
      <point x="261" y="500"/>
      <point x="154" y="480"/>
      <point x="60" y="447" type="curve"/>
    </contour>
    <contour>
      <point x="49" y="209"/>
      <point x="24" y="159"/>
      <point x="24" y="117" type="curve" smooth="yes"/>
      <point x="24" y="46"/>
      <point x="96" y="-32"/>
      <point x="219" y="-12" type="curve"/>
      <point x="369" y="73" type="line"/>
      <point x="353" y="121" type="line"/>
      <point x="328" y="114"/>
      <point x="266" y="94"/>
      <point x="235" y="90" type="curve"/>
      <point x="225" y="101"/>
      <point x="220" y="119"/>
      <point x="220" y="132" type="curve" smooth="yes"/>
      <point x="220" y="167"/>
      <point x="258" y="178"/>
      <point x="299" y="178" type="curve"/>
      <point x="331" y="178" type="line"/>
      <point x="331" y="244" type="line"/>
      <point x="109" y="239" type="line"/>
    </contour>
    <contour>
      <point x="419" y="220" type="line"/>
      <point x="729" y="219" type="line"/>
      <point x="788" y="278" type="line"/>
      <point x="680" y="318" type="line"/>
      <point x="403" y="299" type="line"/>
    </contour>
    <contour>
      <point x="754" y="147" type="line"/>
      <point x="706" y="121"/>
      <point x="670" y="108"/>
      <point x="626" y="108" type="curve" smooth="yes"/>
      <point x="544" y="108"/>
      <point x="484" y="155"/>
      <point x="484" y="258" type="curve" smooth="yes"/>
      <point x="484" y="316"/>
      <point x="503" y="385"/>
      <point x="545" y="413" type="curve"/>
      <point x="596" y="407"/>
      <point x="626" y="331"/>
      <point x="616" y="271" type="curve"/>
      <point x="796" y="278" type="line"/>
      <point x="797" y="448"/>
      <point x="663" y="504"/>
      <point x="565" y="504" type="curve" smooth="yes"/>
      <point x="510" y="504"/>
      <point x="455" y="486"/>
      <point x="410" y="453" type="curve"/>
      <point x="369" y="239" type="line"/>
      <point x="301" y="236" type="line"/>
      <point x="301" y="55"/>
      <point x="460" y="-42"/>
      <point x="624" y="-11" type="curve"/>
      <point x="782" y="85" type="line"/>
    </contour>
    <contour>
      <point x="141" y="10" type="move" name="ogonek"/>
    </contour>
    <contour>
      <point x="105" y="0" type="move" name="bottom"/>
    </contour>
    <contour>
      <point x="105" y="94" type="move" name="top"/>
    </contour>
  </outline>
</glyph>
<glyph name="divide" format="1">
  <advance width="594"/>
  <unicode hex="00F7"/>
  <outline>
    <contour>
      <point x="52" y="320" type="line"/>
      <point x="52" y="210" type="line"/>
      <point x="542" y="210" type="line"/>
      <point x="542" y="320" type="line"/>
    </contour>
    <contour>
      <point x="379" y="116"/>
      <point x="344" y="155"/>
      <point x="292" y="178" type="curve"/>
      <point x="253" y="156"/>
      <point x="213" y="120"/>
      <point x="205" y="63" type="curve"/>
      <point x="224" y="28"/>
      <point x="256" y="-4"/>
      <point x="308" y="-20" type="curve"/>
      <point x="354" y="3"/>
      <point x="379" y="42"/>
      <point x="391" y="78" type="curve"/>
    </contour>
    <contour>
      <point x="379" y="485"/>
      <point x="344" y="524"/>
      <point x="292" y="547" type="curve"/>
      <point x="253" y="525"/>
      <point x="213" y="488"/>
      <point x="205" y="432" type="curve"/>
      <point x="224" y="397"/>
      <point x="256" y="365"/>
      <point x="308" y="349" type="curve"/>
      <point x="354" y="372"/>
      <point x="379" y="410"/>
      <point x="391" y="447" type="curve"/>
    </contour>
  </outline>
</glyph>
<glyph name="Dcroat" format="1">
  <advance width="784"/>
  <unicode hex="0110"/>
  <outline>
    <contour>
      <point x="443" y="305" type="line"/>
      <point x="437" y="342" type="line"/>
      <point x="55" y="342" type="line"/>
      <point x="12" y="299" type="line"/>
      <point x="18" y="262" type="line"/>
      <point x="400" y="262" type="line"/>
    </contour>
    <component base="D"/>
  </outline>
</glyph>
<glyph name="dcroat" format="1">
  <advance width="626"/>
  <unicode hex="0111"/>
  <outline>
    <contour>
      <point x="617" y="566" type="line"/>
      <point x="611" y="603" type="line"/>
      <point x="259" y="603" type="line"/>
      <point x="216" y="563" type="line"/>
      <point x="222" y="526" type="line"/>
      <point x="574" y="526" type="line"/>
    </contour>
    <component base="d"/>
  </outline>
</glyph>
<glyph name="eogonek" format="1">
  <advance width="530"/>
  <unicode hex="0119"/>
  <outline>
    <contour>
      <point x="437" y="86" type="line"/>
      <point x="265" y="40"/>
      <point x="179" y="-42"/>
      <point x="179" y="-120" type="curve" smooth="yes"/>
      <point x="179" y="-188"/>
      <point x="244" y="-248"/>
      <point x="339" y="-236" type="curve"/>
      <point x="469" y="-165" type="line"/>
      <point x="443" y="-111" type="line"/>
      <point x="368" y="-155"/>
      <point x="313" y="-137"/>
      <point x="313" y="-84" type="curve" smooth="yes"/>
      <point x="313" y="-31"/>
      <point x="370" y="10"/>
      <point x="449" y="60" type="curve" smooth="yes"/>
      <point x="489" y="85" type="line"/>
    </contour>
    <component base="e"/>
  </outline>
</glyph>
<glyph name="Imacron" format="1">
  <advance width="441"/>
  <unicode hex="012A"/>
  <outline>
    <contour>
      <point x="116" y="846"/>
      <point x="73" y="841"/>
      <point x="34" y="821" type="curve"/>
      <point x="40" y="737" type="line"/>
      <point x="368" y="737" type="line"/>
      <point x="415" y="787" type="line"/>
      <point x="410" y="846" type="line"/>
      <point x="147" y="846" type="line"/>
    </contour>
    <component base="I" xOffset="3"/>
  </outline>
</glyph>
<glyph name="lslash" format="1">
  <advance width="456"/>
  <unicode hex="0142"/>
  <outline>
    <contour>
      <point x="3" y="327" type="line"/>
      <point x="39" y="255" type="line"/>
      <point x="394" y="429" type="line"/>
      <point x="394" y="490" type="line"/>
      <point x="367" y="506" type="line"/>
    </contour>
    <component base="l" xOffset="24"/>
  </outline>
</glyph>
<glyph name="OE" format="1">
  <advance width="1005"/>
  <unicode hex="0152"/>
  <outline>
    <contour>
      <point x="513" y="150" type="line"/>
      <point x="496" y="112"/>
      <point x="439" y="87"/>
      <point x="391" y="87" type="curve" smooth="yes"/>
      <point x="284" y="87"/>
      <point x="235" y="209"/>
      <point x="235" y="340" type="curve" smooth="yes"/>
      <point x="235" y="436"/>
      <point x="261" y="526"/>
      <point x="307" y="566" type="curve"/>
      <point x="328" y="573"/>
      <point x="349" y="575"/>
      <point x="371" y="575" type="curve" smooth="yes"/>
      <point x="415" y="575"/>
      <point x="472" y="564"/>
      <point x="495" y="520" type="curve"/>
      <point x="551" y="645" type="line"/>
      <point x="502" y="671"/>
      <point x="447" y="685"/>
      <point x="386" y="685" type="curve" smooth="yes"/>
      <point x="198" y="685"/>
      <point x="28" y="554"/>
      <point x="28" y="330" type="curve" smooth="yes"/>
      <point x="28" y="91"/>
      <point x="214" y="-18"/>
      <point x="385" y="-18" type="curve" smooth="yes"/>
      <point x="446" y="-18"/>
      <point x="509" y="-6"/>
      <point x="562" y="25" type="curve"/>
    </contour>
    <contour>
      <point x="666" y="0" type="line"/>
      <point x="666" y="666" type="line"/>
      <point x="456" y="666" type="line"/>
      <point x="456" y="0" type="line"/>
    </contour>
    <contour>
      <point x="952" y="547" type="line"/>
      <point x="980" y="666" type="line"/>
      <point x="548" y="666" type="line"/>
      <point x="623" y="568" type="line"/>
    </contour>
    <contour>
      <point x="630" y="106" type="line"/>
      <point x="554" y="0" type="line"/>
      <point x="972" y="0" type="line"/>
      <point x="959" y="127" type="line"/>
    </contour>
    <contour>
      <point x="793" y="8" type="line"/>
      <point x="972" y="0" type="line"/>
      <point x="980" y="64"/>
      <point x="986" y="159"/>
      <point x="984" y="218" type="curve"/>
      <point x="869" y="227" type="line"/>
    </contour>
    <contour>
      <point x="959" y="451" type="line"/>
      <point x="974" y="520"/>
      <point x="982" y="620"/>
      <point x="980" y="666" type="curve"/>
      <point x="805" y="657" type="line"/>
      <point x="844" y="451" type="line"/>
    </contour>
    <contour>
      <point x="628" y="373" type="line"/>
      <point x="628" y="288" type="line"/>
      <point x="868" y="278" type="line"/>
      <point x="868" y="393" type="line"/>
    </contour>
  </outline>
</glyph>
<glyph name="gravecomb" format="1">
  <advance width="0"/>
  <unicode hex="0300"/>
  <outline>
    <contour>
      <point x="104" y="611" type="line"/>
      <point x="-53" y="808" type="line"/>
      <point x="-173" y="702" type="line"/>
      <point x="-113" y="654"/>
      <point x="-50" y="589"/>
      <point x="6" y="535" type="curve"/>
    </contour>
    <contour>
      <point x="0" y="474" type="move" name="_top"/>
    </contour>
  </outline>
</glyph>
<glyph name="circumflexcomb" format="1">
  <advance width="0"/>
  <unicode hex="0302"/>
  <outline>
    <contour>
      <point x="-123" y="527" type="line"/>
      <point x="1" y="642" type="line"/>
      <point x="142" y="532" type="line"/>
      <point x="202" y="589" type="line"/>
      <point x="69" y="751" type="line"/>
      <point x="-58" y="751" type="line"/>
      <point x="-194" y="581" type="line"/>
    </contour>
    <contour>
      <point x="0" y="474" type="move" name="_top"/>
    </contour>
  </outline>
</glyph>
<glyph name="dotaccentcomb" format="1">
  <advance width="0"/>
  <unicode hex="0307"/>
  <outline>
    <contour>
      <point x="91" y="700"/>
      <point x="47" y="739"/>
      <point x="-2" y="760" type="curve"/>
      <point x="-50" y="733"/>
      <point x="-87" y="694"/>
      <point x="-95" y="637" type="curve"/>
      <point x="-71" y="593"/>
      <point x="-36" y="565"/>
      <point x="15" y="548" type="curve"/>
      <point x="60" y="572"/>
      <point x="89" y="607"/>
      <point x="104" y="654" type="curve"/>
    </contour>
    <contour>
      <point x="0" y="474" type="move" name="_top"/>
    </contour>
  </outline>
</glyph>
<glyph name="dieresiscomb" format="1">
  <advance width="0"/>
  <unicode hex="0308"/>
  <outline>
    <contour>
      <point x="-42" y="701"/>
      <point x="-86" y="739"/>
      <point x="-135" y="760" type="curve"/>
      <point x="-183" y="733"/>
      <point x="-219" y="694"/>
      <point x="-228" y="637" type="curve"/>
      <point x="-204" y="594"/>
      <point x="-169" y="565"/>
      <point x="-118" y="548" type="curve"/>
      <point x="-73" y="572"/>
      <point x="-44" y="607"/>
      <point x="-28" y="654" type="curve"/>
    </contour>
    <contour>
      <point x="215" y="701"/>
      <point x="171" y="739"/>
      <point x="122" y="760" type="curve"/>
      <point x="74" y="733"/>
      <point x="38" y="694"/>
      <point x="29" y="637" type="curve"/>
      <point x="53" y="594"/>
      <point x="88" y="565"/>
      <point x="139" y="548" type="curve"/>
      <point x="184" y="572"/>
      <point x="213" y="607"/>
      <point x="229" y="654" type="curve"/>
    </contour>
    <contour>
      <point x="0" y="474" type="move" name="_top"/>
    </contour>
  </outline>
</glyph>
<glyph name="hungarumlautcomb" format="1">
  <advance width="0"/>
  <unicode hex="030B"/>
  <outline>
    <contour>
      <point x="-109" y="535" type="line"/>
      <point x="-56" y="586"/>
      <point x="4" y="648"/>
      <point x="61" y="696" type="curve"/>
      <point x="-49" y="784" type="line"/>
      <point x="-195" y="599" type="line"/>
    </contour>
    <contour>
      <point x="111" y="535" type="line"/>
      <point x="164" y="586"/>
      <point x="224" y="648"/>
      <point x="281" y="696" type="curve"/>
      <point x="171" y="784" type="line"/>
      <point x="25" y="599" type="line"/>
    </contour>
    <contour>
      <point x="0" y="474" type="move" name="_top"/>
    </contour>
  </outline>
</glyph>
<glyph name="dotbelowcomb" format="1">
  <advance width="0"/>
  <unicode hex="0323"/>
  <outline>
    <contour>
      <point x="91" y="-158"/>
      <point x="47" y="-119"/>
      <point x="-2" y="-97" type="curve"/>
      <point x="-50" y="-124"/>
      <point x="-87" y="-164"/>
      <point x="-95" y="-221" type="curve"/>
      <point x="-71" y="-264"/>
      <point x="-36" y="-292"/>
      <point x="15" y="-310" type="curve"/>
      <point x="60" y="-286"/>
      <point x="89" y="-250"/>
      <point x="104" y="-204" type="curve"/>
    </contour>
    <contour>
      <point x="0" y="0" type="move" name="_bottom"/>
    </contour>
  </outline>
</glyph>
<glyph name="commaaccentcomb" format="1">
  <advance width="0"/>
  <unicode hex="0326"/>
  <outline>
    <contour>
      <point x="-67" y="-156" type="line"/>
      <point x="-28" y="-184"/>
      <point x="-34" y="-240"/>
      <point x="-72" y="-290" type="curve"/>
      <point x="-16" y="-331" type="line"/>
      <point x="61" y="-290"/>
      <point x="169" y="-126"/>
      <point x="39" y="-69" type="curve"/>
      <point x="-69" y="-115" type="line"/>
    </contour>
    <contour>
      <point x="0" y="0" type="move" name="_bottom"/>
    </contour>
  </outline>
</glyph>
<glyph name="cedillacomb" format="1">
  <advance width="0"/>
  <unicode hex="0327"/>
  <outline>
    <contour>
      <point x="29" y="6" type="line"/>
      <point x="-44" y="6" type="line"/>
      <point x="-107" y="-71" type="line"/>
      <point x="-80" y="-118" type="line"/>
      <point x="18" y="-109"/>
      <point x="15" y="-198"/>
      <point x="-103" y="-239" type="curve"/>
      <point x="-82" y="-273" type="line"/>
      <point x="54" y="-277"/>
      <point x="128" y="-206"/>
      <point x="130" y="-142" type="curve" smooth="yes"/>
      <point x="132" y="-97"/>
      <point x="73" y="-56"/>
      <point x="-5" y="-56" type="curve"/>
    </contour>
    <contour>
      <point x="0" y="0" type="move" name="_bottom"/>
    </contour>
  </outline>
</glyph>
<glyph name="pi" format="1">
  <advance width="817"/>
  <unicode hex="03C0"/>
  <outline>
    <contour>
      <point x="127" y="463"/>
      <point x="55" y="405"/>
      <point x="30" y="372" type="curve"/>
      <point x="68" y="310" type="line"/>
      <point x="169" y="378" type="line"/>
      <point x="756" y="341" type="line"/>
      <point x="795" y="370" type="line"/>
      <point x="791" y="474" type="line"/>
      <point x="167" y="474" type="line"/>
    </contour>
    <contour>
      <point x="696" y="0" type="line"/>
      <point x="654" y="442" type="line"/>
      <point x="484" y="439" type="line"/>
      <point x="488" y="34" type="line"/>
      <point x="546" y="-1" type="line"/>
    </contour>
    <contour>
      <point x="114" y="-8"/>
      <point x="185" y="-19"/>
      <point x="233" y="-19" type="curve" smooth="yes"/>
      <point x="385" y="-19"/>
      <point x="410" y="89"/>
      <point x="414" y="231" type="curve" smooth="yes"/>
      <point x="420" y="448" type="line"/>
      <point x="226" y="450" type="line"/>
      <point x="216" y="192" type="line" smooth="yes"/>
      <point x="214" y="140"/>
      <point x="211" y="88"/>
      <point x="198" y="70" type="curve"/>
      <point x="163" y="99"/>
      <point x="128" y="131"/>
      <point x="98" y="162" type="curve"/>
      <point x="41" y="20" type="line"/>
    </contour>
  </outline>
</glyph>
<glyph name="uni0904" format="1">
  <advance width="898"/>
  <unicode hex="0904"/>
  <outline>
    <component base="uni0905"/>
    <component base="uni0946" xOffset="882"/>
    <contour>
      <point x="888" y="670" type="move" name="bindu"/>
    </contour>
  </outline>
</glyph>
<glyph name="dvAa" format="1">
  <advance width="1214"/>
  <unicode hex="0906"/>
  <outline>
    <component base="dvA"/>
    <component base="dvMatraAa" xOffset="898"/>
    <contour>
      <point x="885" y="670" type="move" name="bindu"/>
    </contour>
    <contour>
      <point x="875" y="670" type="move" name="candrabindu"/>
    </contour>
  </outline>
</glyph>
<glyph name="uni0906" format="1">
  <advance width="1214"/>
  <unicode hex="0906"/>
  <outline>
    <component base="uni0905"/>
    <component base="uni093E" xOffset="898"/>
    <contour>
      <point x="885" y="670" type="move" name="bindu"/>
    </contour>
    <contour>
      <point x="875" y="670" type="move" name="candrabindu"/>
    </contour>
  </outline>
</glyph>
<glyph name="uni090E" format="1">
  <advance width="620"/>
  <unicode hex="090E"/>
  <outline>
    <component base="uni090F"/>
    <component base="uni0946" xOffset="620"/>
    <contour>
      <point x="620" y="670" type="move" name="bindu"/>
    </contour>
  </outline>
</glyph>
<glyph name="uni0910" format="1">
  <advance width="620"/>
  <unicode hex="0910"/>
  <outline>
    <component base="uni090F"/>
    <component base="uni0947" xOffset="623"/>
    <contour>
      <point x="570" y="670" type="move" name="bindu"/>
    </contour>
  </outline>
</glyph>
<glyph name="dvShortO" format="1">
  <advance width="1214"/>
  <unicode hex="0912"/>
  <outline>
    <component base="dvA"/>
    <component base="dvMatraShortO" xOffset="898"/>
    <contour>
      <point x="1204" y="670" type="move" name="bindu"/>
    </contour>
    <contour>
      <point x="1028" y="465" type="move" name="top"/>
    </contour>
  </outline>
</glyph>
<glyph name="uni0912" format="1">
  <advance width="1214"/>
  <unicode hex="0912"/>
  <outline>
    <component base="uni0905"/>
    <component base="uni094A" xOffset="898"/>
    <contour>
      <point x="1204" y="670" type="move" name="bindu"/>
    </contour>
    <contour>
      <point x="1028" y="465" type="move" name="top"/>
    </contour>
  </outline>
</glyph>
<glyph name="uni0913" format="1">
  <advance width="1214"/>
  <unicode hex="0913"/>
  <outline>
    <component base="uni0905"/>
    <component base="uni094B" xOffset="898"/>
    <contour>
      <point x="1152" y="670" type="move" name="bindu"/>
    </contour>
  </outline>
</glyph>
<glyph name="dvAu" format="1">
  <advance width="1214"/>
  <unicode hex="0914"/>
  <outline>
    <component base="dvA"/>
    <component base="dvMatraAu" xOffset="898"/>
    <contour>
      <point x="1204" y="670" type="move" name="bindu"/>
    </contour>
  </outline>
</glyph>
<glyph name="dvNnna" format="1">
  <advance width="630"/>
  <unicode hex="0929"/>
  <outline>
    <component base="dvNa"/>
    <component base="dvNukta" xOffset="220" yOffset="65"/>
    <contour>
      <point x="440" y="670" type="move" name="candrabindu"/>
    </contour>
    <contour>
      <point x="760" y="670" type="move" name="candrabinduCXT"/>
    </contour>
    <contour>
      <point x="460" y="670" type="move" name="bindu"/>
    </contour>
    <contour>
      <point x="455" y="475" type="move" name="top"/>
    </contour>
    <contour>
      <point x="350" y="0" type="move" name="bottom"/>
    </contour>
  </outline>
</glyph>
<glyph name="uni0931" format="1">
  <advance width="505"/>
  <unicode hex="0931"/>
  <outline>
    <component base="uni0930"/>
    <component base="uni093C" xOffset="126" yOffset="35"/>
    <contour>
      <point x="296" y="670" type="move" name="candrabindu"/>
    </contour>
    <contour>
      <point x="635" y="670" type="move" name="candrabinduCXT"/>
    </contour>
    <contour>
      <point x="276" y="670" type="move" name="bindu"/>
    </contour>
    <contour>
      <point x="321" y="475" type="move" name="top"/>
    </contour>
    <contour>
      <point x="278" y="-154" type="move" name="bottom"/>
    </contour>
  </outline>
</glyph>
<glyph name="dvLlla" format="1">
  <advance width="810"/>
  <unicode hex="0934"/>
  <outline>
    <component base="dvLla"/>
    <component base="dvNukta" xOffset="404" yOffset="-3"/>
    <contour>
      <point x="490" y="670" type="move" name="candrabindu"/>
    </contour>
    <contour>
      <point x="810" y="670" type="move" name="candrabinduCXT"/>
    </contour>
    <contour>
      <point x="520" y="670" type="move" name="bindu"/>
    </contour>
    <contour>
      <point x="536" y="475" type="move" name="top"/>
    </contour>
    <contour>
      <point x="377" y="-250" type="move" name="bottom"/>
    </contour>
  </outline>
</glyph>
<glyph name="uni093A" format="1">
  <advance width="0"/>
  <unicode hex="093A"/>
  <outline>
    <contour>
      <point x="-243" y="855" type="line"/>
      <point x="-243" y="611" type="line"/>
      <point x="-146" y="564" type="line"/>
      <point x="-115" y="584" type="line"/>
      <point x="-115" y="855" type="line"/>
    </contour>
    <contour>
      <point x="-170" y="475" type="move" name="_top"/>
    </contour>
  </outline>
</glyph>
<glyph name="dvMatraOOE" format="1">
  <advance width="316"/>
  <unicode hex="093B"/>
  <outline>
    <contour>
      <point x="67" y="855" type="line"/>
      <point x="67" y="611" type="line"/>
      <point x="164" y="564" type="line"/>
      <point x="195" y="584" type="line"/>
      <point x="195" y="855" type="line"/>
    </contour>
    <component base="dvMatraAa"/>
  </outline>
</glyph>
<glyph name="uni093B" format="1">
  <advance width="316"/>
  <unicode hex="093B"/>
  <outline>
    <contour>
      <point x="67" y="855" type="line"/>
      <point x="67" y="611" type="line"/>
      <point x="164" y="564" type="line"/>
      <point x="195" y="584" type="line"/>
      <point x="195" y="855" type="line"/>
    </contour>
    <component base="uni093E"/>
  </outline>
</glyph>
<glyph name="uni094A" format="1">
  <advance width="316"/>
  <unicode hex="094A"/>
  <outline>
    <component base="uni093E"/>
    <component base="uni0946" xOffset="308"/>
    <contour>
      <point x="323" y="670" type="move" name="bindu"/>
    </contour>
  </outline>
</glyph>
<glyph name="uni0957" format="1">
  <advance width="0"/>
  <unicode hex="0957"/>
  <outline>
    <component base="uni0956" yOffset="-230"/>
    <component base="uni0956"/>
    <contour>
      <point x="-260" y="0" type="move" name="_bottom"/>
    </contour>
  </outline>
</glyph>
<glyph name="dvKhha" format="1">
  <advance width="920"/>
  <unicode hex="0959"/>
  <outline>
    <component base="dvKha"/>
    <component base="dvNukta" xOffset="173" yOffset="10"/>
    <contour>
      <point x="550" y="670" type="move" name="candrabindu"/>
    </contour>
    <contour>
      <point x="1050" y="670" type="move" name="candrabinduCXT"/>
    </contour>
    <contour>
      <point x="530" y="670" type="move" name="bindu"/>
    </contour>
    <contour>
      <point x="745" y="475" type="move" name="top"/>
    </contour>
    <contour>
      <point x="640" y="-90" type="move" name="bottom"/>
    </contour>
  </outline>
</glyph>
<glyph name="uni095A" format="1">
  <advance width="690"/>
  <unicode hex="095A"/>
  <outline>
    <component base="uni0917"/>
    <component base="uni093C" xOffset="281" yOffset="71"/>
    <contour>
      <point x="400" y="670" type="move" name="candrabindu"/>
    </contour>
    <contour>
      <point x="820" y="670" type="move" name="candrabinduCXT"/>
    </contour>
    <contour>
      <point x="370" y="670" type="move" name="bindu"/>
    </contour>
    <contour>
      <point x="515" y="475" type="move" name="top"/>
    </contour>
    <contour>
      <point x="410" y="-125" type="move" name="bottom"/>
    </contour>
  </outline>
</glyph>
<glyph name="dvZa" format="1">
  <advance width="770"/>
  <unicode hex="095B"/>
  <outline>
    <component base="dvJa"/>
    <component base="dvNukta" xOffset="320" yOffset="7"/>
    <contour>
      <point x="580" y="670" type="move" name="candrabindu"/>
    </contour>
    <contour>
      <point x="900" y="670" type="move" name="candrabinduCXT"/>
    </contour>
    <contour>
      <point x="600" y="670" type="move" name="bindu"/>
    </contour>
    <contour>
      <point x="595" y="475" type="move" name="top"/>
    </contour>
    <contour>
      <point x="475" y="-168" type="move" name="bottom"/>
    </contour>
  </outline>
</glyph>
<glyph name="uni095B" format="1">
  <advance width="770"/>
  <unicode hex="095B"/>
  <outline>
    <component base="uni091C"/>
    <component base="uni093C" xOffset="320" yOffset="7"/>
    <contour>
      <point x="580" y="670" type="move" name="candrabindu"/>
    </contour>
    <contour>
      <point x="900" y="670" type="move" name="candrabinduCXT"/>
    </contour>
    <contour>
      <point x="600" y="670" type="move" name="bindu"/>
    </contour>
    <contour>
      <point x="595" y="475" type="move" name="top"/>
    </contour>
    <contour>
      <point x="475" y="-168" type="move" name="bottom"/>
    </contour>
  </outline>
</glyph>
<glyph name="dvDddha" format="1">
  <advance width="630"/>
  <unicode hex="095C"/>
  <outline>
    <component base="dvDda"/>
    <component base="dvNukta" xOffset="338" yOffset="-87"/>
    <contour>
      <point x="420" y="670" type="move" name="candrabindu"/>
    </contour>
    <contour>
      <point x="740" y="670" type="move" name="candrabinduCXT"/>
    </contour>
    <contour>
      <point x="440" y="670" type="move" name="bindu"/>
    </contour>
    <contour>
      <point x="458" y="475" type="move" name="top"/>
    </contour>
    <contour>
      <point x="285" y="-350" type="move" name="bottom"/>
    </contour>
  </outline>
</glyph>
<glyph name="dvRha" format="1">
  <advance width="649"/>
  <unicode hex="095D"/>
  <outline>
    <component base="dvDdha"/>
    <component base="dvNukta" xOffset="371" yOffset="-98"/>
    <contour>
      <point x="399" y="670" type="move" name="candrabindu"/>
    </contour>
    <contour>
      <point x="689" y="670" type="move" name="candrabinduCXT"/>
    </contour>
    <contour>
      <point x="419" y="670" type="move" name="bindu"/>
    </contour>
    <contour>
      <point x="449" y="475" type="move" name="top"/>
    </contour>
    <contour>
      <point x="349" y="-337" type="move" name="bottom"/>
    </contour>
  </outline>
</glyph>
<glyph name="dvFa" format="1">
  <advance width="869"/>
  <unicode hex="095E"/>
  <outline>
    <component base="dvPha"/>
    <component base="dvNukta" xOffset="176" yOffset="121"/>
    <contour>
      <point x="480" y="670" type="move" name="candrabindu"/>
    </contour>
    <contour>
      <point x="839" y="670" type="move" name="candrabinduCXT"/>
    </contour>
    <contour>
      <point x="430" y="670" type="move" name="bindu"/>
    </contour>
    <contour>
      <point x="465" y="475" type="move" name="top"/>
    </contour>
    <contour>
      <point x="323" y="-95" type="move" name="bottom"/>
    </contour>
  </outline>
</glyph>
<glyph name="uni095F" format="1">
  <advance width="681"/>
  <unicode hex="095F"/>
  <outline>
    <component base="uni092F"/>
    <component base="uni093C" xOffset="205" yOffset="70"/>
    <contour>
      <point x="391" y="670" type="move" name="candrabindu"/>
    </contour>
    <contour>
      <point x="811" y="670" type="move" name="candrabinduCXT"/>
    </contour>
    <contour>
      <point x="361" y="670" type="move" name="bindu"/>
    </contour>
    <contour>
      <point x="506" y="475" type="move" name="top"/>
    </contour>
    <contour>
      <point x="381" y="-122" type="move" name="bottom"/>
    </contour>
  </outline>
</glyph>
<glyph name="dvDanda" format="1">
  <advance width="500"/>
  <unicode hex="0964"/>
  <outline>
    <contour>
      <point x="274" y="694" type="line"/>
      <point x="220" y="667" type="line"/>
      <point x="220" y="23" type="line"/>
      <point x="352" y="-67" type="line"/>
      <point x="406" y="-40" type="line"/>
      <point x="406" y="604" type="line"/>
    </contour>
  </outline>
</glyph>
<glyph name="dvZero" format="1">
  <advance width="565"/>
  <unicode hex="0966"/>
  <outline>
    <contour>
      <point x="371" y="365"/>
      <point x="380" y="338"/>
      <point x="380" y="311" type="curve" smooth="yes"/>
      <point x="380" y="242"/>
      <point x="320" y="180"/>
      <point x="221" y="205" type="curve"/>
      <point x="202" y="225"/>
      <point x="193" y="250"/>
      <point x="193" y="276" type="curve" smooth="yes"/>
      <point x="193" y="342"/>
      <point x="252" y="420"/>
      <point x="353" y="389" type="curve"/>
    </contour>
    <contour>
      <point x="449" y="45"/>
      <point x="544" y="137"/>
      <point x="544" y="256" type="curve" smooth="yes"/>
      <point x="544" y="402"/>
      <point x="401" y="561"/>
      <point x="252" y="561" type="curve" smooth="yes"/>
      <point x="143" y="561"/>
      <point x="21" y="476"/>
      <point x="21" y="339" type="curve" smooth="yes"/>
      <point x="21" y="182"/>
      <point x="180" y="45"/>
      <point x="328" y="45" type="curve" smooth="yes"/>
    </contour>
  </outline>
</glyph>
<glyph name="dvOne" format="1">
  <advance width="476"/>
  <unicode hex="0967"/>
  <outline>
    <contour>
      <point x="215" y="436" type="line"/>
      <point x="165" y="479"/>
      <point x="178" y="574"/>
      <point x="256" y="569" type="curve"/>
      <point x="276" y="548"/>
      <point x="280" y="520"/>
      <point x="280" y="507" type="curve" smooth="yes"/>
      <point x="280" y="466"/>
      <point x="244" y="424"/>
      <point x="181" y="375" type="curve" smooth="yes"/>
      <point x="62" y="283" type="line"/>
      <point x="72" y="205" type="line"/>
      <point x="205" y="110" type="line" smooth="yes"/>
      <point x="236" y="88"/>
      <point x="260" y="69"/>
      <point x="260" y="41" type="curve" smooth="yes"/>
      <point x="260" y="17"/>
      <point x="244" y="-6"/>
      <point x="235" y="-17" type="curve"/>
      <point x="411" y="-86" type="line"/>
      <point x="429" y="-67"/>
      <point x="451" y="-28"/>
      <point x="451" y="12" type="curve" smooth="yes"/>
      <point x="451" y="66"/>
      <point x="410" y="103"/>
      <point x="347" y="147" type="curve" smooth="yes"/>
      <point x="221" y="235" type="line"/>
      <point x="208" y="140" type="line"/>
      <point x="326" y="239" type="line" smooth="yes"/>
      <point x="401" y="301"/>
      <point x="442" y="363"/>
      <point x="442" y="429" type="curve" smooth="yes"/>
      <point x="442" y="533"/>
      <point x="341" y="694"/>
      <point x="183" y="694" type="curve" smooth="yes"/>
      <point x="71" y="694"/>
      <point x="20" y="613"/>
      <point x="20" y="548" type="curve" smooth="yes"/>
      <point x="20" y="493"/>
      <point x="57" y="438"/>
      <point x="151" y="387" type="curve"/>
    </contour>
  </outline>
</glyph>
<glyph name="dvFour" format="1">
  <advance width="600"/>
  <unicode hex="096A"/>
  <outline>
    <contour>
      <point x="266" y="100"/>
      <point x="263" y="114"/>
      <point x="263" y="126" type="curve" smooth="yes"/>
      <point x="263" y="162"/>
      <point x="289" y="202"/>
      <point x="353" y="276" type="curve" smooth="yes"/>
      <point x="439" y="375"/>
      <point x="578" y="517"/>
      <point x="607" y="546" type="curve"/>
      <point x="480" y="666" type="line"/>
      <point x="384" y="571"/>
      <point x="281" y="461"/>
      <point x="220" y="388" type="curve" smooth="yes"/>
      <point x="148" y="302"/>
      <point x="104" y="233"/>
      <point x="104" y="164" type="curve" smooth="yes"/>
      <point x="104" y="46"/>
      <point x="235" y="-50"/>
      <point x="346" y="-50" type="curve" smooth="yes"/>
      <point x="446" y="-50"/>
      <point x="513" y="28"/>
      <point x="513" y="120" type="curve" smooth="yes"/>
      <point x="513" y="183"/>
      <point x="481" y="241"/>
      <point x="436" y="298" type="curve" smooth="yes"/>
      <point x="325" y="439"/>
      <point x="89" y="630"/>
      <point x="45" y="667" type="curve"/>
      <point x="-41" y="564" type="line"/>
      <point x="31" y="502"/>
      <point x="164" y="387"/>
      <point x="255" y="291" type="curve" smooth="yes"/>
      <point x="341" y="200"/>
      <point x="354" y="164"/>
      <point x="354" y="138" type="curve" smooth="yes"/>
      <point x="354" y="95"/>
      <point x="320" y="67"/>
      <point x="274" y="88" type="curve"/>
    </contour>
  </outline>
</glyph>
<glyph name="dvSix" format="1">
  <advance width="606"/>
  <unicode hex="096C"/>
  <outline>
    <contour>
      <point x="383" y="204" type="line"/>
      <point x="394" y="60" type="line"/>
      <point x="485" y="9" type="line"/>
      <point x="520" y="26"/>
      <point x="554" y="64"/>
      <point x="570" y="98" type="curve"/>
      <point x="454" y="234" type="line"/>
    </contour>
    <contour>
      <point x="439" y="424" type="line"/>
      <point x="395" y="432"/>
      <point x="346" y="436"/>
      <point x="311" y="436" type="curve" smooth="yes"/>
      <point x="127" y="436"/>
      <point x="56" y="327"/>
      <point x="56" y="228" type="curve" smooth="yes"/>
      <point x="56" y="144"/>
      <point x="108" y="74"/>
      <point x="174" y="30" type="curve" smooth="yes"/>
      <point x="228" y="-6"/>
      <point x="293" y="-27"/>
      <point x="354" y="-27" type="curve" smooth="yes"/>
      <point x="395" y="-27"/>
      <point x="444" y="-17"/>
      <point x="476" y="4" type="curve"/>
      <point x="449" y="210" type="line"/>
      <point x="401" y="141"/>
      <point x="267" y="123"/>
      <point x="230" y="137" type="curve"/>
      <point x="222" y="150"/>
      <point x="218" y="164"/>
      <point x="218" y="178" type="curve" smooth="yes"/>
      <point x="218" y="223"/>
      <point x="255" y="268"/>
      <point x="354" y="268" type="curve" smooth="yes"/>
      <point x="380" y="268"/>
      <point x="414" y="265"/>
      <point x="446" y="259" type="curve"/>
    </contour>
    <contour>
      <point x="254" y="388"/>
      <point x="195" y="417"/>
      <point x="195" y="462" type="curve" smooth="yes"/>
      <point x="195" y="501"/>
      <point x="241" y="526"/>
      <point x="307" y="526" type="curve" smooth="yes"/>
      <point x="351" y="526"/>
      <point x="405" y="515"/>
      <point x="462" y="489" type="curve"/>
      <point x="466" y="654" type="line"/>
      <point x="402" y="680"/>
      <point x="340" y="694"/>
      <point x="275" y="694" type="curve" smooth="yes"/>
      <point x="127" y="694"/>
      <point x="35" y="622"/>
      <point x="35" y="521" type="curve" smooth="yes"/>
      <point x="35" y="442"/>
      <point x="91" y="387"/>
      <point x="207" y="316" type="curve"/>
      <point x="303" y="375" type="line"/>
    </contour>
    <contour>
      <point x="596" y="-126" type="line"/>
      <point x="476" y="94" type="line"/>
      <point x="409" y="61" type="line"/>
      <point x="474" y="-208" type="line"/>
      <point x="580" y="-175" type="line"/>
    </contour>
  </outline>
</glyph>
<glyph name="dvEight" format="1">
  <advance width="520"/>
  <unicode hex="096E"/>
  <outline>
    <contour>
      <point x="316" y="668" type="line"/>
      <point x="124" y="433" type="line" smooth="yes"/>
      <point x="64" y="359"/>
      <point x="40" y="292"/>
      <point x="40" y="238" type="curve" smooth="yes"/>
      <point x="40" y="110"/>
      <point x="175" y="-34"/>
      <point x="317" y="-34" type="curve" smooth="yes"/>
      <point x="402" y="-34"/>
      <point x="475" y="17"/>
      <point x="530" y="108" type="curve"/>
      <point x="417" y="235" type="line"/>
      <point x="362" y="157"/>
      <point x="312" y="126"/>
      <point x="270" y="126" type="curve" smooth="yes"/>
      <point x="228" y="126"/>
      <point x="200" y="157"/>
      <point x="200" y="197" type="curve" smooth="yes"/>
      <point x="200" y="227"/>
      <point x="216" y="257"/>
      <point x="274" y="327" type="curve" smooth="yes"/>
      <point x="437" y="523" type="line"/>
    </contour>
  </outline>
</glyph>
<glyph name="dvNine" format="1">
  <advance width="528"/>
  <unicode hex="096F"/>
  <outline>
    <contour>
      <point x="92" y="694"/>
      <point x="11" y="605"/>
      <point x="15" y="497" type="curve" smooth="yes"/>
      <point x="18" y="411"/>
      <point x="77" y="338"/>
      <point x="161" y="266" type="curve" smooth="yes"/>
      <point x="309" y="138" type="line" smooth="yes"/>
      <point x="355" y="99"/>
      <point x="348" y="52"/>
      <point x="312" y="11" type="curve"/>
      <point x="489" y="-58" type="line"/>
      <point x="516" y="-24"/>
      <point x="528" y="9"/>
      <point x="528" y="40" type="curve" smooth="yes"/>
      <point x="528" y="105"/>
      <point x="478" y="160"/>
      <point x="418" y="206" type="curve" smooth="yes"/>
      <point x="270" y="320" type="line" smooth="yes"/>
      <point x="207" y="368"/>
      <point x="182" y="411"/>
      <point x="182" y="455" type="curve" smooth="yes"/>
      <point x="182" y="508"/>
      <point x="217" y="546"/>
      <point x="255" y="546" type="curve" smooth="yes"/>
      <point x="284" y="546"/>
      <point x="306" y="522"/>
      <point x="306" y="492" type="curve" smooth="yes"/>
      <point x="306" y="428"/>
      <point x="210" y="360"/>
      <point x="152" y="335" type="curve"/>
      <point x="281" y="224" type="line"/>
      <point x="366" y="272"/>
      <point x="462" y="345"/>
      <point x="462" y="447" type="curve" smooth="yes"/>
      <point x="462" y="558"/>
      <point x="347" y="694"/>
      <point x="206" y="694" type="curve" smooth="yes"/>
    </contour>
  </outline>
</glyph>
<glyph name="dvOOE" format="1">
  <advance width="1214"/>
  <unicode hex="0974"/>
  <outline>
    <contour>
      <point x="973" y="855" type="line"/>
      <point x="973" y="611" type="line"/>
      <point x="1070" y="564" type="line"/>
      <point x="1101" y="584" type="line"/>
      <point x="1101" y="855" type="line"/>
    </contour>
    <component base="dvAa"/>
  </outline>
</glyph>
<glyph name="uni0974" format="1">
  <advance width="1214"/>
  <unicode hex="0974"/>
  <outline>
    <contour>
      <point x="973" y="855" type="line"/>
      <point x="973" y="611" type="line"/>
      <point x="1070" y="564" type="line"/>
      <point x="1101" y="584" type="line"/>
      <point x="1101" y="855" type="line"/>
    </contour>
    <component base="uni0906"/>
  </outline>
</glyph>
<glyph name="uni0976" format="1">
  <advance width="898"/>
  <unicode hex="0976"/>
  <outline>
    <component base="uni0905"/>
    <component base="uni0956" xOffset="842"/>
    <contour>
      <point x="728" y="670" type="move" name="bindu"/>
    </contour>
    <contour>
      <point x="708" y="670" type="move" name="candrabindu"/>
    </contour>
  </outline>
</glyph>
<glyph name="uni0977" format="1">
  <advance width="898"/>
  <unicode hex="0977"/>
  <outline>
    <component base="uni0905"/>
    <component base="uni0957" xOffset="839"/>
    <contour>
      <point x="728" y="670" type="move" name="bindu"/>
    </contour>
    <contour>
      <point x="708" y="670" type="move" name="candrabindu"/>
    </contour>
  </outline>
</glyph>
<glyph name="uni0979" format="1">
  <advance width="770"/>
  <unicode hex="0979"/>
  <outline>
    <component base="uni091C"/>
    <component base="uni093C" xOffset="175" yOffset="13"/>
    <component base="uni093C" xOffset="307" yOffset="-122"/>
    <component base="uni093C" xOffset="436" yOffset="13"/>
    <contour>
      <point x="580" y="670" type="move" name="candrabindu"/>
    </contour>
    <contour>
      <point x="900" y="670" type="move" name="candrabinduCXT"/>
    </contour>
    <contour>
      <point x="600" y="670" type="move" name="bindu"/>
    </contour>
    <contour>
      <point x="595" y="475" type="move" name="top"/>
    </contour>
    <contour>
      <point x="457" y="-296" type="move" name="bottom"/>
    </contour>
  </outline>
</glyph>
<glyph name="uni097A" format="1">
  <advance width="681"/>
  <unicode hex="097A"/>
  <outline>
    <contour>
      <point x="433" y="196" type="line"/>
      <point x="536" y="227" type="line"/>
      <point x="293" y="433" type="line"/>
      <point x="186" y="407" type="line"/>
    </contour>
    <component base="uni092F"/>
    <contour>
      <point x="391" y="670" type="move" name="candrabindu"/>
    </contour>
    <contour>
      <point x="811" y="670" type="move" name="candrabinduCXT"/>
    </contour>
    <contour>
      <point x="361" y="670" type="move" name="bindu"/>
    </contour>
    <contour>
      <point x="506" y="475" type="move" name="top"/>
    </contour>
    <contour>
      <point x="401" y="0" type="move" name="bottom"/>
    </contour>
  </outline>
</glyph>
<glyph name="dvGlottalStop" format="1">
  <advance width="607"/>
  <unicode hex="097D"/>
  <outline>
    <contour>
      <point x="230" y="663"/>
      <point x="156" y="640"/>
      <point x="86" y="587" type="curve"/>
      <point x="169" y="410" type="line"/>
      <point x="231" y="449"/>
      <point x="316" y="485"/>
      <point x="367" y="490" type="curve"/>
      <point x="403" y="446"/>
      <point x="379" y="346"/>
      <point x="210" y="316" type="curve"/>
      <point x="265" y="136" type="line"/>
      <point x="453" y="184"/>
      <point x="557" y="270"/>
      <point x="557" y="388" type="curve" smooth="yes"/>
      <point x="557" y="523"/>
      <point x="422" y="663"/>
      <point x="285" y="663" type="curve" smooth="yes"/>
    </contour>
    <contour>
      <point x="210" y="23" type="line"/>
      <point x="339" y="-46" type="line"/>
      <point x="393" y="-19" type="line"/>
      <point x="393" y="235" type="line"/>
      <point x="210" y="316" type="line"/>
    </contour>
  </outline>
</glyph>
<glyph name="emdash" format="1">
  <advance width="1047"/>
  <unicode hex="2014"/>
  <outline>
    <contour>
      <point x="117" y="328"/>
      <point x="74" y="321"/>
      <point x="35" y="302" type="curve"/>
      <point x="41" y="217" type="line"/>
      <point x="947" y="217" type="line"/>
      <point x="994" y="270" type="line"/>
      <point x="989" y="328" type="line"/>
      <point x="148" y="328" type="line"/>
    </contour>
  </outline>
</glyph>
<glyph name="quoteleft" format="1">
  <advance width="270"/>
  <unicode hex="2018"/>
  <outline>
    <contour>
      <point x="189" y="754" type="line"/>
      <point x="92" y="710"/>
      <point x="22" y="631"/>
      <point x="22" y="553" type="curve" smooth="yes"/>
      <point x="22" y="515"/>
      <point x="40" y="456"/>
      <point x="119" y="426" type="curve"/>
      <point x="169" y="439"/>
      <point x="211" y="492"/>
      <point x="221" y="533" type="curve"/>
      <point x="162" y="589" type="line"/>
      <point x="171" y="638"/>
      <point x="195" y="672"/>
      <point x="230" y="704" type="curve"/>
    </contour>
  </outline>
</glyph>
<glyph name="daggerdbl" format="1">
  <advance width="581"/>
  <unicode hex="2021"/>
  <outline>
    <contour>
      <point x="180" y="641" type="line"/>
      <point x="215" y="-180" type="line"/>
      <point x="356" y="-180" type="line"/>
      <point x="402" y="685" type="line"/>
      <point x="222" y="689" type="line"/>
    </contour>
    <contour>
      <point x="547" y="432" type="line"/>
      <point x="541" y="469" type="line"/>
      <point x="79" y="469" type="line"/>
      <point x="36" y="408" type="line"/>
      <point x="42" y="371" type="line"/>
      <point x="504" y="371" type="line"/>
    </contour>
    <contour>
      <point x="545" y="200" type="line"/>
      <point x="539" y="237" type="line"/>
      <point x="77" y="237" type="line"/>
      <point x="34" y="177" type="line"/>
      <point x="40" y="140" type="line"/>
      <point x="502" y="140" type="line"/>
    </contour>
  </outline>
</glyph>
<glyph name="bullet" format="1">
  <advance width="419"/>
  <unicode hex="2022"/>
  <outline>
    <contour>
      <point x="344" y="328"/>
      <point x="277" y="388"/>
      <point x="199" y="422" type="curve"/>
      <point x="121" y="378"/>
      <point x="63" y="315"/>
      <point x="49" y="224" type="curve"/>
      <point x="86" y="155"/>
      <point x="145" y="109"/>
      <point x="226" y="81" type="curve"/>
      <point x="299" y="119"/>
      <point x="346" y="177"/>
      <point x="370" y="251" type="curve"/>
    </contour>
  </outline>
</glyph>
<glyph name="ellipsis" format="1">
  <advance width="943"/>
  <unicode hex="2026"/>
  <outline>
    <contour>
      <point x="292" y="140"/>
      <point x="248" y="179"/>
      <point x="197" y="202" type="curve"/>
      <point x="145" y="174"/>
      <point x="107" y="132"/>
      <point x="99" y="73" type="curve"/>
      <point x="123" y="28"/>
      <point x="161" y="-2"/>
      <point x="214" y="-20" type="curve"/>
      <point x="261" y="5"/>
      <point x="292" y="42"/>
      <point x="307" y="91" type="curve"/>
    </contour>
    <contour>
      <point x="600" y="140"/>
      <point x="556" y="179"/>
      <point x="505" y="202" type="curve"/>
      <point x="453" y="174"/>
      <point x="415" y="132"/>
      <point x="407" y="73" type="curve"/>
      <point x="431" y="28"/>
      <point x="469" y="-2"/>
      <point x="522" y="-20" type="curve"/>
      <point x="569" y="5"/>
      <point x="600" y="42"/>
      <point x="615" y="91" type="curve"/>
    </contour>
    <contour>
      <point x="908" y="140"/>
      <point x="864" y="179"/>
      <point x="813" y="202" type="curve"/>
      <point x="761" y="174"/>
      <point x="723" y="132"/>
      <point x="715" y="73" type="curve"/>
      <point x="739" y="28"/>
      <point x="777" y="-2"/>
      <point x="830" y="-20" type="curve"/>
      <point x="877" y="5"/>
      <point x="908" y="42"/>
      <point x="923" y="91" type="curve"/>
    </contour>
  </outline>
</glyph>
<glyph name="guilsinglleft" format="1">
  <advance width="379"/>
  <unicode hex="2039"/>
  <outline>
    <contour>
      <point x="52" y="207" type="line"/>
      <point x="228" y="29" type="line"/>
      <point x="327" y="99" type="line"/>
      <point x="231" y="253" type="line"/>
      <point x="320" y="415" type="line"/>
      <point x="228" y="480" type="line"/>
      <point x="52" y="299" type="line"/>
    </contour>
  </outline>
</glyph>
<glyph name="fraction" format="1">
  <advance width="204"/>
  <unicode hex="2044"/>
  <outline>
    <contour>
      <point x="-133" y="10" type="line"/>
      <point x="458" y="628" type="line"/>
      <point x="387" y="698" type="line"/>
      <point x="-205" y="78" type="line"/>
    </contour>
  </outline>
</glyph>
<glyph name="foursuperior" format="1">
  <advance width="344"/>
  <unicode hex="2074"/>
  <outline>
    <contour>
      <point x="82" y="528" type="line"/>
      <point x="205" y="692" type="line"/>
      <point x="230" y="693" type="line"/>
      <point x="207" y="738" type="line"/>
      <point x="169" y="751" type="line"/>
      <point x="-4" y="540" type="line"/>
      <point x="20" y="485" type="line"/>
      <point x="304" y="485" type="line"/>
      <point x="324" y="507" type="line"/>
      <point x="324" y="547" type="line"/>
      <point x="60" y="544" type="line"/>
    </contour>
    <contour>
      <point x="158" y="415" type="line"/>
      <point x="267" y="415" type="line"/>
      <point x="267" y="734" type="line"/>
      <point x="168" y="751" type="line"/>
      <point x="178" y="684" type="line"/>
      <point x="158" y="566" type="line"/>
    </contour>
    <contour>
      <point x="303" y="415" type="line"/>
      <point x="303" y="445" type="line"/>
      <point x="244" y="459" type="line"/>
      <point x="242" y="415" type="line"/>
    </contour>
    <contour>
      <point x="166" y="415" type="line"/>
      <point x="164" y="464" type="line"/>
      <point x="140" y="458"/>
      <point x="104" y="443"/>
      <point x="85" y="430" type="curve"/>
      <point x="88" y="415" type="line"/>
    </contour>
  </outline>
</glyph>
<glyph name="trademark" format="1">
  <advance width="939"/>
  <unicode hex="2122"/>
  <outline>
    <contour>
      <point x="134" y="726" type="line"/>
      <point x="134" y="448" type="line"/>
      <point x="260" y="448" type="line"/>
      <point x="260" y="726" type="line"/>
    </contour>
    <contour>
      <point x="121" y="484"/>
      <point x="98" y="474"/>
      <point x="85" y="462" type="curve"/>
      <point x="88" y="448" type="line"/>
      <point x="141" y="448" type="line"/>
      <point x="140" y="495" type="line"/>
    </contour>
    <contour>
      <point x="239" y="448" type="line"/>
      <point x="307" y="448" type="line"/>
      <point x="308" y="474" type="line"/>
      <point x="241" y="487" type="line"/>
    </contour>
    <contour>
      <point x="211" y="734"/>
      <point x="184" y="734"/>
      <point x="2" y="737" type="curve"/>
      <point x="34" y="677" type="line"/>
      <point x="196" y="688" type="line"/>
      <point x="358" y="677" type="line"/>
      <point x="391" y="737" type="line"/>
    </contour>
    <contour>
      <point x="377" y="598" type="line"/>
      <point x="385" y="618"/>
      <point x="393" y="713"/>
      <point x="391" y="737" type="curve"/>
      <point x="286" y="732" type="line"/>
      <point x="309" y="598" type="line" smooth="yes"/>
    </contour>
    <contour>
      <point x="106" y="732" type="line"/>
      <point x="2" y="737" type="line"/>
      <point x="-1" y="713"/>
      <point x="7" y="618"/>
      <point x="15" y="598" type="curve"/>
      <point x="84" y="598" type="line"/>
    </contour>
    <contour>
      <point x="424" y="735" type="line"/>
      <point x="423" y="709" type="line"/>
      <point x="490" y="696" type="line"/>
      <point x="492" y="735" type="line"/>
    </contour>
    <contour>
      <point x="459" y="735" type="line"/>
      <point x="446" y="449" type="line"/>
      <point x="524" y="449" type="line"/>
      <point x="530" y="589" type="line"/>
      <point x="523" y="675" type="line"/>
      <point x="602" y="735" type="line"/>
    </contour>
    <contour>
      <point x="434" y="485"/>
      <point x="418" y="475"/>
      <point x="405" y="463" type="curve"/>
      <point x="408" y="449" type="line"/>
      <point x="454" y="449" type="line"/>
      <point x="454" y="496" type="line"/>
    </contour>
    <contour>
      <point x="503" y="449" type="line"/>
      <point x="571" y="449" type="line"/>
      <point x="571" y="475" type="line" smooth="yes"/>
      <point x="504" y="488" type="line"/>
    </contour>
    <contour>
      <point x="494" y="715" type="line"/>
      <point x="607" y="446" type="line"/>
      <point x="688" y="456" type="line"/>
      <point x="691" y="526" type="line"/>
      <point x="602" y="735" type="line"/>
    </contour>
    <contour>
      <point x="639" y="465" type="line"/>
      <point x="688" y="456" type="line"/>
      <point x="797" y="719" type="line"/>
      <point x="750" y="735" type="line"/>
    </contour>
    <contour>
      <point x="750" y="735" type="line"/>
      <point x="765" y="671" type="line"/>
      <point x="758" y="585" type="line"/>
      <point x="767" y="449" type="line"/>
      <point x="879" y="449" type="line"/>
      <point x="864" y="735" type="line"/>
    </contour>
    <contour>
      <point x="854" y="735" type="line"/>
      <point x="854" y="688" type="line"/>
      <point x="874" y="699"/>
      <point x="890" y="709"/>
      <point x="903" y="721" type="curve"/>
      <point x="900" y="735" type="line"/>
    </contour>
    <contour>
      <point x="754" y="485"/>
      <point x="738" y="475"/>
      <point x="725" y="463" type="curve"/>
      <point x="728" y="449" type="line"/>
      <point x="774" y="449" type="line"/>
      <point x="774" y="496" type="line"/>
    </contour>
    <contour>
      <point x="849" y="449" type="line"/>
      <point x="917" y="449" type="line"/>
      <point x="917" y="475" type="line"/>
      <point x="850" y="488" type="line"/>
    </contour>
    <contour>
      <point x="218" y="502" type="move" name="center"/>
    </contour>
    <contour>
      <point x="171" y="359" type="move" name="bottom"/>
    </contour>
    <contour>
      <point x="171" y="645" type="move" name="top"/>
    </contour>
  </outline>
</glyph>
<glyph name="Ohm" format="1">
  <advance width="744"/>
  <unicode hex="2126"/>
  <outline>
    <contour>
      <point x="442" y="12" type="line"/>
      <point x="592" y="77"/>
      <point x="716" y="208"/>
      <point x="716" y="367" type="curve" smooth="yes"/>
      <point x="716" y="551"/>
      <point x="548" y="670"/>
      <point x="377" y="670" type="curve" smooth="yes"/>
      <point x="202" y="670"/>
      <point x="28" y="545"/>
      <point x="28" y="358" type="curve" smooth="yes"/>
      <point x="28" y="195"/>
      <point x="158" y="83"/>
      <point x="321" y="18" type="curve"/>
      <point x="358" y="91" type="line"/>
      <point x="272" y="185"/>
      <point x="240" y="297"/>
      <point x="240" y="384" type="curve" smooth="yes"/>
      <point x="240" y="498"/>
      <point x="293" y="573"/>
      <point x="383" y="573" type="curve" smooth="yes"/>
      <point x="474" y="573"/>
      <point x="525" y="499"/>
      <point x="525" y="387" type="curve" smooth="yes"/>
      <point x="525" y="303"/>
      <point x="494" y="190"/>
      <point x="411" y="87" type="curve"/>
    </contour>
    <contour>
      <point x="253" y="86"/>
      <point x="116" y="63"/>
      <point x="58" y="32" type="curve"/>
      <point x="64" y="0" type="line"/>
      <point x="358" y="0" type="line"/>
      <point x="358" y="91" type="line"/>
    </contour>
    <contour>
      <point x="411" y="0" type="line"/>
      <point x="691" y="0" type="line"/>
      <point x="692" y="55" type="line"/>
      <point x="411" y="87" type="line"/>
    </contour>
  </outline>
</glyph>
<glyph name="bulletoperator" format="1">
  <advance width="309"/>
  <unicode hex="2219"/>
  <outline>
    <contour>
      <point x="192" y="192"/>
      <point x="232" y="244"/>
      <point x="249" y="288" type="curve"/>
      <point x="225" y="320"/>
      <point x="174" y="366"/>
      <point x="130" y="384" type="curve"/>
      <point x="92" y="362"/>
      <point x="54" y="310"/>
      <point x="30" y="262" type="curve"/>
      <point x="56" y="226"/>
      <point x="115" y="182"/>
      <point x="154" y="166" type="curve"/>
    </contour>
  </outline>
</glyph>
<glyph name="radical" format="1">
  <advance width="805"/>
  <unicode hex="221A"/>
  <outline>
    <contour>
      <point x="317" y="474" type="line"/>
      <point x="451" y="-57" type="line"/>
      <point x="347" y="-56" type="line"/>
      <point x="598" y="751" type="line"/>
      <point x="739" y="703" type="line"/>
      <point x="493" y="-84" type="line"/>
      <point x="453" y="-98"/>
      <point x="360" y="-103"/>
      <point x="316" y="-101" type="curve"/>
      <point x="177" y="388" type="line"/>
      <point x="270" y="336" type="line"/>
      <point x="112" y="233" type="line"/>
      <point x="41" y="334" type="line"/>
      <point x="195" y="474" type="line"/>
    </contour>
  </outline>
</glyph>
<glyph name="infinity" format="1">
  <advance width="775"/>
  <unicode hex="221E"/>
  <outline>
    <contour>
      <point x="130" y="536"/>
      <point x="30" y="454"/>
      <point x="30" y="322" type="curve" smooth="yes"/>
      <point x="30" y="192"/>
      <point x="128" y="132"/>
      <point x="208" y="132" type="curve" smooth="yes"/>
      <point x="298" y="132"/>
      <point x="365" y="209"/>
      <point x="411" y="301" type="curve"/>
      <point x="367" y="353" type="line"/>
      <point x="338" y="304"/>
      <point x="298" y="279"/>
      <point x="258" y="279" type="curve" smooth="yes"/>
      <point x="207" y="279"/>
      <point x="167" y="318"/>
      <point x="167" y="375" type="curve" smooth="yes"/>
      <point x="167" y="387"/>
      <point x="171" y="394"/>
      <point x="175" y="402" type="curve"/>
      <point x="232" y="434"/>
      <point x="291" y="357"/>
      <point x="352" y="275" type="curve"/>
      <point x="409" y="202"/>
      <point x="469" y="131"/>
      <point x="560" y="131" type="curve" smooth="yes"/>
      <point x="648" y="131"/>
      <point x="753" y="197"/>
      <point x="753" y="338" type="curve" smooth="yes"/>
      <point x="753" y="460"/>
      <point x="674" y="534"/>
      <point x="588" y="534" type="curve" smooth="yes"/>
      <point x="496" y="534"/>
      <point x="431" y="446"/>
      <point x="382" y="366" type="curve"/>
      <point x="419" y="319" type="line"/>
      <point x="457" y="367"/>
      <point x="515" y="398"/>
      <point x="555" y="398" type="curve" smooth="yes"/>
      <point x="600" y="398"/>
      <point x="626" y="357"/>
      <point x="626" y="323" type="curve" smooth="yes"/>
      <point x="626" y="310"/>
      <point x="623" y="293"/>
      <point x="613" y="280" type="curve"/>
      <point x="556" y="250"/>
      <point x="504" y="326"/>
      <point x="447" y="394" type="curve" smooth="yes"/>
      <point x="392" y="458"/>
      <point x="323" y="536"/>
      <point x="227" y="536" type="curve" smooth="yes"/>
    </contour>
  </outline>
</glyph>
<glyph name="notequal" format="1">
  <advance width="576"/>
  <unicode hex="2260"/>
  <outline>
    <contour>
      <point x="168" y="-6" type="line"/>
      <point x="478" y="496" type="line"/>
      <point x="428" y="524" type="line"/>
      <point x="118" y="23" type="line"/>
    </contour>
    <component base="equal"/>
  </outline>
</glyph>
<glyph name="lozenge" format="1">
  <advance width="550"/>
  <unicode hex="25CA"/>
  <outline>
    <contour>
      <point x="148" y="413" type="line"/>
      <point x="34" y="368" type="line"/>
      <point x="234" y="-8" type="line"/>
      <point x="336" y="0" type="line"/>
      <point x="516" y="367" type="line"/>
      <point x="398" y="410" type="line"/>
      <point x="285" y="159" type="line"/>
      <point x="279" y="158" type="line"/>
    </contour>
    <contour>
      <point x="402" y="322" type="line"/>
      <point x="516" y="367" type="line"/>
      <point x="316" y="743" type="line"/>
      <point x="214" y="735" type="line"/>
      <point x="34" y="368" type="line"/>
      <point x="152" y="325" type="line"/>
      <point x="265" y="576" type="line"/>
      <point x="271" y="577" type="line"/>
    </contour>
  </outline>
</glyph>
<glyph name="dvBJYa" format="1">
  <advance width="1584"/>
  <outline>
    <component base="uni092C094D"/>
    <component base="dvJYa" xOffset="413"/>
    <contour>
      <point x="1294" y="670" type="move" name="candrabindu"/>
    </contour>
    <contour>
      <point x="1714" y="670" type="move" name="candrabinduCXT"/>
    </contour>
    <contour>
      <point x="1264" y="670" type="move" name="bindu"/>
    </contour>
    <contour>
      <point x="1409" y="475" type="move" name="top"/>
    </contour>
    <contour>
      <point x="1304" y="0" type="move" name="bottom"/>
    </contour>
  </outline>
</glyph>
<glyph name="dvBLYa" format="1">
  <advance width="1619"/>
  <outline>
    <component base="uni092C094D"/>
    <component base="uni0932094D.alt" xOffset="388"/>
    <component base="uni092F" xOffset="938"/>
    <contour>
      <point x="1329" y="670" type="move" name="candrabindu"/>
    </contour>
    <contour>
      <point x="1749" y="670" type="move" name="candrabinduCXT"/>
    </contour>
    <contour>
      <point x="1299" y="670" type="move" name="bindu"/>
    </contour>
    <contour>
      <point x="1444" y="475" type="move" name="top"/>
    </contour>
    <contour>
      <point x="1339" y="0" type="move" name="bottom"/>
    </contour>
  </outline>
</glyph>
<glyph name="dvCCha" format="1">
  <advance width="1273"/>
  <outline>
    <component base="dvC"/>
    <component base="dvCha" xOffset="468"/>
    <contour>
      <point x="893" y="670" type="move" name="candrabindu"/>
    </contour>
    <contour>
      <point x="1353" y="670" type="move" name="candrabinduCXT"/>
    </contour>
    <contour>
      <point x="873" y="670" type="move" name="bindu"/>
    </contour>
    <contour>
      <point x="1058" y="475" type="move" name="top"/>
    </contour>
    <contour>
      <point x="822" y="-91" type="move" name="bottom"/>
    </contour>
  </outline>
</glyph>
<glyph name="dvCh" format="1">
  <advance width="805"/>
  <outline>
    <contour>
      <point x="446" y="173" type="line"/>
      <point x="372" y="294" type="line"/>
      <point x="219" y="331"/>
      <point x="117" y="247"/>
      <point x="117" y="147" type="curve" smooth="yes"/>
      <point x="117" y="31"/>
      <point x="255" y="-82"/>
      <point x="426" y="-82" type="curve" smooth="yes"/>
      <point x="632" y="-82"/>
      <point x="779" y="81"/>
      <point x="779" y="246" type="curve" smooth="yes"/>
      <point x="779" y="385"/>
      <point x="674" y="522"/>
      <point x="549" y="522" type="curve" smooth="yes"/>
      <point x="462" y="522"/>
      <point x="387" y="455"/>
      <point x="387" y="371" type="curve" smooth="yes"/>
      <point x="387" y="271"/>
      <point x="493" y="177"/>
      <point x="605" y="139" type="curve"/>
      <point x="640" y="203" type="line"/>
      <point x="568" y="227"/>
      <point x="548" y="287"/>
      <point x="548" y="327" type="curve" smooth="yes"/>
      <point x="548" y="363"/>
      <point x="565" y="400"/>
      <point x="614" y="393" type="curve"/>
      <point x="627" y="378"/>
      <point x="633" y="342"/>
      <point x="633" y="314" type="curve" smooth="yes"/>
      <point x="633" y="188"/>
      <point x="512" y="52"/>
      <point x="332" y="52" type="curve" smooth="yes"/>
      <point x="317" y="52"/>
      <point x="308" y="53"/>
      <point x="295" y="56" type="curve"/>
      <point x="289" y="62"/>
      <point x="285" y="75"/>
      <point x="285" y="86" type="curve" smooth="yes"/>
      <point x="285" y="126"/>
      <point x="339" y="155"/>
      <point x="408" y="126" type="curve"/>
    </contour>
    <contour>
      <point x="845" y="538" type="line"/>
      <point x="870" y="587" type="line"/>
      <point x="805" y="670" type="line"/>
      <point x="-40" y="670" type="line"/>
      <point x="-65" y="621" type="line"/>
      <point x="0" y="538" type="line"/>
    </contour>
    <contour>
      <point x="350" y="402" type="line"/>
      <point x="276" y="510" type="line"/>
      <point x="171" y="510" type="line" smooth="yes"/>
      <point x="59" y="510"/>
      <point x="11" y="444"/>
      <point x="11" y="379" type="curve" smooth="yes"/>
      <point x="11" y="303"/>
      <point x="77" y="231"/>
      <point x="185" y="185" type="curve"/>
      <point x="240" y="248" type="line"/>
      <point x="188" y="276"/>
      <point x="172" y="293"/>
      <point x="172" y="313" type="curve" smooth="yes"/>
      <point x="172" y="342"/>
      <point x="208" y="353"/>
      <point x="240" y="353" type="curve" smooth="yes"/>
      <point x="325" y="353" type="line"/>
    </contour>
  </outline>
</glyph>
<glyph name="dvChRYa" format="1">
  <advance width="1456"/>
  <outline>
    <component base="dvChYa"/>
    <component base="uni094D0930" xOffset="398" yOffset="22"/>
    <contour>
      <point x="1166" y="670" type="move" name="candrabindu"/>
    </contour>
    <contour>
      <point x="1586" y="670" type="move" name="candrabinduCXT"/>
    </contour>
    <contour>
      <point x="1136" y="670" type="move" name="bindu"/>
    </contour>
    <contour>
      <point x="1281" y="475" type="move" name="top"/>
    </contour>
    <contour>
      <point x="1176" y="-50" type="move" name="bottom"/>
    </contour>
  </outline>
</glyph>
<glyph name="dvDBhYa" format="1">
  <advance width="1670"/>
  <outline>
    <component base="dvDBha"/>
    <component base="dvYa.post" xOffset="959"/>
    <contour>
      <point x="1380" y="670" type="move" name="candrabindu"/>
    </contour>
    <contour>
      <point x="1800" y="670" type="move" name="candrabinduCXT"/>
    </contour>
    <contour>
      <point x="1350" y="670" type="move" name="bindu"/>
    </contour>
    <contour>
      <point x="1495" y="475" type="move" name="top"/>
    </contour>
    <contour>
      <point x="1390" y="-50" type="move" name="bottom"/>
    </contour>
  </outline>
</glyph>
<glyph name="dvDDhYa" format="1">
  <advance width="1653"/>
  <outline>
    <component base="dvDDha"/>
    <component base="uni092F.post" xOffset="942"/>
    <contour>
      <point x="1363" y="670" type="move" name="candrabindu"/>
    </contour>
    <contour>
      <point x="1783" y="670" type="move" name="candrabinduCXT"/>
    </contour>
    <contour>
      <point x="1333" y="670" type="move" name="bindu"/>
    </contour>
    <contour>
      <point x="1478" y="475" type="move" name="top"/>
    </contour>
    <contour>
      <point x="1373" y="-50" type="move" name="bottom"/>
    </contour>
  </outline>
</glyph>
<glyph name="dvDRYa" format="1">
  <advance width="1250"/>
  <outline>
    <component base="dvDRa"/>
    <component base="dvYa.post" xOffset="544"/>
    <contour>
      <point x="965" y="670" type="move" name="candrabindu"/>
    </contour>
    <contour>
      <point x="1385" y="670" type="move" name="candrabinduCXT"/>
    </contour>
    <contour>
      <point x="935" y="670" type="move" name="bindu"/>
    </contour>
    <contour>
      <point x="1080" y="475" type="move" name="top"/>
    </contour>
    <contour>
      <point x="975" y="-50" type="move" name="bottom"/>
    </contour>
  </outline>
</glyph>
<glyph name="dvDVYa" format="1">
  <advance width="1270"/>
  <outline>
    <component base="dvDVa"/>
    <component base="dvYa.post" xOffset="559"/>
    <contour>
      <point x="981" y="670" type="move" name="candrabindu"/>
    </contour>
    <contour>
      <point x="1400" y="670" type="move" name="candrabinduCXT"/>
    </contour>
    <contour>
      <point x="951" y="670" type="move" name="bindu"/>
    </contour>
    <contour>
      <point x="1095" y="475" type="move" name="top"/>
    </contour>
    <contour>
      <point x="990" y="-50" type="move" name="bottom"/>
    </contour>
  </outline>
</glyph>
<glyph name="dvDdhRYa" format="1">
  <advance width="1310"/>
  <outline>
    <component base="dvDdhYa"/>
    <component base="uni094D0930" xOffset="365" yOffset="20"/>
    <contour>
      <point x="1020" y="670" type="move" name="candrabindu"/>
    </contour>
    <contour>
      <point x="1440" y="670" type="move" name="candrabinduCXT"/>
    </contour>
    <contour>
      <point x="990" y="670" type="move" name="bindu"/>
    </contour>
    <contour>
      <point x="1135" y="475" type="move" name="top"/>
    </contour>
    <contour>
      <point x="1030" y="-50" type="move" name="bottom"/>
    </contour>
  </outline>
</glyph>
<glyph name="dvEight.ss05" format="1">
  <advance width="682"/>
  <outline>
    <contour>
      <point x="157" y="507" type="line"/>
      <point x="137" y="440"/>
      <point x="127" y="391"/>
      <point x="127" y="348" type="curve" smooth="yes"/>
      <point x="127" y="173"/>
      <point x="292" y="92"/>
      <point x="372" y="92" type="curve" smooth="yes"/>
      <point x="416" y="92"/>
      <point x="457" y="116"/>
      <point x="532" y="152" type="curve"/>
      <point x="532" y="115"/>
      <point x="487" y="55"/>
      <point x="459" y="29" type="curve"/>
      <point x="633" y="-58" type="line"/>
      <point x="783" y="102"/>
      <point x="620" y="317"/>
      <point x="492" y="317" type="curve" smooth="yes"/>
      <point x="445" y="317"/>
      <point x="377" y="288"/>
      <point x="282" y="247" type="curve"/>
      <point x="292" y="283"/>
      <point x="316" y="370"/>
      <point x="356" y="424" type="curve"/>
    </contour>
    <contour>
      <point x="589" y="384" type="line"/>
      <point x="614" y="433" type="line"/>
      <point x="549" y="536" type="line"/>
      <point x="15" y="536" type="line"/>
      <point x="-10" y="487" type="line"/>
      <point x="55" y="384" type="line"/>
    </contour>
  </outline>
</glyph>
<glyph name="dvFRa" format="1">
  <advance width="889"/>
  <outline>
    <component base="dvPhRa"/>
    <component base="uni093C" xOffset="294" yOffset="28"/>
    <contour>
      <point x="500" y="670" type="move" name="candrabindu"/>
    </contour>
    <contour>
      <point x="859" y="670" type="move" name="candrabinduCXT"/>
    </contour>
    <contour>
      <point x="450" y="670" type="move" name="bindu"/>
    </contour>
    <contour>
      <point x="485" y="475" type="move" name="top"/>
    </contour>
    <contour>
      <point x="390" y="-173" type="move" name="bottom"/>
    </contour>
  </outline>
</glyph>
<glyph name="dvFSa" format="1">
  <advance width="1482"/>
  <outline>
    <component base="dvF"/>
    <component base="dvSa" xOffset="673"/>
    <contour>
      <point x="1162" y="670" type="move" name="candrabindu"/>
    </contour>
    <contour>
      <point x="1612" y="670" type="move" name="candrabinduCXT"/>
    </contour>
    <contour>
      <point x="1122" y="670" type="move" name="bindu"/>
    </contour>
    <contour>
      <point x="1307" y="475" type="move" name="top"/>
    </contour>
    <contour>
      <point x="1202" y="0" type="move" name="bottom"/>
    </contour>
  </outline>
</glyph>
<glyph name="dvFTa" format="1">
  <advance width="1290"/>
  <outline>
    <component base="uni095E094D"/>
    <component base="uni0924" xOffset="645"/>
    <contour>
      <point x="1100" y="670" type="move" name="candrabindu"/>
    </contour>
    <contour>
      <point x="1420" y="670" type="move" name="candrabinduCXT"/>
    </contour>
    <contour>
      <point x="1120" y="670" type="move" name="bindu"/>
    </contour>
    <contour>
      <point x="1115" y="475" type="move" name="top"/>
    </contour>
    <contour>
      <point x="1010" y="0" type="move" name="bottom"/>
    </contour>
  </outline>
</glyph>
<glyph name="dvFZa" format="1">
  <advance width="1422"/>
  <outline>
    <component base="dvF"/>
    <component base="dvZa" xOffset="652"/>
    <contour>
      <point x="1232" y="670" type="move" name="candrabindu"/>
    </contour>
    <contour>
      <point x="1552" y="670" type="move" name="candrabinduCXT"/>
    </contour>
    <contour>
      <point x="1252" y="670" type="move" name="bindu"/>
    </contour>
    <contour>
      <point x="1247" y="475" type="move" name="top"/>
    </contour>
    <contour>
      <point x="1142" y="-180" type="move" name="bottom"/>
    </contour>
  </outline>
</glyph>
<glyph name="dvG" format="1">
  <advance width="380"/>
  <outline>
    <contour>
      <point x="8" y="299" type="line"/>
      <point x="36" y="213"/>
      <point x="153" y="113"/>
      <point x="239" y="88" type="curve"/>
      <point x="304" y="125" type="line"/>
      <point x="304" y="315" type="line"/>
      <point x="237" y="357" type="line"/>
      <point x="44" y="357" type="line"/>
    </contour>
    <contour>
      <point x="420" y="538" type="line"/>
      <point x="445" y="587" type="line"/>
      <point x="380" y="670" type="line"/>
      <point x="-40" y="670" type="line"/>
      <point x="-65" y="621" type="line"/>
      <point x="0" y="538" type="line"/>
    </contour>
    <contour>
      <point x="126" y="237" type="line"/>
      <point x="304" y="195" type="line"/>
      <point x="304" y="486" type="line"/>
      <point x="184" y="568" type="line"/>
      <point x="118" y="599" type="line"/>
    </contour>
  </outline>
</glyph>
<glyph name="dvGDhYa" format="1">
  <advance width="1513"/>
  <outline>
    <contour>
      <point x="8" y="299" type="line"/>
      <point x="36" y="213"/>
      <point x="153" y="113"/>
      <point x="239" y="88" type="curve"/>
      <point x="304" y="125" type="line"/>
      <point x="304" y="315" type="line"/>
      <point x="237" y="357" type="line"/>
      <point x="44" y="357" type="line"/>
    </contour>
    <contour>
      <point x="370" y="538" type="line"/>
      <point x="395" y="587" type="line"/>
      <point x="330" y="670" type="line"/>
      <point x="-40" y="670" type="line"/>
      <point x="-65" y="621" type="line"/>
      <point x="0" y="538" type="line"/>
    </contour>
    <contour>
      <point x="126" y="237" type="line"/>
      <point x="304" y="195" type="line"/>
      <point x="304" y="486" type="line"/>
      <point x="184" y="568" type="line"/>
      <point x="118" y="599" type="line"/>
    </contour>
    <component base="uni0927094D" xOffset="358"/>
    <component base="uni092F" xOffset="832"/>
    <contour>
      <point x="1223" y="670" type="move" name="candrabindu"/>
    </contour>
    <contour>
      <point x="1643" y="670" type="move" name="candrabinduCXT"/>
    </contour>
    <contour>
      <point x="1193" y="670" type="move" name="bindu"/>
    </contour>
    <contour>
      <point x="1338" y="475" type="move" name="top"/>
    </contour>
    <contour>
      <point x="1233" y="0" type="move" name="bottom"/>
    </contour>
  </outline>
</glyph>
<glyph name="dvGh" format="1">
  <advance width="458"/>
  <outline>
    <contour>
      <point x="23" y="595" type="line"/>
      <point x="9" y="571"/>
      <point x="3" y="548"/>
      <point x="3" y="526" type="curve" smooth="yes"/>
      <point x="3" y="446"/>
      <point x="82" y="375"/>
      <point x="223" y="322" type="curve"/>
      <point x="262" y="378" type="line"/>
      <point x="213" y="400"/>
      <point x="190" y="438"/>
      <point x="190" y="473" type="curve" smooth="yes"/>
      <point x="190" y="508"/>
      <point x="213" y="540"/>
      <point x="257" y="551" type="curve"/>
    </contour>
    <contour>
      <point x="437" y="340" type="line"/>
      <point x="365" y="459" type="line"/>
      <point x="207" y="494"/>
      <point x="96" y="398"/>
      <point x="96" y="293" type="curve" smooth="yes"/>
      <point x="96" y="217"/>
      <point x="154" y="151"/>
      <point x="223" y="110" type="curve" smooth="yes"/>
      <point x="277" y="78"/>
      <point x="334" y="64"/>
      <point x="384" y="64" type="curve" smooth="yes"/>
      <point x="480" y="64"/>
      <point x="561" y="116"/>
      <point x="611" y="178" type="curve"/>
      <point x="510" y="338" type="line"/>
      <point x="476" y="274"/>
      <point x="349" y="190"/>
      <point x="273" y="205" type="curve"/>
      <point x="253" y="247"/>
      <point x="306" y="303"/>
      <point x="412" y="291" type="curve"/>
    </contour>
    <contour>
      <point x="528" y="538" type="line"/>
      <point x="553" y="587" type="line"/>
      <point x="488" y="670" type="line"/>
      <point x="-60" y="670" type="line"/>
      <point x="-85" y="621" type="line"/>
      <point x="-20" y="538" type="line"/>
    </contour>
  </outline>
</glyph>
<glyph name="dvGhhRa" format="1">
  <advance width="690"/>
  <outline>
    <component base="dvGRa"/>
    <component base="dvNukta" xOffset="396"/>
    <contour>
      <point x="400" y="670" type="move" name="candrabindu"/>
    </contour>
    <contour>
      <point x="820" y="670" type="move" name="candrabinduCXT"/>
    </contour>
    <contour>
      <point x="370" y="670" type="move" name="bindu"/>
    </contour>
    <contour>
      <point x="515" y="475" type="move" name="top"/>
    </contour>
    <contour>
      <point x="400" y="-240" type="move" name="bottom"/>
    </contour>
  </outline>
</glyph>
<glyph name="dvHeadline.dvShRa" format="1">
  <advance width="0"/>
  <outline>
    <contour>
      <point x="78" y="538" type="line"/>
      <point x="103" y="587" type="line"/>
      <point x="38" y="670" type="line"/>
      <point x="-40" y="670" type="line"/>
      <point x="-65" y="621" type="line"/>
      <point x="0" y="538" type="line"/>
    </contour>
  </outline>
</glyph>
<glyph name="dvHeadline.small" format="1">
  <advance width="126"/>
  <outline>
    <contour>
      <point x="166" y="538" type="line"/>
      <point x="191" y="587" type="line"/>
      <point x="126" y="670" type="line"/>
      <point x="-40" y="670" type="line"/>
      <point x="-65" y="621" type="line"/>
      <point x="0" y="538" type="line"/>
    </contour>
  </outline>
</glyph>
<glyph name="dvHeadlineCandrabindu" format="1">
  <advance width="316"/>
  <outline>
    <contour>
      <point x="356" y="538" type="line"/>
      <point x="381" y="587" type="line"/>
      <point x="316" y="670" type="line"/>
      <point x="-40" y="670" type="line"/>
      <point x="-65" y="621" type="line"/>
      <point x="0" y="538" type="line"/>
    </contour>
    <component base="dvCandrabindu" xOffset="380"/>
  </outline>
</glyph>
<glyph name="dvJYa" format="1">
  <advance width="1171"/>
  <outline>
    <component base="dvJ.alt"/>
    <component base="dvYa" xOffset="490"/>
    <contour>
      <point x="881" y="670" type="move" name="candrabindu"/>
    </contour>
    <contour>
      <point x="1301" y="670" type="move" name="candrabinduCXT"/>
    </contour>
    <contour>
      <point x="851" y="670" type="move" name="bindu"/>
    </contour>
    <contour>
      <point x="996" y="475" type="move" name="top"/>
    </contour>
    <contour>
      <point x="891" y="0" type="move" name="bottom"/>
    </contour>
  </outline>
</glyph>
<glyph name="dvJh.NEP" format="1">
  <advance width="751"/>
  <outline>
    <contour>
      <point x="55" y="303" type="line"/>
      <point x="80" y="217"/>
      <point x="200" y="107"/>
      <point x="286" y="82" type="curve"/>
      <point x="351" y="119" type="line"/>
      <point x="351" y="319" type="line"/>
      <point x="284" y="361" type="line"/>
      <point x="91" y="361" type="line"/>
    </contour>
    <contour>
      <point x="441" y="23" type="line"/>
      <point x="573" y="-46" type="line"/>
      <point x="627" y="-19" type="line"/>
      <point x="627" y="486" type="line"/>
      <point x="507" y="568" type="line"/>
      <point x="441" y="599" type="line"/>
    </contour>
    <contour>
      <point x="797" y="538" type="line"/>
      <point x="822" y="587" type="line"/>
      <point x="757" y="670" type="line"/>
      <point x="401" y="670" type="line"/>
      <point x="376" y="621" type="line"/>
      <point x="441" y="538" type="line"/>
    </contour>
    <contour>
      <point x="556" y="361" type="line"/>
      <point x="228" y="361" type="line"/>
      <point x="259" y="205" type="line"/>
      <point x="578" y="205" type="line"/>
    </contour>
    <contour>
      <point x="2" y="694"/>
      <point x="-50" y="625"/>
      <point x="-50" y="559" type="curve" smooth="yes"/>
      <point x="-50" y="505"/>
      <point x="-15" y="455"/>
      <point x="69" y="396" type="curve"/>
      <point x="136" y="447" type="line"/>
      <point x="64" y="506"/>
      <point x="106" y="565"/>
      <point x="161" y="563" type="curve"/>
      <point x="169" y="550"/>
      <point x="172" y="524"/>
      <point x="172" y="500" type="curve" smooth="yes"/>
      <point x="173" y="227" type="line"/>
      <point x="351" y="211" type="line"/>
      <point x="351" y="448" type="line" smooth="yes"/>
      <point x="351" y="560"/>
      <point x="225" y="694"/>
      <point x="95" y="694" type="curve" smooth="yes"/>
    </contour>
    <contour>
      <point x="891" y="330" type="line"/>
      <point x="838" y="409"/>
      <point x="780" y="445"/>
      <point x="718" y="445" type="curve" smooth="yes"/>
      <point x="639" y="445"/>
      <point x="554" y="387"/>
      <point x="468" y="282" type="curve"/>
      <point x="546" y="143" type="line"/>
      <point x="603" y="218"/>
      <point x="675" y="282"/>
      <point x="740" y="282" type="curve" smooth="yes"/>
      <point x="766" y="282"/>
      <point x="790" y="272"/>
      <point x="812" y="249" type="curve"/>
    </contour>
  </outline>
</glyph>
<glyph name="dvKR" format="1">
  <advance width="640"/>
  <outline>
    <contour>
      <point x="332" y="23" type="line"/>
      <point x="464" y="-46" type="line"/>
      <point x="518" y="-19" type="line"/>
      <point x="518" y="486" type="line"/>
      <point x="398" y="568" type="line"/>
      <point x="332" y="599" type="line"/>
    </contour>
    <contour>
      <point x="-12" y="42" type="line"/>
      <point x="121" y="-67" type="line"/>
      <point x="445" y="160" type="line"/>
      <point x="370" y="288" type="line" smooth="yes"/>
    </contour>
    <contour>
      <point x="249" y="480" type="line"/>
      <point x="96" y="511"/>
      <point x="19" y="413"/>
      <point x="19" y="314" type="curve" smooth="yes"/>
      <point x="19" y="169"/>
      <point x="187" y="82"/>
      <point x="299" y="82" type="curve" smooth="yes"/>
      <point x="307" y="82"/>
      <point x="314" y="82"/>
      <point x="321" y="83" type="curve"/>
      <point x="451" y="173" type="line"/>
      <point x="357" y="322" type="line"/>
      <point x="324" y="251"/>
      <point x="271" y="224"/>
      <point x="226" y="215" type="curve"/>
      <point x="192" y="264"/>
      <point x="212" y="347"/>
      <point x="293" y="347" type="curve" smooth="yes"/>
      <point x="331" y="347"/>
      <point x="371" y="329"/>
      <point x="420" y="294" type="curve"/>
      <point x="444" y="375" type="line"/>
    </contour>
    <contour>
      <point x="791" y="354" type="line"/>
      <point x="753" y="415"/>
      <point x="690" y="460"/>
      <point x="620" y="460" type="curve" smooth="yes"/>
      <point x="513" y="460"/>
      <point x="441" y="355"/>
      <point x="388" y="256" type="curve"/>
      <point x="466" y="117" type="line"/>
      <point x="515" y="195"/>
      <point x="603" y="288"/>
      <point x="649" y="288" type="curve" smooth="yes"/>
      <point x="659" y="288"/>
      <point x="670" y="283"/>
      <point x="677" y="277" type="curve" smooth="yes"/>
      <point x="692" y="263" type="line"/>
    </contour>
    <contour>
      <point x="685" y="538" type="line"/>
      <point x="710" y="587" type="line"/>
      <point x="645" y="670" type="line"/>
      <point x="-40" y="670" type="line"/>
      <point x="-65" y="621" type="line"/>
      <point x="0" y="538" type="line"/>
    </contour>
  </outline>
</glyph>
<glyph name="dvKSPLa.MAR" format="1">
  <advance width="2257"/>
  <outline>
    <component base="uni0915094D"/>
    <component base="uni0938094D" xOffset="658"/>
    <component base="uni092A094D" xOffset="1149"/>
    <component base="uni0932.MAR" xOffset="1467"/>
    <contour>
      <point x="1977" y="670" type="move" name="candrabindu"/>
    </contour>
    <contour>
      <point x="2300" y="670" type="move" name="candrabinduCXT"/>
    </contour>
    <contour>
      <point x="1987" y="670" type="move" name="bindu"/>
    </contour>
    <contour>
      <point x="1985" y="475" type="move" name="top"/>
    </contour>
    <contour>
      <point x="1826" y="-80" type="move" name="bottom"/>
    </contour>
  </outline>
</glyph>
<glyph name="dvKSPLa" format="1">
  <advance width="2228"/>
  <outline>
    <component base="uni0915094D"/>
    <component base="uni0938094D" xOffset="630"/>
    <component base="uni092A094D" xOffset="1120"/>
    <component base="uni0932" xOffset="1438"/>
    <contour>
      <point x="2038" y="670" type="move" name="candrabindu"/>
    </contour>
    <contour>
      <point x="2358" y="670" type="move" name="candrabinduCXT"/>
    </contour>
    <contour>
      <point x="2058" y="670" type="move" name="bindu"/>
    </contour>
    <contour>
      <point x="2053" y="475" type="move" name="top"/>
    </contour>
    <contour>
      <point x="1948" y="0" type="move" name="bottom"/>
    </contour>
  </outline>
</glyph>
<glyph name="dvKSPRa" format="1">
  <advance width="1757"/>
  <outline>
    <component base="uni0915094D"/>
    <component base="uni0938094D" xOffset="630"/>
    <component base="dvPRa" xOffset="1084"/>
    <contour>
      <point x="1447" y="670" type="move" name="candrabindu"/>
    </contour>
    <contour>
      <point x="1887" y="670" type="move" name="candrabinduCXT"/>
    </contour>
    <contour>
      <point x="1437" y="670" type="move" name="bindu"/>
    </contour>
    <contour>
      <point x="1582" y="475" type="move" name="top"/>
    </contour>
    <contour>
      <point x="1477" y="-40" type="move" name="bottom"/>
    </contour>
  </outline>
</glyph>
<glyph name="dvKSsVa" format="1">
  <advance width="1263"/>
  <outline>
    <component base="dvKSs"/>
    <component base="uni0935" xOffset="598"/>
    <contour>
      <point x="1073" y="670" type="move" name="candrabindu"/>
    </contour>
    <contour>
      <point x="1393" y="670" type="move" name="candrabinduCXT"/>
    </contour>
    <contour>
      <point x="1093" y="670" type="move" name="bindu"/>
    </contour>
    <contour>
      <point x="1088" y="475" type="move" name="top"/>
    </contour>
    <contour>
      <point x="983" y="0" type="move" name="bottom"/>
    </contour>
  </outline>
</glyph>
<glyph name="dvKTYa" format="1">
  <advance width="1658"/>
  <outline>
    <component base="uni0915094D"/>
    <component base="uni0924094D" xOffset="640"/>
    <component base="uni092F" xOffset="977"/>
    <contour>
      <point x="1368" y="670" type="move" name="candrabindu"/>
    </contour>
    <contour>
      <point x="1788" y="670" type="move" name="candrabinduCXT"/>
    </contour>
    <contour>
      <point x="1338" y="670" type="move" name="bindu"/>
    </contour>
    <contour>
      <point x="1483" y="475" type="move" name="top"/>
    </contour>
    <contour>
      <point x="1378" y="0" type="move" name="bottom"/>
    </contour>
  </outline>
</glyph>
<glyph name="dvKYa" format="1">
  <advance width="1301"/>
  <outline>
    <component base="dvK"/>
    <component base="dvYa" xOffset="620"/>
    <contour>
      <point x="1011" y="670" type="move" name="candrabindu"/>
    </contour>
    <contour>
      <point x="1431" y="670" type="move" name="candrabinduCXT"/>
    </contour>
    <contour>
      <point x="981" y="670" type="move" name="bindu"/>
    </contour>
    <contour>
      <point x="1126" y="475" type="move" name="top"/>
    </contour>
    <contour>
      <point x="1021" y="0" type="move" name="bottom"/>
    </contour>
  </outline>
</glyph>
<glyph name="dvKhhMa" format="1">
  <advance width="1427"/>
  <outline>
    <component base="dvKhh"/>
    <component base="dvMa" xOffset="723"/>
    <contour>
      <point x="1116" y="670" type="move" name="candrabindu"/>
    </contour>
    <contour>
      <point x="1557" y="670" type="move" name="candrabinduCXT"/>
    </contour>
    <contour>
      <point x="1097" y="670" type="move" name="bindu"/>
    </contour>
    <contour>
      <point x="1252" y="475" type="move" name="top"/>
    </contour>
    <contour>
      <point x="1147" y="0" type="move" name="bottom"/>
    </contour>
  </outline>
</glyph>
<glyph name="dvKhhRa" format="1">
  <advance width="920"/>
  <outline>
    <component base="uni093C" xOffset="185" yOffset="24"/>
    <component base="dvKhRa"/>
    <contour>
      <point x="550" y="670" type="move" name="candrabindu"/>
    </contour>
    <contour>
      <point x="1050" y="670" type="move" name="candrabinduCXT"/>
    </contour>
    <contour>
      <point x="530" y="670" type="move" name="bindu"/>
    </contour>
    <contour>
      <point x="745" y="475" type="move" name="top"/>
    </contour>
    <contour>
      <point x="640" y="-162" type="move" name="bottom"/>
    </contour>
  </outline>
</glyph>
<glyph name="dvKhhTa" format="1">
  <advance width="1340"/>
  <outline>
    <component base="dvKhh"/>
    <component base="dvTa" xOffset="695"/>
    <contour>
      <point x="1150" y="670" type="move" name="candrabindu"/>
    </contour>
    <contour>
      <point x="1470" y="670" type="move" name="candrabinduCXT"/>
    </contour>
    <contour>
      <point x="1170" y="670" type="move" name="bindu"/>
    </contour>
    <contour>
      <point x="1165" y="475" type="move" name="top"/>
    </contour>
    <contour>
      <point x="1060" y="0" type="move" name="bottom"/>
    </contour>
  </outline>
</glyph>
<glyph name="dvKhhVa" format="1">
  <advance width="1390"/>
  <outline>
    <component base="uni0959094D"/>
    <component base="uni0935" xOffset="725"/>
    <contour>
      <point x="1200" y="670" type="move" name="candrabindu"/>
    </contour>
    <contour>
      <point x="1520" y="670" type="move" name="candrabinduCXT"/>
    </contour>
    <contour>
      <point x="1220" y="670" type="move" name="bindu"/>
    </contour>
    <contour>
      <point x="1215" y="475" type="move" name="top"/>
    </contour>
    <contour>
      <point x="1110" y="0" type="move" name="bottom"/>
    </contour>
  </outline>
</glyph>
<glyph name="dvLLYa" format="1">
  <advance width="1791"/>
  <outline>
    <component base="uni0932094D"/>
    <component base="uni0932094D.alt" xOffset="560"/>
    <component base="uni092F" xOffset="1110"/>
    <contour>
      <point x="1501" y="670" type="move" name="candrabindu"/>
    </contour>
    <contour>
      <point x="1921" y="670" type="move" name="candrabinduCXT"/>
    </contour>
    <contour>
      <point x="1471" y="670" type="move" name="bindu"/>
    </contour>
    <contour>
      <point x="1616" y="475" type="move" name="top"/>
    </contour>
    <contour>
      <point x="1511" y="0" type="move" name="bottom"/>
    </contour>
  </outline>
</glyph>
<glyph name="dvLThYa" format="1">
  <advance width="1680"/>
  <outline>
    <component base="dvL.alt"/>
    <component base="dvTh" xOffset="560"/>
    <component base="dvYa" xOffset="999"/>
    <contour>
      <point x="1390" y="670" type="move" name="candrabindu"/>
    </contour>
    <contour>
      <point x="1810" y="670" type="move" name="candrabinduCXT"/>
    </contour>
    <contour>
      <point x="1360" y="670" type="move" name="bindu"/>
    </contour>
    <contour>
      <point x="1505" y="475" type="move" name="top"/>
    </contour>
    <contour>
      <point x="1400" y="0" type="move" name="bottom"/>
    </contour>
  </outline>
</glyph>
<glyph name="dvLl" format="1">
  <advance width="810"/>
  <outline>
    <contour>
      <point x="438" y="314" type="line"/>
      <point x="300" y="456" type="line"/>
      <point x="276" y="465"/>
      <point x="259" y="473"/>
      <point x="225" y="473" type="curve" smooth="yes"/>
      <point x="106" y="473"/>
      <point x="17" y="374"/>
      <point x="17" y="241" type="curve" smooth="yes"/>
      <point x="17" y="92"/>
      <point x="128" y="-33"/>
      <point x="262" y="-33" type="curve" smooth="yes"/>
      <point x="384" y="-33"/>
      <point x="424" y="71"/>
      <point x="580" y="329" type="curve"/>
      <point x="616" y="303"/>
      <point x="632" y="262"/>
      <point x="632" y="222" type="curve" smooth="yes"/>
      <point x="632" y="163"/>
      <point x="597" y="107"/>
      <point x="540" y="107" type="curve" smooth="yes"/>
      <point x="499" y="107"/>
      <point x="465" y="135"/>
      <point x="417" y="208" type="curve"/>
      <point x="362" y="131" type="line"/>
      <point x="493" y="-6" type="line"/>
      <point x="527" y="-25"/>
      <point x="570" y="-33"/>
      <point x="604" y="-33" type="curve" smooth="yes"/>
      <point x="715" y="-33"/>
      <point x="795" y="54"/>
      <point x="795" y="173" type="curve" smooth="yes"/>
      <point x="795" y="316"/>
      <point x="679" y="466"/>
      <point x="540" y="466" type="curve" smooth="yes"/>
      <point x="399" y="466"/>
      <point x="400" y="310"/>
      <point x="228" y="81" type="curve"/>
      <point x="197" y="108"/>
      <point x="182" y="159"/>
      <point x="182" y="193" type="curve" smooth="yes"/>
      <point x="182" y="244"/>
      <point x="215" y="306"/>
      <point x="274" y="306" type="curve" smooth="yes"/>
      <point x="309" y="306"/>
      <point x="339" y="284"/>
      <point x="370" y="242" type="curve"/>
    </contour>
    <contour>
      <point x="850" y="538" type="line"/>
      <point x="875" y="587" type="line"/>
      <point x="810" y="670" type="line"/>
      <point x="-40" y="670" type="line"/>
      <point x="-65" y="621" type="line"/>
      <point x="0" y="538" type="line"/>
    </contour>
  </outline>
</glyph>
<glyph name="dvM" format="1">
  <advance width="425"/>
  <outline>
    <contour>
      <point x="8" y="293" type="line"/>
      <point x="33" y="207"/>
      <point x="153" y="97"/>
      <point x="239" y="72" type="curve"/>
      <point x="304" y="109" type="line"/>
      <point x="304" y="309" type="line"/>
      <point x="237" y="351" type="line"/>
      <point x="44" y="351" type="line"/>
    </contour>
    <contour>
      <point x="470" y="538" type="line"/>
      <point x="495" y="587" type="line"/>
      <point x="430" y="670" type="line"/>
      <point x="-40" y="670" type="line"/>
      <point x="-65" y="621" type="line"/>
      <point x="0" y="538" type="line"/>
    </contour>
    <contour>
      <point x="131" y="227" type="line"/>
      <point x="304" y="185" type="line"/>
      <point x="304" y="486" type="line"/>
      <point x="184" y="568" type="line"/>
      <point x="115" y="599" type="line"/>
    </contour>
    <contour>
      <point x="519" y="351" type="line"/>
      <point x="191" y="351" type="line"/>
      <point x="222" y="195" type="line"/>
      <point x="561" y="195" type="line"/>
    </contour>
  </outline>
</glyph>
<glyph name="dvN.alt" format="1">
  <advance width="321"/>
  <outline>
    <contour>
      <point x="410" y="538" type="line"/>
      <point x="435" y="587" type="line"/>
      <point x="370" y="670" type="line"/>
      <point x="-40" y="670" type="line"/>
      <point x="-65" y="621" type="line"/>
      <point x="0" y="538" type="line"/>
    </contour>
    <contour>
      <point x="7" y="305" type="line"/>
      <point x="20" y="219"/>
      <point x="101" y="103"/>
      <point x="190" y="59" type="curve"/>
      <point x="262" y="95" type="line"/>
      <point x="262" y="321" type="line"/>
      <point x="195" y="363" type="line"/>
      <point x="43" y="363" type="line"/>
    </contour>
    <contour>
      <point x="520" y="252" type="line"/>
      <point x="456" y="363" type="line"/>
      <point x="139" y="363" type="line"/>
      <point x="170" y="207" type="line"/>
      <point x="493" y="207" type="line"/>
    </contour>
  </outline>
</glyph>
<glyph name="dvNBh" format="1">
  <advance width="778"/>
  <outline>
    <contour>
      <point x="279" y="538" type="line"/>
      <point x="304" y="587" type="line"/>
      <point x="239" y="670" type="line"/>
      <point x="-40" y="670" type="line"/>
      <point x="-65" y="621" type="line"/>
      <point x="0" y="538" type="line"/>
    </contour>
    <contour>
      <point x="7" y="342" type="line"/>
      <point x="20" y="256"/>
      <point x="101" y="140"/>
      <point x="190" y="96" type="curve"/>
      <point x="262" y="132" type="line"/>
      <point x="262" y="358" type="line"/>
      <point x="195" y="400" type="line"/>
      <point x="43" y="400" type="line"/>
    </contour>
    <contour>
      <point x="487" y="296" type="line"/>
      <point x="432" y="378"/>
      <point x="392" y="400"/>
      <point x="275" y="400" type="curve" smooth="yes"/>
      <point x="56" y="400" type="line"/>
      <point x="56" y="348" type="line"/>
      <point x="202" y="234" type="line"/>
      <point x="314" y="234" type="line" smooth="yes"/>
      <point x="372" y="234"/>
      <point x="395" y="228"/>
      <point x="439" y="202" type="curve"/>
    </contour>
    <component base="dvBh" xOffset="326"/>
  </outline>
</glyph>
<glyph name="dvNJYa" format="1">
  <advance width="1517"/>
  <outline>
    <component base="uni0928094D"/>
    <component base="dvJYa" xOffset="346"/>
    <contour>
      <point x="1227" y="670" type="move" name="candrabindu"/>
    </contour>
    <contour>
      <point x="1647" y="670" type="move" name="candrabinduCXT"/>
    </contour>
    <contour>
      <point x="1197" y="670" type="move" name="bindu"/>
    </contour>
    <contour>
      <point x="1342" y="475" type="move" name="top"/>
    </contour>
    <contour>
      <point x="1237" y="0" type="move" name="bottom"/>
    </contour>
  </outline>
</glyph>
<glyph name="dvNTSa" format="1">
  <advance width="1455"/>
  <outline>
    <component base="dvN"/>
    <component base="dvT.alt1" xOffset="292"/>
    <component base="dvSa" xOffset="646"/>
    <contour>
      <point x="1135" y="670" type="move" name="candrabindu"/>
    </contour>
    <contour>
      <point x="1585" y="670" type="move" name="candrabinduCXT"/>
    </contour>
    <contour>
      <point x="1095" y="670" type="move" name="bindu"/>
    </contour>
    <contour>
      <point x="1280" y="475" type="move" name="top"/>
    </contour>
    <contour>
      <point x="1175" y="0" type="move" name="bottom"/>
    </contour>
  </outline>
</glyph>
<glyph name="dvNTYa" format="1">
  <advance width="1357"/>
  <outline>
    <component base="uni0928094D"/>
    <component base="dvTYa" xOffset="329"/>
    <contour>
      <point x="1067" y="670" type="move" name="candrabindu"/>
    </contour>
    <contour>
      <point x="1487" y="670" type="move" name="candrabinduCXT"/>
    </contour>
    <contour>
      <point x="1037" y="670" type="move" name="bindu"/>
    </contour>
    <contour>
      <point x="1182" y="475" type="move" name="top"/>
    </contour>
    <contour>
      <point x="1077" y="0" type="move" name="bottom"/>
    </contour>
  </outline>
</glyph>
<glyph name="dvNThVa" format="1">
  <advance width="1441"/>
  <outline>
    <component base="dvN"/>
    <component base="dvTh" xOffset="341"/>
    <component base="dvVa" xOffset="776"/>
    <contour>
      <point x="1251" y="670" type="move" name="candrabindu"/>
    </contour>
    <contour>
      <point x="1571" y="670" type="move" name="candrabinduCXT"/>
    </contour>
    <contour>
      <point x="1271" y="670" type="move" name="bindu"/>
    </contour>
    <contour>
      <point x="1266" y="475" type="move" name="top"/>
    </contour>
    <contour>
      <point x="1161" y="0" type="move" name="bottom"/>
    </contour>
  </outline>
</glyph>
<glyph name="dvNThYa" format="1">
  <advance width="1457"/>
  <outline>
    <component base="uni0928094D"/>
    <component base="uni0925094D" xOffset="341"/>
    <component base="uni092F" xOffset="776"/>
    <contour>
      <point x="1167" y="670" type="move" name="candrabindu"/>
    </contour>
    <contour>
      <point x="1587" y="670" type="move" name="candrabinduCXT"/>
    </contour>
    <contour>
      <point x="1137" y="670" type="move" name="bindu"/>
    </contour>
    <contour>
      <point x="1282" y="475" type="move" name="top"/>
    </contour>
    <contour>
      <point x="1177" y="0" type="move" name="bottom"/>
    </contour>
  </outline>
</glyph>
<glyph name="dvNine.ss05" format="1">
  <advance width="591"/>
  <outline>
    <contour>
      <point x="161" y="325" type="line"/>
      <point x="113" y="273"/>
      <point x="93" y="230"/>
      <point x="93" y="180" type="curve" smooth="yes"/>
      <point x="93" y="49"/>
      <point x="227" y="-16"/>
      <point x="317" y="-16" type="curve" smooth="yes"/>
      <point x="355" y="-16"/>
      <point x="383" y="-4"/>
      <point x="468" y="37" type="curve"/>
      <point x="467" y="1"/>
      <point x="410" y="-53"/>
      <point x="384" y="-78" type="curve"/>
      <point x="546" y="-159" type="line"/>
      <point x="690" y="-16"/>
      <point x="548" y="187"/>
      <point x="419" y="187" type="curve" smooth="yes"/>
      <point x="373" y="187"/>
      <point x="323" y="161"/>
      <point x="230" y="121" type="curve"/>
      <point x="239" y="165"/>
      <point x="269" y="224"/>
      <point x="317" y="265" type="curve"/>
    </contour>
    <contour>
      <point x="530" y="257" type="line"/>
      <point x="555" y="306" type="line"/>
      <point x="489" y="418" type="line"/>
      <point x="204" y="418" type="line"/>
      <point x="189" y="401" type="line"/>
      <point x="0" y="401" type="line"/>
      <point x="-25" y="352" type="line"/>
      <point x="36" y="257" type="line"/>
    </contour>
    <contour>
      <point x="274" y="378"/>
      <point x="236" y="428"/>
      <point x="236" y="463" type="curve" smooth="yes"/>
      <point x="236" y="501"/>
      <point x="282" y="526"/>
      <point x="348" y="526" type="curve" smooth="yes"/>
      <point x="392" y="526"/>
      <point x="446" y="515"/>
      <point x="503" y="489" type="curve"/>
      <point x="507" y="654" type="line"/>
      <point x="443" y="680"/>
      <point x="381" y="694"/>
      <point x="316" y="694" type="curve" smooth="yes"/>
      <point x="168" y="694"/>
      <point x="80" y="619"/>
      <point x="80" y="522" type="curve" smooth="yes"/>
      <point x="80" y="453"/>
      <point x="125" y="382"/>
      <point x="248" y="306" type="curve"/>
      <point x="324" y="365" type="line"/>
    </contour>
  </outline>
</glyph>
<glyph name="dvNn" format="1">
  <advance width="508"/>
  <outline>
    <contour>
      <point x="549" y="538" type="line"/>
      <point x="574" y="587" type="line"/>
      <point x="509" y="670" type="line"/>
      <point x="-60" y="670" type="line"/>
      <point x="-85" y="621" type="line"/>
      <point x="-20" y="538" type="line"/>
    </contour>
    <contour>
      <point x="341" y="568" type="line"/>
      <point x="282" y="599" type="line"/>
      <point x="282" y="298" type="line" smooth="yes"/>
      <point x="282" y="247"/>
      <point x="230" y="239"/>
      <point x="207" y="258" type="curve"/>
      <point x="207" y="486" type="line"/>
      <point x="97" y="568" type="line"/>
      <point x="31" y="599" type="line"/>
      <point x="31" y="373" type="line" smooth="yes"/>
      <point x="31" y="245"/>
      <point x="178" y="114"/>
      <point x="309" y="114" type="curve" smooth="yes"/>
      <point x="395" y="114"/>
      <point x="461" y="171"/>
      <point x="461" y="302" type="curve" smooth="yes"/>
      <point x="461" y="486" type="line"/>
    </contour>
  </outline>
</glyph>
<glyph name="dvNy" format="1">
  <advance width="600"/>
  <outline>
    <contour>
      <point x="383" y="279" type="line"/>
      <point x="448" y="206"/>
      <point x="594" y="131"/>
      <point x="724" y="214" type="curve"/>
      <point x="646" y="356" type="line"/>
      <point x="596" y="297"/>
      <point x="484" y="309"/>
      <point x="398" y="343" type="curve"/>
    </contour>
    <contour>
      <point x="226" y="291" type="line"/>
      <point x="381" y="417" type="line"/>
      <point x="296" y="390" type="line"/>
      <point x="343" y="385"/>
      <point x="369" y="345"/>
      <point x="369" y="305" type="curve" smooth="yes"/>
      <point x="369" y="259"/>
      <point x="336" y="212"/>
      <point x="268" y="212" type="curve" smooth="yes"/>
      <point x="193" y="212"/>
      <point x="138" y="269"/>
      <point x="60" y="402" type="curve"/>
      <point x="-32" y="340" type="line"/>
      <point x="97" y="95"/>
      <point x="243" y="49"/>
      <point x="327" y="49" type="curve" smooth="yes"/>
      <point x="450" y="49"/>
      <point x="532" y="148"/>
      <point x="532" y="259" type="curve" smooth="yes"/>
      <point x="532" y="397"/>
      <point x="406" y="510"/>
      <point x="276" y="510" type="curve" smooth="yes"/>
      <point x="229" y="510"/>
      <point x="170" y="495"/>
      <point x="118" y="434" type="curve"/>
    </contour>
    <contour>
      <point x="670" y="538" type="line"/>
      <point x="695" y="587" type="line"/>
      <point x="630" y="670" type="line"/>
      <point x="-40" y="670" type="line"/>
      <point x="-65" y="621" type="line"/>
      <point x="0" y="538" type="line"/>
    </contour>
  </outline>
</glyph>
<glyph name="dvP" format="1">
  <advance width="358"/>
  <outline>
    <contour>
      <point x="413" y="538" type="line"/>
      <point x="438" y="587" type="line"/>
      <point x="373" y="670" type="line"/>
      <point x="-40" y="670" type="line"/>
      <point x="-65" y="621" type="line"/>
      <point x="0" y="538" type="line"/>
    </contour>
    <contour>
      <point x="403" y="349" type="line"/>
      <point x="374" y="293"/>
      <point x="317" y="256"/>
      <point x="265" y="256" type="curve" smooth="yes"/>
      <point x="253" y="256"/>
      <point x="240" y="258"/>
      <point x="227" y="263" type="curve"/>
      <point x="227" y="486" type="line"/>
      <point x="107" y="568" type="line"/>
      <point x="30" y="599" type="line"/>
      <point x="30" y="378" type="line" smooth="yes"/>
      <point x="30" y="250"/>
      <point x="202" y="103"/>
      <point x="344" y="103" type="curve" smooth="yes"/>
      <point x="421" y="103"/>
      <point x="482" y="146"/>
      <point x="526" y="217" type="curve"/>
    </contour>
  </outline>
</glyph>
<glyph name="dvPR" format="1">
  <advance width="358"/>
  <outline>
    <contour>
      <point x="41" y="44" type="line"/>
      <point x="169" y="-61" type="line"/>
      <point x="518" y="197" type="line"/>
      <point x="433" y="310" type="line" smooth="yes"/>
    </contour>
    <contour>
      <point x="443" y="538" type="line"/>
      <point x="468" y="587" type="line"/>
      <point x="403" y="670" type="line"/>
      <point x="-40" y="670" type="line"/>
      <point x="-65" y="621" type="line"/>
      <point x="0" y="538" type="line"/>
    </contour>
    <contour>
      <point x="438" y="335" type="line"/>
      <point x="419" y="314"/>
      <point x="398" y="298"/>
      <point x="370" y="279" type="curve" smooth="yes"/>
      <point x="348" y="266"/>
      <point x="323" y="259"/>
      <point x="299" y="259" type="curve" smooth="yes"/>
      <point x="289" y="259"/>
      <point x="277" y="260"/>
      <point x="267" y="263" type="curve"/>
      <point x="267" y="486" type="line"/>
      <point x="147" y="568" type="line"/>
      <point x="70" y="599" type="line"/>
      <point x="70" y="378" type="line" smooth="yes"/>
      <point x="70" y="314"/>
      <point x="115" y="245"/>
      <point x="175" y="193" type="curve" smooth="yes"/>
      <point x="239" y="138"/>
      <point x="310" y="113"/>
      <point x="371" y="113" type="curve" smooth="yes"/>
      <point x="376" y="113"/>
      <point x="380" y="113"/>
      <point x="385" y="114" type="curve"/>
      <point x="470" y="179" type="line"/>
      <point x="518" y="197" type="line"/>
    </contour>
  </outline>
</glyph>
<glyph name="dvPTYa" format="1">
  <advance width="1338"/>
  <outline>
    <component base="uni092A094D"/>
    <component base="dvTYa" xOffset="310"/>
    <contour>
      <point x="1048" y="670" type="move" name="candrabindu"/>
    </contour>
    <contour>
      <point x="1468" y="670" type="move" name="candrabinduCXT"/>
    </contour>
    <contour>
      <point x="1018" y="670" type="move" name="bindu"/>
    </contour>
    <contour>
      <point x="1163" y="475" type="move" name="top"/>
    </contour>
    <contour>
      <point x="1058" y="0" type="move" name="bottom"/>
    </contour>
  </outline>
</glyph>
